M48
; DRILL file {KiCad 7.0.2} date Wed Nov  6 13:00:45 2024
; FORMAT={-:-/ absolute / metric / decimal}
; #@! TF.CreationDate,2024-11-06T13:00:45+09:00
; #@! TF.GenerationSoftware,Kicad,Pcbnew,7.0.2
; #@! TF.FileFunction,Plated,1,2,PTH
FMAT,2
METRIC
; #@! TA.AperFunction,Plated,PTH,ViaDrill
T1C0.300
; #@! TA.AperFunction,Plated,PTH,ViaDrill
T2C0.400
; #@! TA.AperFunction,Plated,PTH,ViaDrill
T3C0.600
; #@! TA.AperFunction,Plated,PTH,ComponentDrill
T4C0.700
; #@! TA.AperFunction,Plated,PTH,ComponentDrill
T5C0.750
; #@! TA.AperFunction,Plated,PTH,ComponentDrill
T6C0.762
; #@! TA.AperFunction,Plated,PTH,ViaDrill
T7C0.800
; #@! TA.AperFunction,Plated,PTH,ComponentDrill
T8C0.800
; #@! TA.AperFunction,Plated,PTH,ComponentDrill
T9C1.000
; #@! TA.AperFunction,Plated,PTH,ComponentDrill
T10C1.100
; #@! TA.AperFunction,Plated,PTH,ComponentDrill
T11C1.200
%
G90
G05
T1
X107.6Y-120.25
X107.6Y-121.75
X107.6Y-123.25
X107.6Y-124.5
X108.85Y-120.25
X108.85Y-121.75
X108.85Y-123.25
X108.85Y-124.5
X110.1Y-120.25
X110.1Y-121.75
X110.1Y-123.25
X110.1Y-124.5
X111.35Y-120.25
X111.35Y-121.75
X111.35Y-123.25
X111.35Y-124.5
X112.6Y-120.25
X112.6Y-121.75
X112.6Y-123.25
X112.6Y-124.5
T2
X154.67Y-87.02
X158.755Y-107.595
X158.85Y-114.0
X185.6Y-89.5
X187.1Y-93.0
T3
X178.85Y-97.0
T4
X107.547Y-134.817
X115.167Y-134.817
X135.1Y-73.94
X135.1Y-81.56
X137.85Y-123.19
X137.85Y-130.81
X155.3Y-90.02
X159.35Y-116.5
X160.67Y-79.46
X160.67Y-87.08
X162.58Y-92.77
X162.58Y-95.24
X162.92Y-90.02
X166.11Y-82.27
X166.11Y-89.89
X166.97Y-116.5
X170.2Y-92.77
X170.2Y-95.24
X198.1Y-93.94
X198.1Y-101.56
X198.1Y-106.94
X198.1Y-114.56
X201.6Y-93.94
X201.6Y-101.56
X201.6Y-106.94
X201.6Y-114.56
T5
X139.6Y-81.0
X139.6Y-82.27
X139.6Y-83.54
X151.19Y-86.7
X151.19Y-87.97
X151.19Y-89.24
X157.92Y-93.98
X157.92Y-95.25
X157.92Y-96.52
X191.85Y-77.25
X193.12Y-77.25
X194.39Y-77.25
T6
X150.85Y-134.75
X153.39Y-134.75
X155.93Y-134.75
X163.35Y-106.92
X163.35Y-112.0
X165.89Y-109.46
X184.56Y-123.75
X187.1Y-121.21
X189.64Y-123.75
X194.81Y-123.75
X197.35Y-121.21
X199.89Y-123.75
T7
X113.608Y-126.567
X117.358Y-121.317
X125.1Y-93.0
X127.35Y-95.25
X129.6Y-81.5
X129.6Y-99.5
X148.6Y-89.5
X173.1Y-93.75
X182.282Y-83.568
X187.35Y-97.5
T8
X117.188Y-129.537
X117.188Y-132.037
X133.1Y-102.4
X133.1Y-115.1
X134.35Y-86.15
X134.35Y-98.85
X144.89Y-123.65
X144.89Y-128.75
X144.89Y-131.25
X144.9Y-126.25
X146.49Y-87.19
X146.49Y-89.69
X150.1Y-67.5
X151.74Y-82.54
X152.06Y-93.75
X152.06Y-96.25
X152.51Y-123.65
X152.51Y-128.75
X152.51Y-131.25
X152.52Y-126.25
X152.6Y-67.5
X154.24Y-82.54
X155.4Y-123.75
X155.4Y-126.25
X155.4Y-128.75
X155.4Y-131.25
X157.67Y-84.52
X157.67Y-87.02
X160.6Y-69.44
X160.6Y-77.06
X163.02Y-123.75
X163.02Y-126.25
X163.02Y-128.75
X163.02Y-131.25
X165.85Y-71.69
X165.85Y-79.31
X170.11Y-87.27
X170.11Y-89.77
X182.282Y-77.25
X184.782Y-77.25
X188.85Y-81.75
X191.35Y-81.75
X194.35Y-81.75
X195.1Y-85.69
X195.1Y-93.31
X196.85Y-81.75
X198.918Y-77.25
X201.418Y-77.25
T9
X107.6Y-86.5
X107.65Y-74.583
X108.1Y-98.0
X108.1Y-108.0
X109.06Y-112.5
X111.6Y-112.5
X116.6Y-98.0
X116.6Y-108.0
X125.1Y-98.0
X125.1Y-108.0
X141.35Y-89.5
X141.35Y-103.735
X141.35Y-106.275
X141.35Y-111.96
X141.35Y-114.5
X145.92Y-94.0
X147.6Y-79.0
X154.6Y-119.5
X156.1Y-66.5
X164.35Y-99.0
X170.1Y-104.75
X175.85Y-108.5
X176.06Y-86.95
X176.1Y-92.5
X176.1Y-101.75
X178.39Y-108.5
X178.6Y-86.95
X178.64Y-92.5
X178.64Y-101.75
X191.35Y-90.0
X200.85Y-85.25
T10
X191.39Y-99.42
X191.39Y-101.71
X191.39Y-104.0
X191.43Y-106.71
X191.43Y-109.0
X191.43Y-111.29
T11
X110.77Y-60.5
X113.45Y-74.503
X113.45Y-84.663
X113.57Y-91.183
X120.05Y-74.503
X120.05Y-84.663
X120.93Y-60.5
X123.73Y-91.183
X126.4Y-74.503
X126.4Y-84.663
X181.19Y-62.0
X181.19Y-66.5
X181.19Y-71.0
X191.35Y-62.0
X191.35Y-66.5
X191.35Y-71.0
X199.02Y-61.42
X199.02Y-71.58
T9
G00X129.492Y-58.596
M15
G01X131.292Y-58.596
M16
G05
G00X129.492Y-62.596
M15
G01X131.292Y-62.596
M16
G05
G00X135.492Y-58.596
M15
G01X137.292Y-58.596
M16
G05
G00X135.492Y-62.596
M15
G01X137.292Y-62.596
M16
G05
G00X141.492Y-58.596
M15
G01X143.292Y-58.596
M16
G05
G00X141.492Y-62.596
M15
G01X143.292Y-62.596
M16
G05
G00X147.492Y-58.596
M15
G01X149.292Y-58.596
M16
G05
G00X147.492Y-62.596
M15
G01X149.292Y-62.596
M16
G05
G00X153.492Y-58.596
M15
G01X155.292Y-58.596
M16
G05
G00X153.492Y-62.596
M15
G01X155.292Y-62.596
M16
G05
G00X159.492Y-58.596
M15
G01X161.292Y-58.596
M16
G05
G00X159.492Y-62.596
M15
G01X161.292Y-62.596
M16
G05
G00X165.492Y-58.596
M15
G01X167.292Y-58.596
M16
G05
G00X165.492Y-62.596
M15
G01X167.292Y-62.596
M16
G05
G00X171.492Y-58.596
M15
G01X173.292Y-58.596
M16
G05
G00X171.492Y-62.596
M15
G01X173.292Y-62.596
M16
G05
T0
M30
