%TF.GenerationSoftware,KiCad,Pcbnew,7.0.2*%
%TF.CreationDate,2024-11-06T13:00:57+09:00*%
%TF.ProjectId,YZ_CDI_TEST_V1,595a5f43-4449-45f5-9445-53545f56312e,rev?*%
%TF.SameCoordinates,Original*%
%TF.FileFunction,Copper,L1,Top*%
%TF.FilePolarity,Positive*%
%FSLAX46Y46*%
G04 Gerber Fmt 4.6, Leading zero omitted, Abs format (unit mm)*
G04 Created by KiCad (PCBNEW 7.0.2) date 2024-11-06 13:00:57*
%MOMM*%
%LPD*%
G01*
G04 APERTURE LIST*
G04 Aperture macros list*
%AMRoundRect*
0 Rectangle with rounded corners*
0 $1 Rounding radius*
0 $2 $3 $4 $5 $6 $7 $8 $9 X,Y pos of 4 corners*
0 Add a 4 corners polygon primitive as box body*
4,1,4,$2,$3,$4,$5,$6,$7,$8,$9,$2,$3,0*
0 Add four circle primitives for the rounded corners*
1,1,$1+$1,$2,$3*
1,1,$1+$1,$4,$5*
1,1,$1+$1,$6,$7*
1,1,$1+$1,$8,$9*
0 Add four rect primitives between the rounded corners*
20,1,$1+$1,$2,$3,$4,$5,0*
20,1,$1+$1,$4,$5,$6,$7,0*
20,1,$1+$1,$6,$7,$8,$9,0*
20,1,$1+$1,$8,$9,$2,$3,0*%
G04 Aperture macros list end*
%TA.AperFunction,ComponentPad*%
%ADD10R,1.800000X1.717500*%
%TD*%
%TA.AperFunction,ComponentPad*%
%ADD11O,1.800000X1.717500*%
%TD*%
%TA.AperFunction,SMDPad,CuDef*%
%ADD12R,6.200000X5.700000*%
%TD*%
%TA.AperFunction,ComponentPad*%
%ADD13C,2.000000*%
%TD*%
%TA.AperFunction,ComponentPad*%
%ADD14C,1.400000*%
%TD*%
%TA.AperFunction,ComponentPad*%
%ADD15O,1.400000X1.400000*%
%TD*%
%TA.AperFunction,SMDPad,CuDef*%
%ADD16R,1.900000X0.800000*%
%TD*%
%TA.AperFunction,ComponentPad*%
%ADD17R,1.600000X1.600000*%
%TD*%
%TA.AperFunction,ComponentPad*%
%ADD18O,1.600000X1.600000*%
%TD*%
%TA.AperFunction,SMDPad,CuDef*%
%ADD19R,0.600000X1.050000*%
%TD*%
%TA.AperFunction,ComponentPad*%
%ADD20C,1.600000*%
%TD*%
%TA.AperFunction,ComponentPad*%
%ADD21R,2.400000X2.400000*%
%TD*%
%TA.AperFunction,ComponentPad*%
%ADD22O,2.400000X2.400000*%
%TD*%
%TA.AperFunction,ComponentPad*%
%ADD23R,1.700000X1.700000*%
%TD*%
%TA.AperFunction,ComponentPad*%
%ADD24O,1.700000X1.700000*%
%TD*%
%TA.AperFunction,ComponentPad*%
%ADD25R,1.500000X1.050000*%
%TD*%
%TA.AperFunction,ComponentPad*%
%ADD26O,1.500000X1.050000*%
%TD*%
%TA.AperFunction,ComponentPad*%
%ADD27O,4.000000X2.200000*%
%TD*%
%TA.AperFunction,SMDPad,CuDef*%
%ADD28R,3.000000X1.600000*%
%TD*%
%TA.AperFunction,SMDPad,CuDef*%
%ADD29R,6.200000X5.800000*%
%TD*%
%TA.AperFunction,ComponentPad*%
%ADD30C,1.524000*%
%TD*%
%TA.AperFunction,SMDPad,CuDef*%
%ADD31RoundRect,0.240000X1.175000X-0.240000X1.175000X0.240000X-1.175000X0.240000X-1.175000X-0.240000X0*%
%TD*%
%TA.AperFunction,SMDPad,CuDef*%
%ADD32RoundRect,0.281500X2.768500X-2.533500X2.768500X2.533500X-2.768500X2.533500X-2.768500X-2.533500X0*%
%TD*%
%TA.AperFunction,ComponentPad*%
%ADD33R,1.050000X1.500000*%
%TD*%
%TA.AperFunction,ComponentPad*%
%ADD34O,1.050000X1.500000*%
%TD*%
%TA.AperFunction,ViaPad*%
%ADD35C,1.200000*%
%TD*%
%TA.AperFunction,ViaPad*%
%ADD36C,0.800000*%
%TD*%
%TA.AperFunction,ViaPad*%
%ADD37C,0.700000*%
%TD*%
%TA.AperFunction,Conductor*%
%ADD38C,0.250000*%
%TD*%
%TA.AperFunction,Conductor*%
%ADD39C,1.000000*%
%TD*%
%TA.AperFunction,Conductor*%
%ADD40C,0.600000*%
%TD*%
%TA.AperFunction,Conductor*%
%ADD41C,0.800000*%
%TD*%
%TA.AperFunction,Conductor*%
%ADD42C,0.500000*%
%TD*%
G04 APERTURE END LIST*
D10*
%TO.P,Q6,1,G*%
%TO.N,Net-(Q5-G)*%
X191390000Y-104000000D03*
D11*
%TO.P,Q6,2*%
%TO.N,N/C*%
X191390000Y-101710000D03*
%TO.P,Q6,3,S*%
%TO.N,GND*%
X191390000Y-99420000D03*
D12*
%TO.P,Q6,4,D*%
%TO.N,Net-(JP4-A)*%
X183956667Y-101710000D03*
%TD*%
D13*
%TO.P,TP5,1,1*%
%TO.N,Net-(Q2-C)*%
X141350000Y-89500000D03*
%TD*%
D14*
%TO.P,R2,1*%
%TO.N,Net-(D1-K)*%
X160670000Y-79460000D03*
D15*
%TO.P,R2,2*%
%TO.N,Net-(Q2-B)*%
X160670000Y-87080000D03*
%TD*%
D16*
%TO.P,Q3,1,G*%
%TO.N,Net-(Q3-G)*%
X185100000Y-87950000D03*
%TO.P,Q3,2,S*%
%TO.N,GND*%
X185100000Y-86050000D03*
%TO.P,Q3,3,D*%
%TO.N,Net-(JP1-A)*%
X182100000Y-87000000D03*
%TD*%
D17*
%TO.P,DZ1,1,K*%
%TO.N,+12V*%
X195100000Y-85690000D03*
D18*
%TO.P,DZ1,2,A*%
%TO.N,Net-(DZ1-A)*%
X195100000Y-93310000D03*
%TD*%
D19*
%TO.P,U2,1,GND*%
%TO.N,GND*%
X110787500Y-132087500D03*
%TO.P,U2,2,VDD*%
%TO.N,+5V*%
X111737500Y-132087500D03*
%TO.P,U2,3,IN*%
%TO.N,Net-(E1-C)*%
X112687500Y-132087500D03*
%TO.P,U2,4,GND*%
%TO.N,GND*%
X112687500Y-129387500D03*
%TO.P,U2,5,OUT*%
%TO.N,Net-(Q9-G)*%
X110787500Y-129387500D03*
%TD*%
D20*
%TO.P,C6,1*%
%TO.N,Net-(Q2-C)*%
X146490000Y-89690000D03*
%TO.P,C6,2*%
%TO.N,GND*%
X146490000Y-87190000D03*
%TD*%
%TO.P,C1,1*%
%TO.N,/WL*%
X152600000Y-67500000D03*
%TO.P,C1,2*%
%TO.N,GND*%
X150100000Y-67500000D03*
%TD*%
D21*
%TO.P,D9,1,K*%
%TO.N,/GW*%
X181190000Y-71000000D03*
D22*
%TO.P,D9,2,A*%
%TO.N,GND*%
X191350000Y-71000000D03*
%TD*%
D23*
%TO.P,JP4,1,A*%
%TO.N,Net-(JP4-A)*%
X178640000Y-101750000D03*
D24*
%TO.P,JP4,2,B*%
%TO.N,/GL*%
X176100000Y-101750000D03*
%TD*%
D13*
%TO.P,TP10,1,1*%
%TO.N,Net-(DZ5-A)*%
X154600000Y-119500000D03*
%TD*%
%TO.P,TP2,1,1*%
%TO.N,Net-(Q1-B)*%
X145920000Y-94000000D03*
%TD*%
%TO.P,TP9,1,1*%
%TO.N,/CHG*%
X107650000Y-74582944D03*
%TD*%
D17*
%TO.P,DZ2,1,K*%
%TO.N,Net-(DZ2-K)*%
X163020000Y-131250000D03*
D18*
%TO.P,DZ2,2,A*%
%TO.N,Net-(DZ2-A)*%
X155400000Y-131250000D03*
%TD*%
D20*
%TO.P,C11,1*%
%TO.N,+5V*%
X117187500Y-132037500D03*
%TO.P,C11,2*%
%TO.N,GND*%
X117187500Y-129537500D03*
%TD*%
D21*
%TO.P,D3,1,K*%
%TO.N,/CHG*%
X120050000Y-84662944D03*
D22*
%TO.P,D3,2,A*%
%TO.N,/BR*%
X120050000Y-74502944D03*
%TD*%
D23*
%TO.P,JP6,1,A*%
%TO.N,Net-(JP6-A)*%
X141350000Y-106275000D03*
D24*
%TO.P,JP6,2,B*%
%TO.N,/CHG*%
X141350000Y-103735000D03*
%TD*%
D14*
%TO.P,R6,1*%
%TO.N,+5V*%
X135100000Y-73940000D03*
D15*
%TO.P,R6,2*%
%TO.N,Net-(E1-C)*%
X135100000Y-81560000D03*
%TD*%
D14*
%TO.P,R10,1*%
%TO.N,Net-(Q5-G)*%
X201600000Y-106940000D03*
D15*
%TO.P,R10,2*%
%TO.N,Net-(R10-Pad2)*%
X201600000Y-114560000D03*
%TD*%
D22*
%TO.P,D6,2,A*%
%TO.N,/GL*%
X181190000Y-62000000D03*
D21*
%TO.P,D6,1,K*%
%TO.N,+12V*%
X191350000Y-62000000D03*
%TD*%
%TO.P,D10,1,K*%
%TO.N,/CAP+*%
X113570000Y-91182944D03*
D22*
%TO.P,D10,2,A*%
%TO.N,/CHG*%
X123730000Y-91182944D03*
%TD*%
D17*
%TO.P,C10,1*%
%TO.N,+5V*%
X184782379Y-77250000D03*
D20*
%TO.P,C10,2*%
%TO.N,GND*%
X182282379Y-77250000D03*
%TD*%
D25*
%TO.P,Q2,1,E*%
%TO.N,GND*%
X151190000Y-86700000D03*
D26*
%TO.P,Q2,2,C*%
%TO.N,Net-(Q2-C)*%
X151190000Y-87970000D03*
%TO.P,Q2,3,B*%
%TO.N,Net-(Q2-B)*%
X151190000Y-89240000D03*
%TD*%
D14*
%TO.P,R1,1*%
%TO.N,Net-(D2-A)*%
X166110000Y-82270000D03*
D15*
%TO.P,R1,2*%
%TO.N,Net-(C2-Pad2)*%
X166110000Y-89890000D03*
%TD*%
D14*
%TO.P,R7,1*%
%TO.N,Net-(Q3-G)*%
X198100000Y-106940000D03*
D15*
%TO.P,R7,2*%
%TO.N,Net-(R7-Pad2)*%
X198100000Y-114560000D03*
%TD*%
D25*
%TO.P,Q1,1,E*%
%TO.N,GND*%
X157920000Y-96520000D03*
D26*
%TO.P,Q1,2,C*%
%TO.N,Net-(E1-C)*%
X157920000Y-95250000D03*
%TO.P,Q1,3,B*%
%TO.N,Net-(Q1-B)*%
X157920000Y-93980000D03*
%TD*%
D17*
%TO.P,D1,1,K*%
%TO.N,Net-(D1-K)*%
X160600000Y-77060000D03*
D18*
%TO.P,D1,2,A*%
%TO.N,/WL*%
X160600000Y-69440000D03*
%TD*%
D27*
%TO.P,CN1,1,BW_KILL*%
%TO.N,/BW*%
X130391796Y-58595520D03*
%TO.P,CN1,2,BR_CHG1*%
%TO.N,/BR*%
X136391796Y-58595520D03*
%TO.P,CN1,3,R_SOL*%
%TO.N,unconnected-(CN1-R_SOL-Pad3)*%
X142391796Y-58595520D03*
%TO.P,CN1,4,B_GND*%
%TO.N,GND*%
X148391796Y-58595520D03*
%TO.P,CN1,5,WL_PU*%
%TO.N,/WL*%
X154391796Y-58595520D03*
%TO.P,CN1,6,L_TPS_REF+*%
%TO.N,unconnected-(CN1-L_TPS_REF+-Pad6)*%
X160391796Y-58595520D03*
%TO.P,CN1,7,BL_TPS_GND*%
%TO.N,unconnected-(CN1-BL_TPS_GND-Pad7)*%
X166391796Y-58595520D03*
%TO.P,CN1,8,GL_CHG2-*%
%TO.N,/GL*%
X172391796Y-58595520D03*
%TO.P,CN1,9,GW_CHG2-*%
%TO.N,/GW*%
X172391796Y-62595520D03*
%TO.P,CN1,10,Y_TPS_IN*%
%TO.N,unconnected-(CN1-Y_TPS_IN-Pad10)*%
X166391796Y-62595520D03*
%TO.P,CN1,11,NON*%
%TO.N,unconnected-(CN1-NON-Pad11)*%
X160391796Y-62595520D03*
%TO.P,CN1,12,WR_PU_GND*%
%TO.N,GND*%
X154391796Y-62595520D03*
%TO.P,CN1,13,NON*%
%TO.N,unconnected-(CN1-NON-Pad13)*%
X148391796Y-62595520D03*
%TO.P,CN1,14,SB_NW_SW*%
%TO.N,unconnected-(CN1-SB_NW_SW-Pad14)*%
X142391796Y-62595520D03*
%TO.P,CN1,15,NON*%
%TO.N,unconnected-(CN1-NON-Pad15)*%
X136391796Y-62595520D03*
%TO.P,CN1,16,OR_IG*%
%TO.N,/OR*%
X130391796Y-62595520D03*
%TD*%
D10*
%TO.P,Q4,1,G*%
%TO.N,Net-(Q3-G)*%
X191430000Y-111290000D03*
D11*
%TO.P,Q4,2*%
%TO.N,N/C*%
X191430000Y-109000000D03*
%TO.P,Q4,3,S*%
%TO.N,GND*%
X191430000Y-106710000D03*
D12*
%TO.P,Q4,4,D*%
%TO.N,Net-(JP2-A)*%
X183996667Y-109000000D03*
%TD*%
D21*
%TO.P,D8,1,K*%
%TO.N,/GL*%
X199020000Y-61420000D03*
D22*
%TO.P,D8,2,A*%
%TO.N,GND*%
X199020000Y-71580000D03*
%TD*%
D28*
%TO.P,Q8,1,G*%
%TO.N,Net-(DZ5-A)*%
X155430000Y-107285000D03*
%TO.P,Q8,3,S*%
%TO.N,GND*%
X155430000Y-102715000D03*
D29*
%TO.P,Q8,4,D*%
%TO.N,Net-(JP6-A)*%
X148260000Y-105000000D03*
%TD*%
D17*
%TO.P,DZ7,1,K*%
%TO.N,Net-(DZ6-A)*%
X152520000Y-126250000D03*
D18*
%TO.P,DZ7,2,A*%
%TO.N,Net-(DZ7-A)*%
X144900000Y-126250000D03*
%TD*%
D28*
%TO.P,Q7,1,G*%
%TO.N,Net-(DZ5-A)*%
X155350000Y-115070000D03*
%TO.P,Q7,3,S*%
%TO.N,GND*%
X155350000Y-110500000D03*
D29*
%TO.P,Q7,4,D*%
%TO.N,Net-(JP5-A)*%
X148180000Y-112785000D03*
%TD*%
D20*
%TO.P,C9,1*%
%TO.N,+5V*%
X188850000Y-81750000D03*
%TO.P,C9,2*%
%TO.N,GND*%
X191350000Y-81750000D03*
%TD*%
D23*
%TO.P,JP5,1,A*%
%TO.N,Net-(JP5-A)*%
X141350000Y-114500000D03*
D24*
%TO.P,JP5,2,B*%
%TO.N,/CHG*%
X141350000Y-111960000D03*
%TD*%
D13*
%TO.P,C13,1*%
%TO.N,/OR*%
X125100000Y-98000000D03*
%TO.P,C13,2*%
%TO.N,/CAP+*%
X125100000Y-108000000D03*
%TD*%
%TO.P,TP3,1,1*%
%TO.N,Net-(Q2-B)*%
X147600000Y-79000000D03*
%TD*%
D21*
%TO.P,D5,1,K*%
%TO.N,/CHG*%
X126400000Y-84662944D03*
D22*
%TO.P,D5,2,A*%
%TO.N,GND*%
X126400000Y-74502944D03*
%TD*%
D20*
%TO.P,C8,1*%
%TO.N,+12V*%
X196850000Y-81750000D03*
%TO.P,C8,2*%
%TO.N,GND*%
X194350000Y-81750000D03*
%TD*%
D14*
%TO.P,R12,1*%
%TO.N,Net-(DZ5-A)*%
X159350000Y-116500000D03*
D15*
%TO.P,R12,2*%
%TO.N,Net-(R12-Pad2)*%
X166970000Y-116500000D03*
%TD*%
D21*
%TO.P,D4,1,K*%
%TO.N,/BW*%
X113450000Y-74502944D03*
D22*
%TO.P,D4,2,A*%
%TO.N,/CHG*%
X113450000Y-84662944D03*
%TD*%
D13*
%TO.P,TP8,1,1*%
%TO.N,+12V*%
X200850000Y-85250000D03*
%TD*%
%TO.P,C14,1*%
%TO.N,/OR*%
X116600000Y-98000000D03*
%TO.P,C14,2*%
%TO.N,/CAP+*%
X116600000Y-108000000D03*
%TD*%
D16*
%TO.P,Q5,1,G*%
%TO.N,Net-(Q5-G)*%
X185115000Y-93450000D03*
%TO.P,Q5,2,S*%
%TO.N,GND*%
X185115000Y-91550000D03*
%TO.P,Q5,3,D*%
%TO.N,Net-(JP3-A)*%
X182115000Y-92500000D03*
%TD*%
D17*
%TO.P,C7,1*%
%TO.N,+12V*%
X198917620Y-77250000D03*
D20*
%TO.P,C7,2*%
%TO.N,GND*%
X201417620Y-77250000D03*
%TD*%
D13*
%TO.P,SW1,1,A*%
%TO.N,Net-(DZ5-A)*%
X150850000Y-134750000D03*
%TO.P,SW1,2,B*%
%TO.N,Net-(DZ9-A)*%
X153390000Y-134750000D03*
%TO.P,SW1,3,C*%
%TO.N,Net-(DZ2-K)*%
X155930000Y-134750000D03*
%TD*%
D20*
%TO.P,C4,1*%
%TO.N,Net-(Q1-B)*%
X152060000Y-93750000D03*
%TO.P,C4,2*%
%TO.N,GND*%
X152060000Y-96250000D03*
%TD*%
D21*
%TO.P,D7,1,K*%
%TO.N,+12V*%
X191350000Y-66500000D03*
D22*
%TO.P,D7,2,A*%
%TO.N,/GW*%
X181190000Y-66500000D03*
%TD*%
D17*
%TO.P,DZ5,1,K*%
%TO.N,Net-(DZ4-A)*%
X155400000Y-123750000D03*
D18*
%TO.P,DZ5,2,A*%
%TO.N,Net-(DZ5-A)*%
X163020000Y-123750000D03*
%TD*%
D13*
%TO.P,TP1,1,1*%
%TO.N,/WL*%
X156100000Y-66500000D03*
%TD*%
%TO.P,TP11,1,1*%
%TO.N,/CAP+*%
X107600000Y-86500000D03*
%TD*%
D17*
%TO.P,DZ8,1,K*%
%TO.N,Net-(DZ7-A)*%
X144890000Y-128750000D03*
D18*
%TO.P,DZ8,2,A*%
%TO.N,Net-(DZ8-A)*%
X152510000Y-128750000D03*
%TD*%
D23*
%TO.P,JP2,1,A*%
%TO.N,Net-(JP2-A)*%
X178390000Y-108500000D03*
D24*
%TO.P,JP2,2,B*%
%TO.N,/GW*%
X175850000Y-108500000D03*
%TD*%
D17*
%TO.P,DZ6,1,K*%
%TO.N,Net-(DZ6-K)*%
X144890000Y-123650000D03*
D18*
%TO.P,DZ6,2,A*%
%TO.N,Net-(DZ6-A)*%
X152510000Y-123650000D03*
%TD*%
D25*
%TO.P,E1,1,E*%
%TO.N,GND*%
X139600000Y-81000000D03*
D26*
%TO.P,E1,2,C*%
%TO.N,Net-(E1-C)*%
X139600000Y-82270000D03*
%TO.P,E1,3,B*%
%TO.N,Net-(E1-B)*%
X139600000Y-83540000D03*
%TD*%
D30*
%TO.P,RN2,1*%
%TO.N,Net-(R10-Pad2)*%
X199890000Y-123750000D03*
%TO.P,RN2,2*%
%TO.N,GND*%
X197350000Y-121210000D03*
%TO.P,RN2,3*%
%TO.N,unconnected-(RN2-Pad3)*%
X194810000Y-123750000D03*
%TD*%
D23*
%TO.P,JP1,1,A*%
%TO.N,Net-(JP1-A)*%
X178600000Y-86950000D03*
D24*
%TO.P,JP1,2,B*%
%TO.N,/GW*%
X176060000Y-86950000D03*
%TD*%
D20*
%TO.P,C5,1*%
%TO.N,Net-(Q2-B)*%
X151740000Y-82540000D03*
%TO.P,C5,2*%
%TO.N,GND*%
X154240000Y-82540000D03*
%TD*%
D14*
%TO.P,R5,1*%
%TO.N,+5V*%
X162920000Y-90020000D03*
D15*
%TO.P,R5,2*%
%TO.N,Net-(Q2-C)*%
X155300000Y-90020000D03*
%TD*%
D13*
%TO.P,TP7,1,1*%
%TO.N,Net-(Q5-G)*%
X191350000Y-90000000D03*
%TD*%
D20*
%TO.P,C2,1*%
%TO.N,Net-(D2-A)*%
X170110000Y-87270000D03*
%TO.P,C2,2*%
%TO.N,Net-(C2-Pad2)*%
X170110000Y-89770000D03*
%TD*%
D17*
%TO.P,DZ4,1,K*%
%TO.N,Net-(DZ3-A)*%
X163020000Y-126250000D03*
D18*
%TO.P,DZ4,2,A*%
%TO.N,Net-(DZ4-A)*%
X155400000Y-126250000D03*
%TD*%
D20*
%TO.P,C3,1*%
%TO.N,Net-(D1-K)*%
X157670000Y-84520000D03*
%TO.P,C3,2*%
%TO.N,Net-(Q2-B)*%
X157670000Y-87020000D03*
%TD*%
D14*
%TO.P,R9,1*%
%TO.N,Net-(DZ1-A)*%
X198100000Y-93940000D03*
D15*
%TO.P,R9,2*%
%TO.N,Net-(Q3-G)*%
X198100000Y-101560000D03*
%TD*%
D14*
%TO.P,R14,1*%
%TO.N,Net-(DZ6-K)*%
X137850000Y-123190000D03*
D15*
%TO.P,R14,2*%
%TO.N,GND*%
X137850000Y-130810000D03*
%TD*%
D23*
%TO.P,JP3,1,A*%
%TO.N,Net-(JP3-A)*%
X178640000Y-92500000D03*
D24*
%TO.P,JP3,2,B*%
%TO.N,/GL*%
X176100000Y-92500000D03*
%TD*%
D14*
%TO.P,R11,1*%
%TO.N,Net-(DZ1-A)*%
X201600000Y-93940000D03*
D15*
%TO.P,R11,2*%
%TO.N,Net-(Q5-G)*%
X201600000Y-101560000D03*
%TD*%
D13*
%TO.P,C12,2*%
%TO.N,Net-(JP7-B)*%
X108100000Y-108000000D03*
%TO.P,C12,1*%
%TO.N,/OR*%
X108100000Y-98000000D03*
%TD*%
D20*
%TO.P,R13,1*%
%TO.N,/CHG*%
X133100000Y-102400000D03*
D18*
%TO.P,R13,2*%
%TO.N,Net-(DZ6-K)*%
X133100000Y-115100000D03*
%TD*%
D20*
%TO.P,R8,1*%
%TO.N,/CHG*%
X134350000Y-98850000D03*
D18*
%TO.P,R8,2*%
%TO.N,Net-(E1-B)*%
X134350000Y-86150000D03*
%TD*%
D17*
%TO.P,DZ9,1,K*%
%TO.N,Net-(DZ8-A)*%
X152510000Y-131250000D03*
D18*
%TO.P,DZ9,2,A*%
%TO.N,Net-(DZ9-A)*%
X144890000Y-131250000D03*
%TD*%
D31*
%TO.P,Q9,1,G*%
%TO.N,Net-(Q9-G)*%
X117902500Y-124323500D03*
D32*
%TO.P,Q9,2,D*%
%TO.N,/CAP+*%
X111252500Y-122037500D03*
D31*
%TO.P,Q9,3,S*%
%TO.N,GND*%
X117902500Y-119751500D03*
%TD*%
D13*
%TO.P,TP6,1,1*%
%TO.N,/GW*%
X170100000Y-104750000D03*
%TD*%
%TO.P,TP4,1,1*%
%TO.N,Net-(E1-C)*%
X164350000Y-99000000D03*
%TD*%
D30*
%TO.P,RN1,1*%
%TO.N,Net-(R7-Pad2)*%
X189640000Y-123750000D03*
%TO.P,RN1,2*%
%TO.N,GND*%
X187100000Y-121210000D03*
%TO.P,RN1,3*%
%TO.N,unconnected-(RN1-Pad3)*%
X184560000Y-123750000D03*
%TD*%
D14*
%TO.P,R4,1*%
%TO.N,+5V*%
X170200000Y-95240000D03*
D15*
%TO.P,R4,2*%
%TO.N,Net-(Q1-B)*%
X162580000Y-95240000D03*
%TD*%
D17*
%TO.P,D2,1,K*%
%TO.N,/WL*%
X165850000Y-71690000D03*
D18*
%TO.P,D2,2,A*%
%TO.N,Net-(D2-A)*%
X165850000Y-79310000D03*
%TD*%
D14*
%TO.P,R15,1*%
%TO.N,Net-(E1-C)*%
X115167500Y-134817500D03*
D15*
%TO.P,R15,2*%
%TO.N,GND*%
X107547500Y-134817500D03*
%TD*%
D21*
%TO.P,D11,1,K*%
%TO.N,GND*%
X110770000Y-60500000D03*
D22*
%TO.P,D11,2,A*%
%TO.N,/OR*%
X120930000Y-60500000D03*
%TD*%
D30*
%TO.P,RN3,1*%
%TO.N,Net-(R12-Pad2)*%
X163350000Y-112000000D03*
%TO.P,RN3,2*%
%TO.N,GND*%
X165890000Y-109460000D03*
%TO.P,RN3,3*%
%TO.N,unconnected-(RN3-Pad3)*%
X163350000Y-106920000D03*
%TD*%
D23*
%TO.P,JP7,1,A*%
%TO.N,/CAP+*%
X111600000Y-112500000D03*
D24*
%TO.P,JP7,2,B*%
%TO.N,Net-(JP7-B)*%
X109060000Y-112500000D03*
%TD*%
D14*
%TO.P,R3,1*%
%TO.N,Net-(C2-Pad2)*%
X170200000Y-92770000D03*
D15*
%TO.P,R3,2*%
%TO.N,Net-(Q1-B)*%
X162580000Y-92770000D03*
%TD*%
D17*
%TO.P,DZ3,1,K*%
%TO.N,Net-(DZ2-A)*%
X155400000Y-128750000D03*
D18*
%TO.P,DZ3,2,A*%
%TO.N,Net-(DZ3-A)*%
X163020000Y-128750000D03*
%TD*%
D33*
%TO.P,U1,1,VO*%
%TO.N,+5V*%
X191850000Y-77250000D03*
D34*
%TO.P,U1,2,GND*%
%TO.N,GND*%
X193120000Y-77250000D03*
%TO.P,U1,3,VI*%
%TO.N,+12V*%
X194390000Y-77250000D03*
%TD*%
D35*
%TO.N,GND*%
X129600000Y-99500000D03*
X129600000Y-81500000D03*
%TO.N,/CHG*%
X127350000Y-95250000D03*
X125100000Y-93000000D03*
%TO.N,GND*%
X187350000Y-97500000D03*
D36*
%TO.N,Net-(Q3-G)*%
X185600000Y-89500000D03*
%TO.N,Net-(Q5-G)*%
X187100000Y-93000000D03*
D35*
%TO.N,+5V*%
X178850000Y-97000000D03*
%TO.N,/GW*%
X173100000Y-93750000D03*
%TO.N,GND*%
X182282379Y-83567621D03*
D37*
%TO.N,/CAP+*%
X107600000Y-124500000D03*
X107600000Y-120250000D03*
X107600000Y-121750000D03*
X107600000Y-123250000D03*
X112600000Y-124500000D03*
X112600000Y-120250000D03*
X112600000Y-121750000D03*
X112600000Y-123250000D03*
X111350000Y-124500000D03*
X110100000Y-124500000D03*
X108850000Y-124500000D03*
X110100000Y-123250000D03*
X111350000Y-123250000D03*
X111350000Y-121750000D03*
X110100000Y-121750000D03*
X108850000Y-123250000D03*
X108850000Y-121750000D03*
X111350000Y-120250000D03*
X110100000Y-120250000D03*
X108850000Y-120250000D03*
D35*
%TO.N,GND*%
X148600000Y-89500000D03*
X113607500Y-126567500D03*
X117357500Y-121317500D03*
D36*
%TO.N,Net-(Q2-B)*%
X154670000Y-87020000D03*
%TO.N,Net-(DZ5-A)*%
X158755036Y-107594964D03*
X158850000Y-114000000D03*
%TD*%
D38*
%TO.N,Net-(E1-C)*%
X160600000Y-95250000D02*
X157920000Y-95250000D01*
D39*
%TO.N,GND*%
X155430000Y-99010000D02*
X157920000Y-96520000D01*
X155430000Y-102715000D02*
X155430000Y-99010000D01*
X127352944Y-74502944D02*
X126400000Y-74502944D01*
X129600000Y-76750000D02*
X127352944Y-74502944D01*
X129600000Y-81500000D02*
X129600000Y-76750000D01*
X129600000Y-109500000D02*
X129600000Y-99500000D01*
X119348500Y-119751500D02*
X129600000Y-109500000D01*
X117902500Y-119751500D02*
X119348500Y-119751500D01*
%TO.N,Net-(JP2-A)*%
X178390000Y-108500000D02*
X183496667Y-108500000D01*
%TO.N,GND*%
X113425000Y-126750000D02*
X113607500Y-126567500D01*
X107547500Y-128877500D02*
X109675000Y-126750000D01*
X109675000Y-126750000D02*
X113425000Y-126750000D01*
X107547500Y-134817500D02*
X107547500Y-128877500D01*
%TO.N,/OR*%
X125100000Y-95500000D02*
X125100000Y-98000000D01*
X132350000Y-88250000D02*
X125100000Y-95500000D01*
X132350000Y-64553724D02*
X132350000Y-88250000D01*
X130391796Y-62595520D02*
X132350000Y-64553724D01*
%TO.N,/CHG*%
X130750000Y-95250000D02*
X134350000Y-98850000D01*
X123730000Y-91630000D02*
X125100000Y-93000000D01*
X127350000Y-95250000D02*
X130750000Y-95250000D01*
D40*
%TO.N,GND*%
X110277500Y-132087500D02*
X110737500Y-132087500D01*
D39*
X107547500Y-134817500D02*
X110277500Y-132087500D01*
%TO.N,/CAP+*%
X107600000Y-87282944D02*
X107600000Y-86500000D01*
X111500000Y-91182944D02*
X107600000Y-87282944D01*
X113570000Y-91182944D02*
X111500000Y-91182944D01*
D38*
%TO.N,Net-(R7-Pad2)*%
X189640000Y-123020000D02*
X189640000Y-123750000D01*
X198100000Y-114560000D02*
X189640000Y-123020000D01*
%TO.N,Net-(R10-Pad2)*%
X201600000Y-122040000D02*
X199890000Y-123750000D01*
X201600000Y-114560000D02*
X201600000Y-122040000D01*
%TO.N,Net-(Q3-G)*%
X198100000Y-106940000D02*
X198100000Y-101560000D01*
%TO.N,Net-(Q5-G)*%
X201600000Y-106940000D02*
X201600000Y-101560000D01*
D39*
%TO.N,GND*%
X187350000Y-97753333D02*
X187350000Y-97500000D01*
X188600000Y-99003333D02*
X187350000Y-97753333D01*
X188600000Y-101250000D02*
X188600000Y-99003333D01*
D38*
%TO.N,Net-(Q3-G)*%
X185100000Y-89000000D02*
X185600000Y-89500000D01*
X185100000Y-87950000D02*
X185100000Y-89000000D01*
%TO.N,Net-(Q5-G)*%
X193350000Y-102000000D02*
X193350000Y-102750000D01*
X196100000Y-99250000D02*
X193350000Y-102000000D01*
X199290000Y-99250000D02*
X196100000Y-99250000D01*
X201600000Y-101560000D02*
X199290000Y-99250000D01*
%TO.N,Net-(DZ1-A)*%
X198100000Y-93940000D02*
X201600000Y-93940000D01*
X197470000Y-93310000D02*
X198100000Y-93940000D01*
X195100000Y-93310000D02*
X197470000Y-93310000D01*
%TO.N,Net-(Q3-G)*%
X195850000Y-106870000D02*
X195850000Y-103810000D01*
X191430000Y-111290000D02*
X195850000Y-106870000D01*
X195850000Y-103810000D02*
X198100000Y-101560000D01*
%TO.N,Net-(Q5-G)*%
X193350000Y-102750000D02*
X192100000Y-104000000D01*
X193350000Y-97250000D02*
X193350000Y-102750000D01*
X191350000Y-95250000D02*
X193350000Y-97250000D01*
X191350000Y-90000000D02*
X191350000Y-95250000D01*
X186650000Y-93450000D02*
X187100000Y-93000000D01*
X185115000Y-93450000D02*
X186650000Y-93450000D01*
D39*
%TO.N,GND*%
X188600000Y-101250000D02*
X188600000Y-105000000D01*
X190430000Y-99420000D02*
X188600000Y-101250000D01*
X188600000Y-105000000D02*
X190310000Y-106710000D01*
X190310000Y-106710000D02*
X191430000Y-106710000D01*
X191390000Y-99420000D02*
X190430000Y-99420000D01*
X187100000Y-90407500D02*
X187100000Y-86750000D01*
X186400000Y-86050000D02*
X185100000Y-86050000D01*
X185957500Y-91550000D02*
X187100000Y-90407500D01*
X185115000Y-91550000D02*
X185957500Y-91550000D01*
X187100000Y-86750000D02*
X186400000Y-86050000D01*
%TO.N,+12V*%
X196850000Y-82750000D02*
X196850000Y-81750000D01*
X195100000Y-84500000D02*
X196850000Y-82750000D01*
X195100000Y-85690000D02*
X195100000Y-84500000D01*
%TO.N,/CAP+*%
X111600000Y-112500000D02*
X111600000Y-111750000D01*
X115350000Y-108000000D02*
X116600000Y-108000000D01*
%TO.N,/OR*%
X108100000Y-98000000D02*
X116600000Y-98000000D01*
X125100000Y-98000000D02*
X116600000Y-98000000D01*
%TO.N,/CAP+*%
X116600000Y-108000000D02*
X125100000Y-108000000D01*
X111600000Y-111750000D02*
X115350000Y-108000000D01*
D41*
%TO.N,+5V*%
X170200000Y-97650000D02*
X170200000Y-95240000D01*
X166850000Y-106250000D02*
X166850000Y-101000000D01*
X166850000Y-101000000D02*
X170200000Y-97650000D01*
X172600000Y-112000000D02*
X166850000Y-106250000D01*
X166850000Y-138000000D02*
X172600000Y-132250000D01*
X172600000Y-132250000D02*
X172600000Y-112000000D01*
X117187500Y-132037500D02*
X121637500Y-132037500D01*
X121637500Y-132037500D02*
X127600000Y-138000000D01*
X127600000Y-138000000D02*
X166850000Y-138000000D01*
D39*
%TO.N,GND*%
X136577500Y-129537500D02*
X137850000Y-130810000D01*
X117187500Y-129537500D02*
X136577500Y-129537500D01*
D41*
%TO.N,+5V*%
X185850000Y-97000000D02*
X178850000Y-97000000D01*
X185850000Y-97000000D02*
X188850000Y-94000000D01*
X188850000Y-81750000D02*
X188850000Y-94000000D01*
D39*
%TO.N,/GW*%
X173100000Y-105750000D02*
X175850000Y-108500000D01*
X173100000Y-101750000D02*
X173100000Y-105750000D01*
X173100000Y-101750000D02*
X170100000Y-104750000D01*
X173100000Y-93750000D02*
X173100000Y-101750000D01*
%TO.N,/GL*%
X176100000Y-101750000D02*
X176100000Y-92500000D01*
%TO.N,Net-(JP4-A)*%
X178640000Y-101750000D02*
X183916667Y-101750000D01*
%TO.N,Net-(JP3-A)*%
X178640000Y-92500000D02*
X182115000Y-92500000D01*
%TO.N,/GL*%
X173100000Y-69250000D02*
X169350000Y-65500000D01*
X173100000Y-89500000D02*
X173100000Y-69250000D01*
X169350000Y-60500000D02*
X171254480Y-58595520D01*
X176100000Y-92500000D02*
X173100000Y-89500000D01*
X169350000Y-65500000D02*
X169350000Y-60500000D01*
%TO.N,Net-(JP1-A)*%
X182100000Y-87000000D02*
X178650000Y-87000000D01*
%TO.N,GND*%
X184764758Y-86050000D02*
X182282379Y-83567621D01*
X185100000Y-86050000D02*
X184764758Y-86050000D01*
%TO.N,/GW*%
X176060000Y-76130000D02*
X181190000Y-71000000D01*
X176060000Y-86950000D02*
X176060000Y-76130000D01*
D41*
%TO.N,+5V*%
X184782379Y-77682379D02*
X188850000Y-81750000D01*
X184782379Y-77250000D02*
X184782379Y-77682379D01*
X184782379Y-77250000D02*
X191850000Y-77250000D01*
X188850000Y-80250000D02*
X191850000Y-77250000D01*
X188850000Y-81750000D02*
X188850000Y-80250000D01*
D39*
%TO.N,+12V*%
X196850000Y-79317620D02*
X198917620Y-77250000D01*
X196850000Y-81750000D02*
X196850000Y-79317620D01*
%TO.N,GND*%
X193120000Y-81520000D02*
X193350000Y-81750000D01*
X193120000Y-77250000D02*
X193120000Y-81520000D01*
X193350000Y-81750000D02*
X191350000Y-81750000D01*
X194350000Y-81750000D02*
X193350000Y-81750000D01*
%TO.N,+12V*%
X198917620Y-77250000D02*
X194390000Y-77250000D01*
%TO.N,GND*%
X201417620Y-73977620D02*
X199020000Y-71580000D01*
X201417620Y-77250000D02*
X201417620Y-73977620D01*
%TO.N,/GW*%
X180796276Y-71000000D02*
X176296276Y-66500000D01*
X181190000Y-66500000D02*
X176296276Y-66500000D01*
X176296276Y-66500000D02*
X172391796Y-62595520D01*
%TO.N,/GL*%
X174046276Y-60250000D02*
X172391796Y-58595520D01*
X176600000Y-60250000D02*
X174046276Y-60250000D01*
X178350000Y-62000000D02*
X176600000Y-60250000D01*
X181190000Y-62000000D02*
X178350000Y-62000000D01*
X199020000Y-61420000D02*
X196195520Y-58595520D01*
X196195520Y-58595520D02*
X172391796Y-58595520D01*
%TO.N,GND*%
X198440000Y-71000000D02*
X199020000Y-71580000D01*
X191350000Y-71000000D02*
X198440000Y-71000000D01*
%TO.N,/GW*%
X181190000Y-66500000D02*
X181190000Y-71000000D01*
%TO.N,+12V*%
X191350000Y-62000000D02*
X191350000Y-66500000D01*
%TO.N,GND*%
X154100000Y-80250000D02*
X154240000Y-80390000D01*
X154240000Y-82540000D02*
X154240000Y-80390000D01*
X110770000Y-60500000D02*
X112397056Y-60500000D01*
%TO.N,/CAP+*%
X111252500Y-120152500D02*
X111252500Y-112847500D01*
D38*
%TO.N,/WL*%
X156100000Y-66500000D02*
X157600000Y-65000000D01*
X157600000Y-60000000D02*
X156195520Y-58595520D01*
X165850000Y-71690000D02*
X162850000Y-71690000D01*
X157660000Y-66500000D02*
X160600000Y-69440000D01*
X155100000Y-67500000D02*
X156100000Y-66500000D01*
X152600000Y-67500000D02*
X155100000Y-67500000D01*
X156100000Y-66500000D02*
X157660000Y-66500000D01*
X162850000Y-71690000D02*
X160600000Y-69440000D01*
X157600000Y-65000000D02*
X157600000Y-60000000D01*
D39*
%TO.N,GND*%
X152060000Y-96250000D02*
X148600000Y-92790000D01*
X150100000Y-67500000D02*
X150100000Y-66887316D01*
X149891796Y-58595520D02*
X148391796Y-58595520D01*
D42*
X110717500Y-132087500D02*
X110787500Y-132087500D01*
D39*
X150100000Y-66887316D02*
X154391796Y-62595520D01*
X162350000Y-109460000D02*
X156390000Y-109460000D01*
X146980000Y-86700000D02*
X151190000Y-86700000D01*
X165890000Y-109460000D02*
X162350000Y-109460000D01*
X117357500Y-121317500D02*
X117357500Y-120296500D01*
X154240000Y-83650000D02*
X151190000Y-86700000D01*
X162175000Y-109460000D02*
X162350000Y-109460000D01*
X148600000Y-92790000D02*
X148600000Y-89500000D01*
X146490000Y-87190000D02*
X146980000Y-86700000D01*
X112687500Y-129387500D02*
X117037500Y-129387500D01*
X152330000Y-96520000D02*
X157920000Y-96520000D01*
X152060000Y-96250000D02*
X152330000Y-96520000D01*
X155430000Y-102715000D02*
X162175000Y-109460000D01*
X156390000Y-109460000D02*
X155350000Y-110500000D01*
X154240000Y-82540000D02*
X154240000Y-83650000D01*
X117357500Y-120296500D02*
X117902500Y-119751500D01*
X153891796Y-62595520D02*
X149891796Y-58595520D01*
D38*
%TO.N,Net-(D2-A)*%
X165850000Y-79310000D02*
X165850000Y-82010000D01*
X170110000Y-86270000D02*
X170110000Y-87270000D01*
X166110000Y-82270000D02*
X170110000Y-86270000D01*
D42*
%TO.N,Net-(C2-Pad2)*%
X166430000Y-89890000D02*
X166550000Y-89770000D01*
X170110000Y-91150000D02*
X170200000Y-91240000D01*
X170200000Y-91240000D02*
X170200000Y-92770000D01*
X166550000Y-89770000D02*
X170110000Y-89770000D01*
X170110000Y-89770000D02*
X170110000Y-91150000D01*
D38*
%TO.N,Net-(D1-K)*%
X160600000Y-77060000D02*
X160600000Y-79390000D01*
X157670000Y-82460000D02*
X160670000Y-79460000D01*
X157670000Y-84520000D02*
X157670000Y-82460000D01*
D42*
%TO.N,Net-(Q2-B)*%
X151740000Y-82540000D02*
X148200000Y-79000000D01*
D38*
X160670000Y-87080000D02*
X157730000Y-87080000D01*
X154670000Y-87020000D02*
X157670000Y-87020000D01*
D42*
%TO.N,Net-(Q1-B)*%
X162580000Y-95240000D02*
X162580000Y-92770000D01*
D38*
X158470000Y-94000000D02*
X161350000Y-94000000D01*
X152060000Y-93750000D02*
X157690000Y-93750000D01*
X161350000Y-94000000D02*
X162580000Y-92770000D01*
%TO.N,Net-(Q2-C)*%
X141350000Y-89500000D02*
X146300000Y-89500000D01*
X148210000Y-87970000D02*
X151190000Y-87970000D01*
X153250000Y-87970000D02*
X151190000Y-87970000D01*
X146490000Y-89690000D02*
X148210000Y-87970000D01*
X155300000Y-90020000D02*
X153250000Y-87970000D01*
D42*
%TO.N,+5V*%
X112357500Y-130817500D02*
X111737500Y-131437500D01*
X117187500Y-132037500D02*
X115967500Y-130817500D01*
X115967500Y-130817500D02*
X112357500Y-130817500D01*
X111737500Y-131437500D02*
X111737500Y-132087500D01*
D39*
%TO.N,/OR*%
X130391796Y-62595520D02*
X123025520Y-62595520D01*
X123025520Y-62595520D02*
X120930000Y-60500000D01*
%TO.N,Net-(JP7-B)*%
X109060000Y-108960000D02*
X108100000Y-108000000D01*
X109060000Y-112500000D02*
X109060000Y-108960000D01*
%TO.N,/CHG*%
X126400000Y-84662944D02*
X126400000Y-88912944D01*
X134350000Y-98850000D02*
X134350000Y-101150000D01*
X107650000Y-78862944D02*
X107650000Y-74582944D01*
X138350000Y-105500000D02*
X135250000Y-102400000D01*
X140115000Y-103735000D02*
X141350000Y-103735000D01*
X126400000Y-88912944D02*
X124230000Y-91082944D01*
X141350000Y-111960000D02*
X138350000Y-108960000D01*
X138350000Y-105500000D02*
X140115000Y-103735000D01*
X138350000Y-108960000D02*
X138350000Y-105500000D01*
X113450000Y-84662944D02*
X107650000Y-78862944D01*
X134350000Y-101150000D02*
X133100000Y-102400000D01*
X120050000Y-84662944D02*
X113450000Y-84662944D01*
X135250000Y-102400000D02*
X133100000Y-102400000D01*
X120050000Y-84662944D02*
X126400000Y-84662944D01*
D38*
%TO.N,Net-(DZ2-K)*%
X163020000Y-131250000D02*
X159430000Y-131250000D01*
X159430000Y-131250000D02*
X155930000Y-134750000D01*
%TO.N,Net-(DZ2-A)*%
X155400000Y-128750000D02*
X155400000Y-131250000D01*
%TO.N,Net-(DZ3-A)*%
X163020000Y-128750000D02*
X163020000Y-126250000D01*
%TO.N,Net-(DZ4-A)*%
X155400000Y-123750000D02*
X155400000Y-126250000D01*
%TO.N,Net-(DZ5-A)*%
X155350000Y-115070000D02*
X157920000Y-115070000D01*
X158445072Y-107285000D02*
X158755036Y-107594964D01*
X163020000Y-120170000D02*
X159350000Y-116500000D01*
X154600000Y-119500000D02*
X154600000Y-115820000D01*
X158850000Y-114140000D02*
X157920000Y-115070000D01*
X155430000Y-107285000D02*
X158445072Y-107285000D01*
X163020000Y-123750000D02*
X163020000Y-120170000D01*
X158850000Y-114000000D02*
X158850000Y-114140000D01*
X157920000Y-115070000D02*
X159350000Y-116500000D01*
X154600000Y-115820000D02*
X155350000Y-115070000D01*
%TO.N,Net-(DZ6-K)*%
X133100000Y-118440000D02*
X137850000Y-123190000D01*
X138310000Y-123650000D02*
X137850000Y-123190000D01*
X144890000Y-123650000D02*
X138310000Y-123650000D01*
X133100000Y-115100000D02*
X133100000Y-118440000D01*
%TO.N,Net-(DZ6-A)*%
X152510000Y-123650000D02*
X152510000Y-126240000D01*
%TO.N,Net-(DZ7-A)*%
X144890000Y-128750000D02*
X144890000Y-126260000D01*
%TO.N,Net-(DZ8-A)*%
X152510000Y-128750000D02*
X152510000Y-131250000D01*
%TO.N,Net-(DZ9-A)*%
X144890000Y-131250000D02*
X149890000Y-131250000D01*
X149890000Y-131250000D02*
X153390000Y-134750000D01*
D39*
%TO.N,Net-(JP5-A)*%
X141350000Y-114500000D02*
X146465000Y-114500000D01*
%TO.N,Net-(JP6-A)*%
X141350000Y-106275000D02*
X146985000Y-106275000D01*
D38*
%TO.N,Net-(E1-C)*%
X139600000Y-82270000D02*
X135810000Y-82270000D01*
X164350000Y-99000000D02*
X160600000Y-95250000D01*
X135810000Y-82270000D02*
X135100000Y-81560000D01*
D42*
X112687500Y-132087500D02*
X113437500Y-132087500D01*
X113437500Y-132087500D02*
X115167500Y-133817500D01*
X115167500Y-133817500D02*
X115167500Y-134817500D01*
D38*
%TO.N,Net-(E1-B)*%
X134350000Y-86150000D02*
X136990000Y-86150000D01*
X136990000Y-86150000D02*
X139600000Y-83540000D01*
%TO.N,Net-(Q9-G)*%
X110787500Y-129387500D02*
X112282999Y-127892001D01*
X112282999Y-127892001D02*
X114333999Y-127892001D01*
X114333999Y-127892001D02*
X117902500Y-124323500D01*
%TO.N,Net-(R12-Pad2)*%
X166970000Y-116500000D02*
X166970000Y-114620000D01*
X166970000Y-114620000D02*
X164350000Y-112000000D01*
X164350000Y-112000000D02*
X163350000Y-112000000D01*
%TD*%
%TA.AperFunction,Conductor*%
%TO.N,GND*%
G36*
X156729510Y-60746589D02*
G01*
X156795964Y-60768162D01*
X156840207Y-60822239D01*
X156850000Y-60870539D01*
X156850000Y-61636397D01*
X156830315Y-61703436D01*
X156777511Y-61749191D01*
X156708353Y-61759135D01*
X156644797Y-61730110D01*
X156620273Y-61701187D01*
X156590226Y-61652156D01*
X156426665Y-61460650D01*
X156235160Y-61297089D01*
X156020428Y-61165502D01*
X155787752Y-61069123D01*
X155542866Y-61010332D01*
X155357099Y-60995711D01*
X155352220Y-60995520D01*
X154641796Y-60995520D01*
X154641796Y-62095520D01*
X154141796Y-62095520D01*
X154141796Y-60995520D01*
X153431372Y-60995520D01*
X153426492Y-60995711D01*
X153240725Y-61010332D01*
X152995839Y-61069123D01*
X152763163Y-61165502D01*
X152548431Y-61297089D01*
X152356926Y-61460650D01*
X152193365Y-61652155D01*
X152061778Y-61866887D01*
X151965399Y-62099563D01*
X151906607Y-62344451D01*
X151906524Y-62345519D01*
X151906525Y-62345520D01*
X153058110Y-62345520D01*
X153032303Y-62385676D01*
X152991796Y-62523631D01*
X152991796Y-62667409D01*
X153032303Y-62805364D01*
X153058110Y-62845520D01*
X151906524Y-62845520D01*
X151906607Y-62846588D01*
X151965399Y-63091476D01*
X152061778Y-63324152D01*
X152193365Y-63538884D01*
X152356926Y-63730389D01*
X152548431Y-63893950D01*
X152763163Y-64025537D01*
X152995839Y-64121916D01*
X153240725Y-64180707D01*
X153426492Y-64195328D01*
X153431372Y-64195520D01*
X154141796Y-64195520D01*
X154141796Y-63095520D01*
X154641796Y-63095520D01*
X154641796Y-64195520D01*
X155352220Y-64195520D01*
X155357099Y-64195328D01*
X155542866Y-64180707D01*
X155787752Y-64121916D01*
X156020428Y-64025537D01*
X156235160Y-63893950D01*
X156426665Y-63730389D01*
X156590225Y-63538885D01*
X156620272Y-63489853D01*
X156672084Y-63442977D01*
X156741013Y-63431554D01*
X156805176Y-63459211D01*
X156844201Y-63517166D01*
X156850000Y-63554642D01*
X156850000Y-64376000D01*
X156830315Y-64443039D01*
X156777511Y-64488794D01*
X156726000Y-64500000D01*
X153850000Y-64500000D01*
X151645183Y-66214858D01*
X151600000Y-66250000D01*
X151597281Y-66252718D01*
X151597281Y-66252719D01*
X151172522Y-66677476D01*
X151172522Y-66677478D01*
X151100000Y-66750000D01*
X151100000Y-66853552D01*
X150497953Y-67455598D01*
X150485165Y-67374852D01*
X150427641Y-67261955D01*
X150338045Y-67172359D01*
X150225148Y-67114835D01*
X150144400Y-67102046D01*
X150825472Y-66420974D01*
X150825471Y-66420972D01*
X150752484Y-66369866D01*
X150546326Y-66273733D01*
X150326602Y-66214858D01*
X150099999Y-66195033D01*
X149873397Y-66214858D01*
X149653672Y-66273733D01*
X149447516Y-66369865D01*
X149374527Y-66420973D01*
X149374526Y-66420973D01*
X150055600Y-67102046D01*
X149974852Y-67114835D01*
X149861955Y-67172359D01*
X149772359Y-67261955D01*
X149714835Y-67374852D01*
X149702046Y-67455599D01*
X149020973Y-66774526D01*
X149020973Y-66774527D01*
X148969865Y-66847516D01*
X148873733Y-67053672D01*
X148814858Y-67273397D01*
X148795033Y-67500000D01*
X148814858Y-67726602D01*
X148873733Y-67946326D01*
X148969866Y-68152484D01*
X149020972Y-68225471D01*
X149020974Y-68225472D01*
X149702046Y-67544399D01*
X149714835Y-67625148D01*
X149772359Y-67738045D01*
X149861955Y-67827641D01*
X149974852Y-67885165D01*
X150055599Y-67897953D01*
X149374526Y-68579025D01*
X149374526Y-68579026D01*
X149447515Y-68630133D01*
X149653673Y-68726266D01*
X149873397Y-68785141D01*
X150100000Y-68804966D01*
X150326602Y-68785141D01*
X150546326Y-68726266D01*
X150752480Y-68630134D01*
X150904876Y-68523426D01*
X150971082Y-68501099D01*
X151038850Y-68518109D01*
X151086663Y-68569057D01*
X151100000Y-68625000D01*
X151100000Y-69500000D01*
X153276362Y-70467272D01*
X153329628Y-70512487D01*
X153349994Y-70579322D01*
X153350000Y-70580584D01*
X153350000Y-76000000D01*
X155536220Y-77214567D01*
X155585263Y-77264331D01*
X155600000Y-77322962D01*
X155600000Y-81126000D01*
X155580315Y-81193039D01*
X155527511Y-81238794D01*
X155476000Y-81250000D01*
X154416477Y-81250000D01*
X154405670Y-81249528D01*
X154240000Y-81235033D01*
X154074330Y-81249528D01*
X154063523Y-81250000D01*
X151922212Y-81250000D01*
X151911405Y-81249528D01*
X151896584Y-81248231D01*
X151739998Y-81234531D01*
X151573138Y-81249129D01*
X151504638Y-81235362D01*
X151474650Y-81213282D01*
X149123715Y-78862347D01*
X149090230Y-78801024D01*
X149087820Y-78784913D01*
X149085108Y-78752179D01*
X149024063Y-78511119D01*
X148924173Y-78283393D01*
X148788164Y-78075215D01*
X148619744Y-77892262D01*
X148597612Y-77875036D01*
X148423514Y-77739529D01*
X148423510Y-77739526D01*
X148423509Y-77739526D01*
X148204810Y-77621172D01*
X148204806Y-77621170D01*
X148204805Y-77621170D01*
X147969615Y-77540429D01*
X147724335Y-77499500D01*
X147475665Y-77499500D01*
X147230384Y-77540429D01*
X146995194Y-77621170D01*
X146776485Y-77739529D01*
X146580259Y-77892259D01*
X146411837Y-78075214D01*
X146275825Y-78283395D01*
X146175938Y-78511117D01*
X146114891Y-78752183D01*
X146094356Y-78999999D01*
X146114891Y-79247816D01*
X146114891Y-79247819D01*
X146114892Y-79247821D01*
X146175937Y-79488881D01*
X146220960Y-79591523D01*
X146275825Y-79716604D01*
X146275827Y-79716607D01*
X146411836Y-79924785D01*
X146580256Y-80107738D01*
X146580259Y-80107740D01*
X146776485Y-80260470D01*
X146776487Y-80260471D01*
X146776491Y-80260474D01*
X146995190Y-80378828D01*
X147230386Y-80459571D01*
X147475665Y-80500500D01*
X147724335Y-80500500D01*
X147969614Y-80459571D01*
X148204810Y-80378828D01*
X148326359Y-80313047D01*
X148394682Y-80298453D01*
X148460054Y-80323115D01*
X148473054Y-80334422D01*
X149176951Y-81038319D01*
X149210436Y-81099642D01*
X149205452Y-81169334D01*
X149163580Y-81225267D01*
X149098116Y-81249684D01*
X149089270Y-81250000D01*
X139937315Y-81250000D01*
X139925161Y-81249403D01*
X139883855Y-81245334D01*
X139918278Y-81207941D01*
X139968551Y-81093330D01*
X139978886Y-80968605D01*
X139948163Y-80847281D01*
X139884606Y-80750000D01*
X140850000Y-80750000D01*
X140850000Y-80430481D01*
X140849645Y-80423867D01*
X140843599Y-80367628D01*
X140793352Y-80232910D01*
X140707188Y-80117811D01*
X140592089Y-80031647D01*
X140457371Y-79981400D01*
X140401132Y-79975354D01*
X140394518Y-79975000D01*
X139850000Y-79975000D01*
X139850000Y-80719382D01*
X139780948Y-80665637D01*
X139662576Y-80625000D01*
X139568927Y-80625000D01*
X139476554Y-80640414D01*
X139366486Y-80699981D01*
X139350000Y-80717889D01*
X139350000Y-79975000D01*
X138805482Y-79975000D01*
X138798867Y-79975354D01*
X138742628Y-79981400D01*
X138607910Y-80031647D01*
X138492811Y-80117811D01*
X138406647Y-80232910D01*
X138356400Y-80367628D01*
X138350354Y-80423867D01*
X138350000Y-80430481D01*
X138350000Y-80750000D01*
X139320440Y-80750000D01*
X139281722Y-80792059D01*
X139231449Y-80906670D01*
X139221114Y-81031395D01*
X139251837Y-81152719D01*
X139312575Y-81245685D01*
X139274839Y-81249403D01*
X139262685Y-81250000D01*
X137474000Y-81250000D01*
X137406961Y-81230315D01*
X137361206Y-81177511D01*
X137350000Y-81126000D01*
X137350000Y-66124000D01*
X137369685Y-66056961D01*
X137422489Y-66011206D01*
X137474000Y-66000000D01*
X148850001Y-66000000D01*
X151100000Y-64500000D01*
X151099999Y-64500000D01*
X151600000Y-62500000D01*
X151407259Y-60736967D01*
X151419542Y-60668189D01*
X151467061Y-60616967D01*
X151534030Y-60599545D01*
X156729510Y-60746589D01*
G37*
%TD.AperFunction*%
%TD*%
%TA.AperFunction,Conductor*%
%TO.N,GND*%
G36*
X117081453Y-57269685D02*
G01*
X117127208Y-57322489D01*
X117130349Y-57330011D01*
X117690359Y-58806400D01*
X119850000Y-64500000D01*
X123849999Y-66500000D01*
X123850000Y-66500000D01*
X128298638Y-66500000D01*
X128365677Y-66519685D01*
X128386319Y-66536319D01*
X130313681Y-68463681D01*
X130347166Y-68525004D01*
X130350000Y-68551362D01*
X130350000Y-79376000D01*
X130330315Y-79443039D01*
X130277511Y-79488794D01*
X130226000Y-79500000D01*
X123974000Y-79500000D01*
X123906961Y-79480315D01*
X123861206Y-79427511D01*
X123850000Y-79376000D01*
X123850000Y-74252943D01*
X124713967Y-74252943D01*
X124713968Y-74252944D01*
X125854118Y-74252944D01*
X125815444Y-74346313D01*
X125794823Y-74502944D01*
X125815444Y-74659575D01*
X125854118Y-74752944D01*
X124713968Y-74752944D01*
X124714273Y-74757024D01*
X124770971Y-75005435D01*
X124864057Y-75242613D01*
X124991454Y-75463272D01*
X125150317Y-75662480D01*
X125337095Y-75835785D01*
X125547615Y-75979315D01*
X125777179Y-76089866D01*
X126020654Y-76164969D01*
X126150000Y-76184464D01*
X126150000Y-75048825D01*
X126243369Y-75087500D01*
X126360677Y-75102944D01*
X126439323Y-75102944D01*
X126556631Y-75087500D01*
X126650000Y-75048825D01*
X126650000Y-76184463D01*
X126779345Y-76164969D01*
X127022823Y-76089865D01*
X127252379Y-75979318D01*
X127462907Y-75835783D01*
X127649682Y-75662480D01*
X127808545Y-75463272D01*
X127935942Y-75242613D01*
X128029028Y-75005435D01*
X128085726Y-74757024D01*
X128086032Y-74752944D01*
X126945882Y-74752944D01*
X126984556Y-74659575D01*
X127005177Y-74502944D01*
X126984556Y-74346313D01*
X126945882Y-74252944D01*
X128086032Y-74252944D01*
X128086032Y-74252943D01*
X128085726Y-74248863D01*
X128029028Y-74000452D01*
X127935942Y-73763274D01*
X127808545Y-73542615D01*
X127649682Y-73343407D01*
X127462907Y-73170104D01*
X127252379Y-73026569D01*
X127022823Y-72916022D01*
X126779345Y-72840918D01*
X126650000Y-72821423D01*
X126650000Y-73957062D01*
X126556631Y-73918388D01*
X126439323Y-73902944D01*
X126360677Y-73902944D01*
X126243369Y-73918388D01*
X126149999Y-73957062D01*
X126149999Y-72821423D01*
X126020654Y-72840918D01*
X125777179Y-72916021D01*
X125547615Y-73026572D01*
X125337095Y-73170102D01*
X125150317Y-73343407D01*
X124991454Y-73542615D01*
X124864057Y-73763274D01*
X124770971Y-74000452D01*
X124714273Y-74248863D01*
X124713967Y-74252943D01*
X123850000Y-74252943D01*
X123850000Y-74250001D01*
X123849999Y-74249999D01*
X120850000Y-71500000D01*
X106474000Y-71500000D01*
X106406961Y-71480315D01*
X106361206Y-71427511D01*
X106350000Y-71376000D01*
X106350000Y-61744518D01*
X109070000Y-61744518D01*
X109070354Y-61751132D01*
X109076400Y-61807371D01*
X109126647Y-61942089D01*
X109212811Y-62057188D01*
X109327910Y-62143352D01*
X109462628Y-62193599D01*
X109518867Y-62199645D01*
X109525482Y-62200000D01*
X110520000Y-62200000D01*
X110520000Y-61045881D01*
X110613369Y-61084556D01*
X110730677Y-61100000D01*
X110809323Y-61100000D01*
X110926631Y-61084556D01*
X111020000Y-61045881D01*
X111020000Y-62200000D01*
X112014518Y-62200000D01*
X112021132Y-62199645D01*
X112077371Y-62193599D01*
X112212089Y-62143352D01*
X112327188Y-62057188D01*
X112413352Y-61942089D01*
X112463599Y-61807371D01*
X112469645Y-61751132D01*
X112470000Y-61744518D01*
X112470000Y-60750000D01*
X111315882Y-60750000D01*
X111354556Y-60656631D01*
X111375177Y-60500000D01*
X111354556Y-60343369D01*
X111315882Y-60250000D01*
X112470000Y-60250000D01*
X112470000Y-59255481D01*
X112469645Y-59248867D01*
X112463599Y-59192628D01*
X112413352Y-59057910D01*
X112327188Y-58942811D01*
X112212089Y-58856647D01*
X112077371Y-58806400D01*
X112021132Y-58800354D01*
X112014518Y-58800000D01*
X111020000Y-58800000D01*
X111020000Y-59954118D01*
X110926631Y-59915444D01*
X110809323Y-59900000D01*
X110730677Y-59900000D01*
X110613369Y-59915444D01*
X110520000Y-59954118D01*
X110520000Y-58800000D01*
X109525482Y-58800000D01*
X109518867Y-58800354D01*
X109462628Y-58806400D01*
X109327910Y-58856647D01*
X109212811Y-58942811D01*
X109126647Y-59057910D01*
X109076400Y-59192628D01*
X109070354Y-59248867D01*
X109070000Y-59255481D01*
X109070000Y-60250000D01*
X110224118Y-60250000D01*
X110185444Y-60343369D01*
X110164823Y-60500000D01*
X110185444Y-60656631D01*
X110224118Y-60750000D01*
X109070000Y-60750000D01*
X109070000Y-61744518D01*
X106350000Y-61744518D01*
X106350000Y-57374000D01*
X106369685Y-57306961D01*
X106422489Y-57261206D01*
X106474000Y-57250000D01*
X117014414Y-57250000D01*
X117081453Y-57269685D01*
G37*
%TD.AperFunction*%
%TD*%
%TA.AperFunction,Conductor*%
%TO.N,/CAP+*%
G36*
X115043039Y-114769685D02*
G01*
X115088794Y-114822489D01*
X115100000Y-114874000D01*
X115100000Y-125626000D01*
X115080315Y-125693039D01*
X115027511Y-125738794D01*
X114976000Y-125750000D01*
X114392311Y-125750000D01*
X114325272Y-125730315D01*
X114308777Y-125717640D01*
X114273541Y-125685519D01*
X114273540Y-125685518D01*
X114090889Y-125572426D01*
X114044254Y-125520398D01*
X114033150Y-125451416D01*
X114061103Y-125387382D01*
X114119238Y-125348626D01*
X114142285Y-125343779D01*
X114195995Y-125337727D01*
X114362227Y-125279560D01*
X114511341Y-125185865D01*
X114635865Y-125061341D01*
X114729560Y-124912227D01*
X114787727Y-124745996D01*
X114802109Y-124618352D01*
X114802500Y-124611403D01*
X114802500Y-122287500D01*
X111502500Y-122287500D01*
X111502500Y-125352500D01*
X113043489Y-125352500D01*
X113110528Y-125372185D01*
X113156283Y-125424989D01*
X113166227Y-125494147D01*
X113137202Y-125557703D01*
X113108766Y-125581927D01*
X112941458Y-125685519D01*
X112906775Y-125717137D01*
X112843971Y-125747754D01*
X112823237Y-125749500D01*
X109689238Y-125749500D01*
X109686096Y-125749460D01*
X109598638Y-125747243D01*
X109594111Y-125748055D01*
X109572234Y-125750000D01*
X105724000Y-125750000D01*
X105656961Y-125730315D01*
X105611206Y-125677511D01*
X105600000Y-125626000D01*
X105600000Y-122287500D01*
X107702500Y-122287500D01*
X107702500Y-124611404D01*
X107702890Y-124618352D01*
X107717272Y-124745996D01*
X107775439Y-124912227D01*
X107869134Y-125061341D01*
X107993658Y-125185865D01*
X108142772Y-125279560D01*
X108309003Y-125337727D01*
X108436647Y-125352109D01*
X108443596Y-125352500D01*
X111002500Y-125352500D01*
X111002500Y-122287500D01*
X107702500Y-122287500D01*
X105600000Y-122287500D01*
X105600000Y-121787499D01*
X107702499Y-121787499D01*
X107702500Y-121787500D01*
X111002500Y-121787500D01*
X111002500Y-118722500D01*
X111502500Y-118722500D01*
X111502500Y-121787500D01*
X114802500Y-121787500D01*
X114802500Y-119463596D01*
X114802109Y-119456647D01*
X114787727Y-119329003D01*
X114729560Y-119162772D01*
X114635865Y-119013658D01*
X114511341Y-118889134D01*
X114362227Y-118795439D01*
X114195996Y-118737272D01*
X114068352Y-118722890D01*
X114061404Y-118722500D01*
X111502500Y-118722500D01*
X111002500Y-118722500D01*
X108443596Y-118722500D01*
X108436647Y-118722890D01*
X108309003Y-118737272D01*
X108142772Y-118795439D01*
X107993658Y-118889134D01*
X107869134Y-119013658D01*
X107775439Y-119162772D01*
X107717272Y-119329003D01*
X107702890Y-119456647D01*
X107702500Y-119463595D01*
X107702499Y-121787499D01*
X105600000Y-121787499D01*
X105600000Y-114874000D01*
X105619685Y-114806961D01*
X105672489Y-114761206D01*
X105724000Y-114750000D01*
X114976000Y-114750000D01*
X115043039Y-114769685D01*
G37*
%TD.AperFunction*%
%TD*%
M02*
