%TF.GenerationSoftware,KiCad,Pcbnew,7.0.2*%
%TF.CreationDate,2024-12-05T18:12:45+09:00*%
%TF.ProjectId,YZ_CDI_PROT_V1,595a5f43-4449-45f5-9052-4f545f56312e,rev?*%
%TF.SameCoordinates,Original*%
%TF.FileFunction,Copper,L2,Bot*%
%TF.FilePolarity,Positive*%
%FSLAX46Y46*%
G04 Gerber Fmt 4.6, Leading zero omitted, Abs format (unit mm)*
G04 Created by KiCad (PCBNEW 7.0.2) date 2024-12-05 18:12:45*
%MOMM*%
%LPD*%
G01*
G04 APERTURE LIST*
G04 Aperture macros list*
%AMRoundRect*
0 Rectangle with rounded corners*
0 $1 Rounding radius*
0 $2 $3 $4 $5 $6 $7 $8 $9 X,Y pos of 4 corners*
0 Add a 4 corners polygon primitive as box body*
4,1,4,$2,$3,$4,$5,$6,$7,$8,$9,$2,$3,0*
0 Add four circle primitives for the rounded corners*
1,1,$1+$1,$2,$3*
1,1,$1+$1,$4,$5*
1,1,$1+$1,$6,$7*
1,1,$1+$1,$8,$9*
0 Add four rect primitives between the rounded corners*
20,1,$1+$1,$2,$3,$4,$5,0*
20,1,$1+$1,$4,$5,$6,$7,0*
20,1,$1+$1,$6,$7,$8,$9,0*
20,1,$1+$1,$8,$9,$2,$3,0*%
%AMFreePoly0*
4,1,9,3.862500,-0.866500,0.737500,-0.866500,0.737500,-0.450000,-0.737500,-0.450000,-0.737500,0.450000,0.737500,0.450000,0.737500,0.866500,3.862500,0.866500,3.862500,-0.866500,3.862500,-0.866500,$1*%
G04 Aperture macros list end*
%TA.AperFunction,ComponentPad*%
%ADD10C,2.000000*%
%TD*%
%TA.AperFunction,ComponentPad*%
%ADD11O,3.600000X2.200000*%
%TD*%
%TA.AperFunction,ComponentPad*%
%ADD12C,1.524000*%
%TD*%
%TA.AperFunction,ComponentPad*%
%ADD13R,2.000000X2.000000*%
%TD*%
%TA.AperFunction,ComponentPad*%
%ADD14R,1.600000X1.600000*%
%TD*%
%TA.AperFunction,ComponentPad*%
%ADD15C,1.600000*%
%TD*%
%TA.AperFunction,SMDPad,CuDef*%
%ADD16R,1.500000X3.000000*%
%TD*%
%TA.AperFunction,SMDPad,CuDef*%
%ADD17R,6.250000X6.800000*%
%TD*%
%TA.AperFunction,SMDPad,CuDef*%
%ADD18R,0.600000X1.300000*%
%TD*%
%TA.AperFunction,SMDPad,CuDef*%
%ADD19RoundRect,0.135000X0.185000X-0.135000X0.185000X0.135000X-0.185000X0.135000X-0.185000X-0.135000X0*%
%TD*%
%TA.AperFunction,SMDPad,CuDef*%
%ADD20RoundRect,0.135000X-0.185000X0.135000X-0.185000X-0.135000X0.185000X-0.135000X0.185000X0.135000X0*%
%TD*%
%TA.AperFunction,SMDPad,CuDef*%
%ADD21R,0.900000X1.300000*%
%TD*%
%TA.AperFunction,SMDPad,CuDef*%
%ADD22FreePoly0,90.000000*%
%TD*%
%TA.AperFunction,SMDPad,CuDef*%
%ADD23RoundRect,0.225000X0.225000X0.250000X-0.225000X0.250000X-0.225000X-0.250000X0.225000X-0.250000X0*%
%TD*%
%TA.AperFunction,SMDPad,CuDef*%
%ADD24RoundRect,0.135000X0.135000X0.185000X-0.135000X0.185000X-0.135000X-0.185000X0.135000X-0.185000X0*%
%TD*%
%TA.AperFunction,SMDPad,CuDef*%
%ADD25RoundRect,0.225000X-0.250000X0.225000X-0.250000X-0.225000X0.250000X-0.225000X0.250000X0.225000X0*%
%TD*%
%TA.AperFunction,SMDPad,CuDef*%
%ADD26RoundRect,0.073750X-0.531250X-0.221250X0.531250X-0.221250X0.531250X0.221250X-0.531250X0.221250X0*%
%TD*%
%TA.AperFunction,SMDPad,CuDef*%
%ADD27RoundRect,0.225000X-0.225000X-0.250000X0.225000X-0.250000X0.225000X0.250000X-0.225000X0.250000X0*%
%TD*%
%TA.AperFunction,SMDPad,CuDef*%
%ADD28RoundRect,0.135000X-0.135000X-0.185000X0.135000X-0.185000X0.135000X0.185000X-0.135000X0.185000X0*%
%TD*%
%TA.AperFunction,SMDPad,CuDef*%
%ADD29RoundRect,0.240000X1.175000X-0.240000X1.175000X0.240000X-1.175000X0.240000X-1.175000X-0.240000X0*%
%TD*%
%TA.AperFunction,SMDPad,CuDef*%
%ADD30RoundRect,0.281500X2.768500X-2.533500X2.768500X2.533500X-2.768500X2.533500X-2.768500X-2.533500X0*%
%TD*%
%TA.AperFunction,SMDPad,CuDef*%
%ADD31RoundRect,0.250000X0.362500X1.425000X-0.362500X1.425000X-0.362500X-1.425000X0.362500X-1.425000X0*%
%TD*%
%TA.AperFunction,SMDPad,CuDef*%
%ADD32R,0.950000X1.750000*%
%TD*%
%TA.AperFunction,SMDPad,CuDef*%
%ADD33R,3.200000X1.750000*%
%TD*%
%TA.AperFunction,SMDPad,CuDef*%
%ADD34R,0.400000X0.700000*%
%TD*%
%TA.AperFunction,SMDPad,CuDef*%
%ADD35RoundRect,0.150000X0.150000X0.200000X-0.150000X0.200000X-0.150000X-0.200000X0.150000X-0.200000X0*%
%TD*%
%TA.AperFunction,SMDPad,CuDef*%
%ADD36RoundRect,0.125000X-0.125000X-0.125000X0.125000X-0.125000X0.125000X0.125000X-0.125000X0.125000X0*%
%TD*%
%TA.AperFunction,SMDPad,CuDef*%
%ADD37RoundRect,0.227273X0.272727X0.397727X-0.272727X0.397727X-0.272727X-0.397727X0.272727X-0.397727X0*%
%TD*%
%TA.AperFunction,SMDPad,CuDef*%
%ADD38RoundRect,0.075000X0.540000X0.225000X-0.540000X0.225000X-0.540000X-0.225000X0.540000X-0.225000X0*%
%TD*%
%TA.AperFunction,SMDPad,CuDef*%
%ADD39R,1.500000X0.900000*%
%TD*%
%TA.AperFunction,SMDPad,CuDef*%
%ADD40RoundRect,0.075000X-0.540000X-0.225000X0.540000X-0.225000X0.540000X0.225000X-0.540000X0.225000X0*%
%TD*%
%TA.AperFunction,SMDPad,CuDef*%
%ADD41RoundRect,0.150000X-0.150000X-0.200000X0.150000X-0.200000X0.150000X0.200000X-0.150000X0.200000X0*%
%TD*%
%TA.AperFunction,SMDPad,CuDef*%
%ADD42RoundRect,0.225000X0.250000X-0.225000X0.250000X0.225000X-0.250000X0.225000X-0.250000X-0.225000X0*%
%TD*%
%TA.AperFunction,SMDPad,CuDef*%
%ADD43RoundRect,0.075000X-0.225000X0.540000X-0.225000X-0.540000X0.225000X-0.540000X0.225000X0.540000X0*%
%TD*%
%TA.AperFunction,SMDPad,CuDef*%
%ADD44R,1.170000X1.920000*%
%TD*%
%TA.AperFunction,SMDPad,CuDef*%
%ADD45RoundRect,0.150000X0.200000X-0.150000X0.200000X0.150000X-0.200000X0.150000X-0.200000X-0.150000X0*%
%TD*%
%TA.AperFunction,SMDPad,CuDef*%
%ADD46RoundRect,0.227273X-0.272727X-0.397727X0.272727X-0.397727X0.272727X0.397727X-0.272727X0.397727X0*%
%TD*%
%TA.AperFunction,SMDPad,CuDef*%
%ADD47RoundRect,0.227273X-0.397727X0.272727X-0.397727X-0.272727X0.397727X-0.272727X0.397727X0.272727X0*%
%TD*%
%TA.AperFunction,SMDPad,CuDef*%
%ADD48R,1.500000X2.000000*%
%TD*%
%TA.AperFunction,SMDPad,CuDef*%
%ADD49R,3.800000X2.000000*%
%TD*%
%TA.AperFunction,SMDPad,CuDef*%
%ADD50RoundRect,0.250000X0.325000X0.650000X-0.325000X0.650000X-0.325000X-0.650000X0.325000X-0.650000X0*%
%TD*%
%TA.AperFunction,ViaPad*%
%ADD51C,0.800000*%
%TD*%
%TA.AperFunction,ViaPad*%
%ADD52C,1.200000*%
%TD*%
%TA.AperFunction,ViaPad*%
%ADD53C,0.600000*%
%TD*%
%TA.AperFunction,ViaPad*%
%ADD54C,1.600000*%
%TD*%
%TA.AperFunction,Conductor*%
%ADD55C,0.500000*%
%TD*%
%TA.AperFunction,Conductor*%
%ADD56C,0.800000*%
%TD*%
%TA.AperFunction,Conductor*%
%ADD57C,1.200000*%
%TD*%
%TA.AperFunction,Conductor*%
%ADD58C,0.600000*%
%TD*%
%TA.AperFunction,Conductor*%
%ADD59C,0.350000*%
%TD*%
%TA.AperFunction,Conductor*%
%ADD60C,1.300000*%
%TD*%
%TA.AperFunction,Conductor*%
%ADD61C,1.000000*%
%TD*%
%TA.AperFunction,Conductor*%
%ADD62C,1.600000*%
%TD*%
%TA.AperFunction,Conductor*%
%ADD63C,0.400000*%
%TD*%
G04 APERTURE END LIST*
D10*
%TO.P,C51,1*%
%TO.N,/OR*%
X-3300000Y63850000D03*
%TO.P,C51,2*%
%TO.N,/CAP+*%
X-3300000Y53850000D03*
%TD*%
%TO.P,C50,1*%
%TO.N,/OR*%
X-3500000Y68650000D03*
%TO.P,C50,2*%
%TO.N,/CAP+*%
X-3500000Y78650000D03*
%TD*%
D11*
%TO.P,CN1,1,BW_KILL*%
%TO.N,/BW*%
X-1600000Y83500000D03*
%TO.P,CN1,2,BR_CHG1*%
%TO.N,/BR*%
X-7600000Y83500000D03*
%TO.P,CN1,3,R_SOL*%
%TO.N,/R*%
X-13600000Y83500000D03*
%TO.P,CN1,4,B_GND*%
%TO.N,GND*%
X-19600000Y83500000D03*
%TO.P,CN1,5,WL_PU*%
%TO.N,/WL*%
X-25600000Y83500000D03*
%TO.P,CN1,6,L_TPS_REF+*%
%TO.N,+5V*%
X-31600000Y83500000D03*
%TO.P,CN1,7,BL_TPS_GND*%
%TO.N,GND*%
X-37600000Y83500000D03*
%TO.P,CN1,8,GL_CHG2-*%
%TO.N,/GL*%
X-43600000Y83500000D03*
%TO.P,CN1,9,GW_CHG2-*%
%TO.N,/GW*%
X-41800000Y87500000D03*
%TO.P,CN1,10,Y_TPS_IN*%
%TO.N,/Y*%
X-35800000Y87500000D03*
%TO.P,CN1,11,Vpp*%
%TO.N,/VPP*%
X-29800000Y87500000D03*
%TO.P,CN1,12,WR_PU_GND*%
%TO.N,GND*%
X-23800000Y87500000D03*
%TO.P,CN1,13,PGD*%
%TO.N,/PGD*%
X-17800000Y87500000D03*
%TO.P,CN1,14,SB_NW_SW*%
%TO.N,unconnected-(CN1-SB_NW_SW-Pad14)*%
X-11800000Y87500000D03*
%TO.P,CN1,15,PGC*%
%TO.N,/PGC*%
X-5800000Y87500000D03*
%TO.P,CN1,16,OR_IG*%
%TO.N,/OR*%
X200000Y87500000D03*
%TD*%
D12*
%TO.P,SW2,1,1*%
%TO.N,Net-(IC1-RC6)*%
X-41600000Y50580000D03*
%TO.P,SW2,2,2*%
%TO.N,Net-(IC1-RC7)*%
X-41600000Y45500000D03*
%TO.P,SW2,3,COMMON*%
%TO.N,GND*%
X-49220000Y48040000D03*
%TO.P,SW2,4,4*%
%TO.N,unconnected-(SW2-Pad4)*%
X-49220000Y50580000D03*
%TO.P,SW2,8,8*%
%TO.N,unconnected-(SW2-Pad8)*%
X-49220000Y45500000D03*
%TD*%
%TO.P,SW1,1,1*%
%TO.N,Net-(IC1-RC4)*%
X-51800000Y50630000D03*
%TO.P,SW1,2,2*%
%TO.N,Net-(IC1-RC3)*%
X-51800000Y45550000D03*
%TO.P,SW1,3,COMMON*%
%TO.N,GND*%
X-59420000Y48090000D03*
%TO.P,SW1,4,4*%
%TO.N,unconnected-(SW1-Pad4)*%
X-59420000Y50630000D03*
%TO.P,SW1,8,8*%
%TO.N,unconnected-(SW1-Pad8)*%
X-59420000Y45550000D03*
%TD*%
%TO.P,SW5,1*%
%TO.N,/PWJ_SEL*%
X-51790000Y55430000D03*
%TO.P,SW5,2*%
%TO.N,/REV_LIMIT_SEL*%
X-51790000Y57970000D03*
%TO.P,SW5,3*%
%TO.N,GND*%
X-59410000Y57970000D03*
%TO.P,SW5,4*%
X-59410000Y55430000D03*
%TD*%
%TO.P,SW3,1,1*%
%TO.N,Net-(IC1-RB7)*%
X-31350000Y50630000D03*
%TO.P,SW3,2,2*%
%TO.N,Net-(IC1-RB6)*%
X-31350000Y45550000D03*
%TO.P,SW3,3,COMMON*%
%TO.N,GND*%
X-38970000Y48090000D03*
%TO.P,SW3,4,4*%
%TO.N,unconnected-(SW3-Pad4)*%
X-38970000Y50630000D03*
%TO.P,SW3,8,8*%
%TO.N,unconnected-(SW3-Pad8)*%
X-38970000Y45550000D03*
%TD*%
D13*
%TO.P,C10,1*%
%TO.N,+12V*%
X-32500000Y75950000D03*
D10*
%TO.P,C10,2*%
%TO.N,GND*%
X-27500000Y75950000D03*
%TD*%
D14*
%TO.P,C21,1*%
%TO.N,+5V*%
X-55250000Y68300000D03*
D15*
%TO.P,C21,2*%
%TO.N,GND*%
X-57750000Y68300000D03*
%TD*%
D12*
%TO.P,SW4,1,1*%
%TO.N,Net-(IC1-RB5)*%
X-21100000Y50630000D03*
%TO.P,SW4,2,2*%
%TO.N,Net-(IC1-RB4)*%
X-21100000Y45550000D03*
%TO.P,SW4,3,COMMON*%
%TO.N,GND*%
X-28720000Y48090000D03*
%TO.P,SW4,4,4*%
%TO.N,unconnected-(SW4-Pad4)*%
X-28720000Y50630000D03*
%TO.P,SW4,8,8*%
%TO.N,unconnected-(SW4-Pad8)*%
X-28720000Y45550000D03*
%TD*%
D16*
%TO.P,TR12,1,G*%
%TO.N,Net-(TR12-G)*%
X-17415000Y64350000D03*
%TO.P,TR12,3,S*%
%TO.N,+12V*%
X-21985000Y64350000D03*
D17*
%TO.P,TR12,4,D*%
%TO.N,Net-(D16-K)*%
X-19700000Y70950000D03*
%TD*%
D18*
%TO.P,TR3,1,B*%
%TO.N,Net-(TR3-B)*%
X-33600000Y66850000D03*
%TO.P,TR3,2,E*%
%TO.N,GND*%
X-31700000Y66850000D03*
%TO.P,TR3,3,C*%
%TO.N,/MCU_PU1IN*%
X-32650000Y64750000D03*
%TD*%
D19*
%TO.P,R16,1*%
%TO.N,Net-(D10-K)*%
X-17600000Y47340000D03*
%TO.P,R16,2*%
%TO.N,GND*%
X-17600000Y48360000D03*
%TD*%
D20*
%TO.P,R38,1*%
%TO.N,Net-(IC1-RB7)*%
X-34950000Y45810000D03*
%TO.P,R38,2*%
%TO.N,+5V*%
X-34950000Y44790000D03*
%TD*%
D21*
%TO.P,Q1,1,G*%
%TO.N,Net-(Q1-G)*%
X-43950000Y69500000D03*
D22*
%TO.P,Q1,2,D*%
%TO.N,/GL*%
X-45450000Y69587500D03*
D21*
%TO.P,Q1,3,S*%
%TO.N,GND*%
X-46950000Y69500000D03*
%TD*%
D23*
%TO.P,C8,1*%
%TO.N,+12V*%
X-54650000Y79050000D03*
%TO.P,C8,2*%
%TO.N,GND*%
X-56200000Y79050000D03*
%TD*%
D24*
%TO.P,R7,1*%
%TO.N,Net-(D9-A)*%
X-37490000Y76550000D03*
%TO.P,R7,2*%
%TO.N,Net-(C1-Pad2)*%
X-38510000Y76550000D03*
%TD*%
D25*
%TO.P,C6,1*%
%TO.N,/MCU_TPSIN*%
X-41300000Y58425000D03*
%TO.P,C6,2*%
%TO.N,GND*%
X-41300000Y56875000D03*
%TD*%
D26*
%TO.P,IC3,1,EN*%
%TO.N,Net-(IC3-EN)*%
X-15155000Y44400000D03*
%TO.P,IC3,2,GND*%
%TO.N,GND*%
X-15155000Y45350000D03*
%TO.P,IC3,3,IN+*%
%TO.N,Net-(D10-K)*%
X-15155000Y46300000D03*
%TO.P,IC3,4,OUT*%
%TO.N,Net-(IC3-OUT)*%
X-12645000Y46300000D03*
%TO.P,IC3,5,VDD*%
%TO.N,+5V*%
X-12645000Y44400000D03*
%TD*%
D19*
%TO.P,R33,1*%
%TO.N,+5V*%
X-44550000Y44510000D03*
%TO.P,R33,2*%
%TO.N,Net-(IC1-RC7)*%
X-44550000Y45530000D03*
%TD*%
D25*
%TO.P,C43,1*%
%TO.N,/WL*%
X-30900000Y79525000D03*
%TO.P,C43,2*%
%TO.N,GND*%
X-30900000Y77975000D03*
%TD*%
D27*
%TO.P,C18,1*%
%TO.N,Net-(C18-Pad1)*%
X-30575000Y73950000D03*
%TO.P,C18,2*%
%TO.N,GND*%
X-29025000Y73950000D03*
%TD*%
D28*
%TO.P,R61,1*%
%TO.N,Net-(DZ2-A)*%
X-47020000Y68000000D03*
%TO.P,R61,2*%
%TO.N,Net-(Q1-G)*%
X-46000000Y68000000D03*
%TD*%
%TO.P,R9,1*%
%TO.N,Net-(C1-Pad2)*%
X-38620000Y75250000D03*
%TO.P,R9,2*%
%TO.N,Net-(D14-K)*%
X-37600000Y75250000D03*
%TD*%
D29*
%TO.P,Q3,1,G*%
%TO.N,Net-(IC3-OUT)*%
X-9840000Y46464000D03*
D30*
%TO.P,Q3,2,D*%
%TO.N,/CAP+*%
X-3190000Y48750000D03*
D29*
%TO.P,Q3,3,S*%
%TO.N,GND*%
X-9840000Y51036000D03*
%TD*%
D31*
%TO.P,R1,1*%
%TO.N,/CHG*%
X-10300000Y60350000D03*
%TO.P,R1,2*%
%TO.N,Net-(D15-K)*%
X-16225000Y60350000D03*
%TD*%
D25*
%TO.P,C5,1*%
%TO.N,Net-(D5-K)*%
X-34900000Y76725000D03*
%TO.P,C5,2*%
%TO.N,Net-(C18-Pad1)*%
X-34900000Y75175000D03*
%TD*%
D28*
%TO.P,R8,1*%
%TO.N,+5V*%
X-40260000Y73050000D03*
%TO.P,R8,2*%
%TO.N,Net-(D14-K)*%
X-39240000Y73050000D03*
%TD*%
%TO.P,R18,1*%
%TO.N,+5V*%
X-34410000Y62850000D03*
%TO.P,R18,2*%
%TO.N,Net-(D10-A)*%
X-33390000Y62850000D03*
%TD*%
D24*
%TO.P,R62,1*%
%TO.N,Net-(DZ2-A)*%
X-48390000Y69300000D03*
%TO.P,R62,2*%
%TO.N,Net-(Q2-G)*%
X-49410000Y69300000D03*
%TD*%
D28*
%TO.P,R23,1*%
%TO.N,+5V*%
X-39510000Y59250000D03*
%TO.P,R23,2*%
%TO.N,/MCU_PU2IN*%
X-38490000Y59250000D03*
%TD*%
D24*
%TO.P,R12,1*%
%TO.N,+5V*%
X-45690000Y58900000D03*
%TO.P,R12,2*%
%TO.N,Net-(C4-Pad1)*%
X-46710000Y58900000D03*
%TD*%
D32*
%TO.P,IC2,1,IN*%
%TO.N,+12V*%
X-54800000Y81000000D03*
%TO.P,IC2,2,GND_1*%
%TO.N,GND*%
X-57100000Y81000000D03*
%TO.P,IC2,3,OUT*%
%TO.N,+5V*%
X-59400000Y81000000D03*
D33*
%TO.P,IC2,4,GND_2*%
%TO.N,GND*%
X-57100000Y87300000D03*
%TD*%
D34*
%TO.P,D12,1,1*%
%TO.N,GND*%
X-15850000Y48450000D03*
%TO.P,D12,2,2*%
%TO.N,Net-(D10-K)*%
X-15150000Y48450000D03*
%TD*%
D20*
%TO.P,R6,1*%
%TO.N,Net-(C1-Pad2)*%
X-40600000Y76460000D03*
%TO.P,R6,2*%
%TO.N,Net-(D13-K)*%
X-40600000Y75440000D03*
%TD*%
D35*
%TO.P,D14,1,K*%
%TO.N,Net-(D14-K)*%
X-37100000Y72150000D03*
%TO.P,D14,2,A*%
%TO.N,GND*%
X-35700000Y72150000D03*
%TD*%
D19*
%TO.P,R35,1*%
%TO.N,+5V*%
X-23600000Y44800000D03*
%TO.P,R35,2*%
%TO.N,Net-(IC1-RB4)*%
X-23600000Y45820000D03*
%TD*%
D25*
%TO.P,C9,1*%
%TO.N,Net-(D10-K)*%
X-17300000Y46125000D03*
%TO.P,C9,2*%
%TO.N,GND*%
X-17300000Y44575000D03*
%TD*%
D36*
%TO.P,D15,1,K*%
%TO.N,Net-(D15-K)*%
X-12900000Y64150000D03*
%TO.P,D15,2,A*%
%TO.N,Net-(D15-A)*%
X-10700000Y64150000D03*
%TD*%
D35*
%TO.P,D13,1,K*%
%TO.N,Net-(D13-K)*%
X-39300000Y66950000D03*
%TO.P,D13,2,A*%
%TO.N,GND*%
X-37900000Y66950000D03*
%TD*%
D24*
%TO.P,R3,1*%
%TO.N,Net-(Q1-G)*%
X-46740000Y66650000D03*
%TO.P,R3,2*%
%TO.N,GND*%
X-47760000Y66650000D03*
%TD*%
D27*
%TO.P,C3,1*%
%TO.N,+5V*%
X-39775000Y60550000D03*
%TO.P,C3,2*%
%TO.N,GND*%
X-38225000Y60550000D03*
%TD*%
D28*
%TO.P,R5,1*%
%TO.N,+5V*%
X-42060000Y74050000D03*
%TO.P,R5,2*%
%TO.N,Net-(D13-K)*%
X-41040000Y74050000D03*
%TD*%
D37*
%TO.P,D17,1,K*%
%TO.N,/R*%
X-16080000Y79950000D03*
%TO.P,D17,2,A*%
%TO.N,Net-(D16-K)*%
X-19320000Y79950000D03*
%TD*%
D28*
%TO.P,R40,1*%
%TO.N,+5V*%
X-56310000Y55350000D03*
%TO.P,R40,2*%
%TO.N,/PWJ_SEL*%
X-55290000Y55350000D03*
%TD*%
D24*
%TO.P,R13,1*%
%TO.N,Net-(D15-A)*%
X-11790000Y66550000D03*
%TO.P,R13,2*%
%TO.N,GND*%
X-12810000Y66550000D03*
%TD*%
D38*
%TO.P,TR7,1,B*%
%TO.N,Net-(D8-K)*%
X-22730000Y59550000D03*
%TO.P,TR7,2,E*%
%TO.N,GND*%
X-22730000Y57650000D03*
%TO.P,TR7,3,C*%
%TO.N,Net-(D10-A)*%
X-24850000Y58600000D03*
%TD*%
D20*
%TO.P,R37,1*%
%TO.N,Net-(IC1-RC6)*%
X-45550000Y45520000D03*
%TO.P,R37,2*%
%TO.N,+5V*%
X-45550000Y44500000D03*
%TD*%
D24*
%TO.P,R15,1*%
%TO.N,Net-(TR12-G)*%
X-22390000Y61900000D03*
%TO.P,R15,2*%
%TO.N,Net-(TR1-C)*%
X-23410000Y61900000D03*
%TD*%
D35*
%TO.P,D5,1,K*%
%TO.N,Net-(D5-K)*%
X-33600000Y78650000D03*
%TO.P,D5,2,A*%
%TO.N,/WL*%
X-32200000Y78650000D03*
%TD*%
D25*
%TO.P,C13,1*%
%TO.N,/MCU_PU2IN*%
X-35800000Y60525000D03*
%TO.P,C13,2*%
%TO.N,GND*%
X-35800000Y58975000D03*
%TD*%
D39*
%TO.P,D6,+*%
%TO.N,+12V*%
X-52360000Y83500000D03*
%TO.P,D6,-*%
%TO.N,GND*%
X-52360000Y87600000D03*
%TO.P,D6,AC1*%
%TO.N,/GL*%
X-46640000Y83500000D03*
%TO.P,D6,AC2*%
%TO.N,/GW*%
X-46640000Y87600000D03*
%TD*%
D23*
%TO.P,C11,1*%
%TO.N,Net-(D13-K)*%
X-41125000Y64750000D03*
%TO.P,C11,2*%
%TO.N,GND*%
X-42675000Y64750000D03*
%TD*%
D40*
%TO.P,TR1,1,B*%
%TO.N,/PGD*%
X-26410000Y63212500D03*
%TO.P,TR1,2,E*%
%TO.N,GND*%
X-26410000Y65112500D03*
%TO.P,TR1,3,C*%
%TO.N,Net-(TR1-C)*%
X-24290000Y64162500D03*
%TD*%
D27*
%TO.P,C12,1*%
%TO.N,Net-(D14-K)*%
X-38050000Y73850000D03*
%TO.P,C12,2*%
%TO.N,GND*%
X-36500000Y73850000D03*
%TD*%
%TO.P,C14,1*%
%TO.N,+5V*%
X-59375000Y79050000D03*
%TO.P,C14,2*%
%TO.N,GND*%
X-57825000Y79050000D03*
%TD*%
D41*
%TO.P,D10,1,K*%
%TO.N,Net-(D10-K)*%
X-23250000Y55600000D03*
%TO.P,D10,2,A*%
%TO.N,Net-(D10-A)*%
X-24650000Y55600000D03*
%TD*%
D42*
%TO.P,C4,1*%
%TO.N,Net-(C4-Pad1)*%
X-48100000Y57775000D03*
%TO.P,C4,2*%
%TO.N,GND*%
X-48100000Y59325000D03*
%TD*%
D43*
%TO.P,TR2,1,B*%
%TO.N,/MCU_PU2DISABLE*%
X-29250000Y54460000D03*
%TO.P,TR2,2,E*%
%TO.N,GND*%
X-27350000Y54460000D03*
%TO.P,TR2,3,C*%
%TO.N,Net-(IC3-EN)*%
X-28300000Y52340000D03*
%TD*%
D44*
%TO.P,D2,A*%
%TO.N,/CHG*%
X-1575000Y60050000D03*
%TO.P,D2,C*%
%TO.N,/CAP+*%
X-5825000Y60050000D03*
%TD*%
D28*
%TO.P,R14,1*%
%TO.N,Net-(C4-Pad1)*%
X-46710000Y57700000D03*
%TO.P,R14,2*%
%TO.N,/VPP*%
X-45690000Y57700000D03*
%TD*%
D20*
%TO.P,R39,1*%
%TO.N,Net-(IC1-RB5)*%
X-24600000Y45820000D03*
%TO.P,R39,2*%
%TO.N,+5V*%
X-24600000Y44800000D03*
%TD*%
D18*
%TO.P,TR6,1,B*%
%TO.N,Net-(D14-K)*%
X-37150000Y70500000D03*
%TO.P,TR6,2,E*%
%TO.N,GND*%
X-35250000Y70500000D03*
%TO.P,TR6,3,C*%
%TO.N,Net-(D10-A)*%
X-36200000Y68400000D03*
%TD*%
D19*
%TO.P,R2,1*%
%TO.N,Net-(D15-K)*%
X-14100000Y65640000D03*
%TO.P,R2,2*%
%TO.N,GND*%
X-14100000Y66660000D03*
%TD*%
D24*
%TO.P,R4,1*%
%TO.N,Net-(Q2-G)*%
X-50490000Y69300000D03*
%TO.P,R4,2*%
%TO.N,GND*%
X-51510000Y69300000D03*
%TD*%
D21*
%TO.P,Q2,1,G*%
%TO.N,Net-(Q2-G)*%
X-49400000Y70900000D03*
D22*
%TO.P,Q2,2,D*%
%TO.N,/GW*%
X-50900000Y70987500D03*
D21*
%TO.P,Q2,3,S*%
%TO.N,GND*%
X-52400000Y70900000D03*
%TD*%
D45*
%TO.P,D8,1,K*%
%TO.N,Net-(D8-K)*%
X-20900000Y59300000D03*
%TO.P,D8,2,A*%
%TO.N,GND*%
X-20900000Y57900000D03*
%TD*%
D42*
%TO.P,C2,1*%
%TO.N,+5V*%
X-10900000Y43375000D03*
%TO.P,C2,2*%
%TO.N,GND*%
X-10900000Y44925000D03*
%TD*%
D46*
%TO.P,D16,1,K*%
%TO.N,Net-(D16-K)*%
X-19320000Y77350000D03*
%TO.P,D16,2,A*%
%TO.N,GND*%
X-16080000Y77350000D03*
%TD*%
D41*
%TO.P,D9,1,K*%
%TO.N,/WL*%
X-32400000Y80350000D03*
%TO.P,D9,2,A*%
%TO.N,Net-(D9-A)*%
X-33800000Y80350000D03*
%TD*%
D28*
%TO.P,R27,1*%
%TO.N,/MCU_IGOUT*%
X-29660000Y57500000D03*
%TO.P,R27,2*%
%TO.N,Net-(D7-A)*%
X-28640000Y57500000D03*
%TD*%
D19*
%TO.P,R19,1*%
%TO.N,/MCU_TPSIN*%
X-42750000Y58450000D03*
%TO.P,R19,2*%
%TO.N,/Y*%
X-42750000Y59470000D03*
%TD*%
D20*
%TO.P,R36,1*%
%TO.N,Net-(IC1-RC4)*%
X-55750000Y45550000D03*
%TO.P,R36,2*%
%TO.N,+5V*%
X-55750000Y44530000D03*
%TD*%
D41*
%TO.P,D7,1,K*%
%TO.N,Net-(D10-K)*%
X-23250000Y54100000D03*
%TO.P,D7,2,A*%
%TO.N,Net-(D7-A)*%
X-24650000Y54100000D03*
%TD*%
D18*
%TO.P,DZ2,1,A*%
%TO.N,Net-(DZ2-A)*%
X-46050000Y76800000D03*
%TO.P,DZ2,2,NON*%
%TO.N,unconnected-(DZ2-NON-Pad2)*%
X-47950000Y76800000D03*
%TO.P,DZ2,3,K*%
%TO.N,+12V*%
X-47000000Y78900000D03*
%TD*%
D28*
%TO.P,R31,1*%
%TO.N,+5V*%
X-39610000Y58150000D03*
%TO.P,R31,2*%
%TO.N,/MCU_PU1IN*%
X-38590000Y58150000D03*
%TD*%
D24*
%TO.P,R20,1*%
%TO.N,Net-(C18-Pad1)*%
X-32190000Y69450000D03*
%TO.P,R20,2*%
%TO.N,Net-(TR3-B)*%
X-33210000Y69450000D03*
%TD*%
D47*
%TO.P,D3,1,K*%
%TO.N,/BW*%
X-9100000Y80170000D03*
%TO.P,D3,2,A*%
%TO.N,/CHG*%
X-9100000Y76930000D03*
%TD*%
D25*
%TO.P,C17,1*%
%TO.N,/MCU_PU1IN*%
X-33800000Y60550000D03*
%TO.P,C17,2*%
%TO.N,GND*%
X-33800000Y59000000D03*
%TD*%
D31*
%TO.P,R22,1*%
%TO.N,/CHG*%
X-10300000Y56350000D03*
%TO.P,R22,2*%
%TO.N,Net-(D8-K)*%
X-16225000Y56350000D03*
%TD*%
D48*
%TO.P,Q4,1,G*%
%TO.N,Net-(D15-A)*%
X-9400000Y68800000D03*
%TO.P,Q4,2,D*%
%TO.N,/CHG*%
X-11700000Y68800000D03*
D49*
X-11700000Y75100000D03*
D48*
%TO.P,Q4,3,S*%
%TO.N,GND*%
X-14000000Y68800000D03*
%TD*%
D28*
%TO.P,R17,1*%
%TO.N,+12V*%
X-20210000Y61900000D03*
%TO.P,R17,2*%
%TO.N,Net-(TR12-G)*%
X-19190000Y61900000D03*
%TD*%
D18*
%TO.P,TR5,1,B*%
%TO.N,Net-(D13-K)*%
X-39350000Y65300000D03*
%TO.P,TR5,2,E*%
%TO.N,GND*%
X-37450000Y65300000D03*
%TO.P,TR5,3,C*%
%TO.N,/MCU_PU2IN*%
X-38400000Y63200000D03*
%TD*%
D24*
%TO.P,R24,1*%
%TO.N,GND*%
X-32190000Y68350000D03*
%TO.P,R24,2*%
%TO.N,Net-(TR3-B)*%
X-33210000Y68350000D03*
%TD*%
D50*
%TO.P,C1,1*%
%TO.N,Net-(D9-A)*%
X-37525000Y78250000D03*
%TO.P,C1,2*%
%TO.N,Net-(C1-Pad2)*%
X-40475000Y78250000D03*
%TD*%
D24*
%TO.P,R41,1*%
%TO.N,/REV_LIMIT_SEL*%
X-55290000Y57600000D03*
%TO.P,R41,2*%
%TO.N,+5V*%
X-56310000Y57600000D03*
%TD*%
D20*
%TO.P,R11,1*%
%TO.N,Net-(D5-K)*%
X-36300000Y76260000D03*
%TO.P,R11,2*%
%TO.N,Net-(C18-Pad1)*%
X-36300000Y75240000D03*
%TD*%
D19*
%TO.P,R34,1*%
%TO.N,+5V*%
X-33950000Y44790000D03*
%TO.P,R34,2*%
%TO.N,Net-(IC1-RB6)*%
X-33950000Y45810000D03*
%TD*%
D37*
%TO.P,D4,1,K*%
%TO.N,/CHG*%
X-11080000Y77750000D03*
%TO.P,D4,2,A*%
%TO.N,GND*%
X-14320000Y77750000D03*
%TD*%
D42*
%TO.P,C7,1*%
%TO.N,/Y*%
X-42750000Y60875000D03*
%TO.P,C7,2*%
%TO.N,GND*%
X-42750000Y62425000D03*
%TD*%
D19*
%TO.P,R32,1*%
%TO.N,+5V*%
X-54700000Y44530000D03*
%TO.P,R32,2*%
%TO.N,Net-(IC1-RC3)*%
X-54700000Y45550000D03*
%TD*%
D51*
%TO.N,/WL*%
X-35951469Y77301887D03*
D52*
%TO.N,+12V*%
X-42700000Y79700000D03*
D51*
%TO.N,+5V*%
X-41850000Y75650000D03*
D53*
X-45800002Y60450000D03*
D52*
X-57410000Y61060000D03*
D51*
X-40100000Y74250000D03*
X-35000000Y62050000D03*
X-40875001Y60524999D03*
D53*
%TO.N,/CAP+*%
X2900000Y46350000D03*
X3700000Y49850000D03*
X3700000Y51850000D03*
X2900000Y54350000D03*
X500000Y45850000D03*
X3700000Y50850000D03*
X2100000Y48850000D03*
X500000Y51850000D03*
X500000Y48850000D03*
X-1300000Y54550000D03*
X3700000Y52850000D03*
X2100000Y45850000D03*
X3700000Y45850000D03*
X1300000Y53350000D03*
X-1300000Y55550000D03*
X2100000Y46850000D03*
X500000Y50850000D03*
X3700000Y48850000D03*
X2100000Y49850000D03*
X2900000Y53350000D03*
X500000Y46850000D03*
X2900000Y49350000D03*
X2900000Y50350000D03*
X-500000Y52050000D03*
X3700000Y46850000D03*
X500000Y52850000D03*
X-2100000Y55050000D03*
X1300000Y47350000D03*
X1300000Y46350000D03*
X500000Y47850000D03*
X2100000Y47850000D03*
X2900000Y48350000D03*
X-1300000Y53550000D03*
X500000Y49850000D03*
X1300000Y51350000D03*
X-500000Y55050000D03*
X1300000Y49350000D03*
X2900000Y52350000D03*
X3700000Y47850000D03*
X-2100000Y52050000D03*
X1300000Y54350000D03*
X2900000Y47350000D03*
X-500000Y54050000D03*
X2900000Y45350000D03*
X1300000Y55350000D03*
X3700000Y54850000D03*
X2900000Y51350000D03*
X500000Y54850000D03*
X500000Y53850000D03*
X-2100000Y53050000D03*
X2100000Y51850000D03*
X2100000Y52850000D03*
X1300000Y48350000D03*
X-1300000Y52550000D03*
X2100000Y54850000D03*
X1300000Y50350000D03*
X2900000Y55350000D03*
X2100000Y50850000D03*
X-500000Y53050000D03*
X3700000Y53850000D03*
X2100000Y53850000D03*
X1300000Y52350000D03*
X1300000Y45350000D03*
D52*
%TO.N,/GL*%
X-44100001Y77599999D03*
%TO.N,/GW*%
X-49350000Y78000000D03*
D54*
%TO.N,/CHG*%
X-300000Y70750000D03*
D52*
X-9000000Y75350000D03*
X-3900000Y58550000D03*
X-8700001Y58350001D03*
%TO.N,GND*%
X-52700000Y72650000D03*
X-59100000Y84150000D03*
X-26800000Y66450002D03*
D51*
X-9100000Y49150000D03*
X-11100000Y52150000D03*
D52*
X-17600000Y49550000D03*
D51*
X-35200000Y73750000D03*
X-10100000Y49150000D03*
D52*
X-47116000Y72750000D03*
X-44850000Y85650000D03*
D51*
X-12100000Y49150000D03*
X-27200000Y58650000D03*
X-13100000Y49150000D03*
X-11600000Y48350000D03*
D52*
X-18620494Y45354006D03*
X-19400000Y57450000D03*
D53*
X-39650000Y62450000D03*
D52*
X-55000000Y64650000D03*
D51*
X-11100000Y49150000D03*
X-9600000Y48350000D03*
X-13100000Y50150000D03*
D53*
X-37550000Y64100000D03*
D52*
X-16100000Y75350000D03*
X-14900000Y71200000D03*
D51*
X-10600000Y49950000D03*
X-13100000Y52150000D03*
X-12100000Y51150000D03*
X-12100000Y50150000D03*
D52*
X-26200000Y53750000D03*
D51*
X-10000000Y52150000D03*
X-10600000Y48350000D03*
D52*
X-26800000Y66450000D03*
D51*
X-13100000Y51150000D03*
X-37200000Y60525000D03*
X-46600000Y64850000D03*
X-9000000Y52150000D03*
X-9600000Y49950000D03*
X-12100000Y52150000D03*
X-49700000Y88150000D03*
%TO.N,Net-(C18-Pad1)*%
X-31400000Y73550500D03*
X-33850000Y71500000D03*
%TO.N,Net-(D10-A)*%
X-35400000Y63950000D03*
%TO.N,/MCU_IGOUT*%
X-31472067Y57350500D03*
D53*
%TO.N,/VPP*%
X-48541592Y80882430D03*
X-53150000Y75800000D03*
D51*
X-46394086Y63305414D03*
D53*
X-44450000Y58500000D03*
D51*
X-45100000Y61250000D03*
%TO.N,/PGC*%
X-28900000Y70750000D03*
%TO.N,/PGD*%
X-29600000Y71750000D03*
X-30400000Y65250000D03*
D53*
%TO.N,/MCU_TPSIN*%
X-40899999Y59399999D03*
%TO.N,/Y*%
X-49100000Y81600000D03*
X-54300000Y76400000D03*
D51*
%TO.N,/MCU_PU2DISABLE*%
X-30600000Y56650000D03*
%TO.N,Net-(IC1-RC7)*%
X-40250000Y49050000D03*
%TO.N,Net-(IC1-RB6)*%
X-30000000Y49250000D03*
%TO.N,Net-(IC1-RB5)*%
X-23500000Y47130000D03*
%TO.N,Net-(IC1-RC3)*%
X-50700000Y49400000D03*
%TO.N,/MCU_PU1IN*%
X-37610155Y58260155D03*
X-32207533Y59149500D03*
X-30900000Y62050000D03*
D53*
%TO.N,/MCU_PU2IN*%
X-39300000Y63850000D03*
D51*
X-37400000Y59350000D03*
%TO.N,Net-(D14-K)*%
X-38850000Y71650000D03*
%TD*%
D55*
%TO.N,/WL*%
X-32400000Y80350000D02*
X-33300000Y79450000D01*
D56*
X-30900000Y79525000D02*
X-31575000Y79525000D01*
D55*
X-32400000Y80350000D02*
X-32400000Y78850000D01*
D56*
X-27750000Y81350000D02*
X-25600000Y83500000D01*
D55*
X-34020136Y79450000D02*
X-35951469Y77518667D01*
X-33300000Y79450000D02*
X-34020136Y79450000D01*
D56*
X-31575000Y79525000D02*
X-32400000Y80350000D01*
X-29075000Y81350000D02*
X-27750000Y81350000D01*
X-30900000Y79525000D02*
X-29075000Y81350000D01*
D55*
X-32400000Y78850000D02*
X-32200000Y78650000D01*
X-35951469Y77518667D02*
X-35951469Y77301887D01*
D57*
%TO.N,+12V*%
X-46650000Y79450000D02*
X-42950000Y79450000D01*
X-54250000Y81000000D02*
X-52360000Y82890000D01*
D56*
X-54800000Y81000000D02*
X-54250000Y81000000D01*
D57*
X-32700000Y72250000D02*
X-32700000Y75350000D01*
D56*
X-20210000Y61900000D02*
X-20850000Y61900000D01*
D57*
X-23285000Y65835000D02*
X-25300000Y67850000D01*
X-28300000Y67850000D02*
X-32700000Y72250000D01*
X-32700000Y75350000D02*
X-32100000Y75950000D01*
D56*
X-54800000Y79200000D02*
X-54650000Y79050000D01*
D57*
X-42950000Y79450000D02*
X-42700000Y79700000D01*
X-48750000Y79450000D02*
X-46650000Y79450000D01*
D56*
X-20850000Y61900000D02*
X-21985000Y63035000D01*
X-47000000Y78900000D02*
X-47000000Y79100000D01*
X-47000000Y79100000D02*
X-46650000Y79450000D01*
X-52360000Y82890000D02*
X-52360000Y83500000D01*
D57*
X-25300000Y67850000D02*
X-28300000Y67850000D01*
X-21985000Y65835000D02*
X-23285000Y65835000D01*
X-51000000Y81700000D02*
X-48750000Y79450000D01*
D56*
X-21985000Y64350000D02*
X-21985000Y65835000D01*
D57*
X-51170000Y81700000D02*
X-51000000Y81700000D01*
X-52360000Y82890000D02*
X-51170000Y81700000D01*
X-54800000Y81000000D02*
X-54800000Y79200000D01*
D56*
X-21985000Y63035000D02*
X-21985000Y64350000D01*
X-54650000Y79050000D02*
X-54400000Y79050000D01*
%TO.N,+5V*%
X-36190000Y43550000D02*
X-34950000Y44790000D01*
D58*
X-42700000Y74690000D02*
X-42060000Y74050000D01*
D56*
X-32760000Y43600000D02*
X-25800000Y43600000D01*
X-25800000Y43600000D02*
X-24050000Y41850000D01*
X-24600000Y44800000D02*
X-23600000Y44800000D01*
D59*
X-45690000Y58900000D02*
X-45690000Y60339998D01*
D56*
X-57410000Y61060000D02*
X-59500000Y63150000D01*
X-34950000Y44790000D02*
X-33950000Y44790000D01*
D58*
X-39400000Y78800499D02*
X-39400000Y79210660D01*
D56*
X-24050000Y41850000D02*
X-12425000Y41850000D01*
D59*
X-40100000Y60225000D02*
X-39775000Y60550000D01*
X-39775000Y60550000D02*
X-40750000Y60550000D01*
D56*
X-57360000Y56850000D02*
X-57410000Y56900000D01*
X-12425000Y41850000D02*
X-10900000Y43375000D01*
X-57410000Y56800000D02*
X-57410000Y55900000D01*
D58*
X-36069335Y79650000D02*
X-38160660Y79650000D01*
D56*
X-57410000Y56800000D02*
X-57410000Y56900000D01*
X-54700000Y44530000D02*
X-55750000Y44530000D01*
D58*
X-42700000Y76550000D02*
X-42700000Y76500000D01*
X-42700000Y78060660D02*
X-42700000Y76550000D01*
D56*
X-59500000Y63150000D02*
X-59500000Y74332380D01*
X-57410000Y55600000D02*
X-57410000Y45850553D01*
X-57410000Y45850553D02*
X-56089447Y44530000D01*
X-56089447Y44530000D02*
X-55750000Y44530000D01*
D59*
X-40750000Y60550000D02*
X-40775001Y60524999D01*
D58*
X-40230000Y74120000D02*
X-40230000Y73050000D01*
D59*
X-40100000Y58650000D02*
X-40100000Y60225000D01*
D56*
X-57260000Y55750000D02*
X-57410000Y55600000D01*
X-45550000Y44500000D02*
X-44560000Y44500000D01*
D58*
X-42700000Y76550000D02*
X-42700000Y74690000D01*
D59*
X-39510000Y59240000D02*
X-40100000Y58650000D01*
D56*
X-53720000Y43550000D02*
X-46500000Y43550000D01*
X-54700000Y44530000D02*
X-53720000Y43550000D01*
D55*
X-11620000Y43375000D02*
X-12645000Y44400000D01*
D59*
X-40775001Y60524999D02*
X-40875001Y60524999D01*
D56*
X-57410000Y55900000D02*
X-57260000Y55750000D01*
D58*
X-48600000Y60450000D02*
X-45800002Y60450000D01*
D56*
X-59400000Y81000000D02*
X-59400000Y79075000D01*
D58*
X-55250000Y68300000D02*
X-55250000Y67100000D01*
D56*
X-56710000Y56850000D02*
X-57360000Y56850000D01*
D58*
X-42455330Y78305330D02*
X-42700000Y78060660D01*
D56*
X-33950000Y44790000D02*
X-32760000Y43600000D01*
X-57410000Y56900000D02*
X-57410000Y61060000D01*
X-59517620Y78907380D02*
X-59517620Y74350000D01*
D58*
X-55250000Y67100000D02*
X-48600000Y60450000D01*
X-56310000Y57600000D02*
X-56310000Y57250000D01*
X-56310000Y55350000D02*
X-56860000Y55350000D01*
X-40100000Y74250000D02*
X-40230000Y74120000D01*
D56*
X-46500000Y43550000D02*
X-45550000Y44500000D01*
D58*
X-42700000Y76500000D02*
X-41850000Y75650000D01*
D59*
X-45690000Y60339998D02*
X-45800002Y60450000D01*
D58*
X-56860000Y55350000D02*
X-57260000Y55750000D01*
X-35000000Y62260000D02*
X-35000000Y62050000D01*
D59*
X-39610000Y58150000D02*
X-40100000Y58640000D01*
X-40100000Y58640000D02*
X-40100000Y58650000D01*
D58*
X-39010161Y78800499D02*
X-39400000Y78800499D01*
D56*
X-43590000Y43550000D02*
X-36190000Y43550000D01*
X-44550000Y44510000D02*
X-43590000Y43550000D01*
X-59500000Y74332380D02*
X-59517620Y74350000D01*
D58*
X-41110660Y79650000D02*
X-42455330Y78305330D01*
D55*
X-10900000Y43375000D02*
X-11620000Y43375000D01*
D58*
X-39839340Y79650000D02*
X-41110660Y79650000D01*
X-38160660Y79650000D02*
X-39010161Y78800499D01*
X-32219335Y83500000D02*
X-36069335Y79650000D01*
D56*
X-25800000Y43600000D02*
X-24600000Y44800000D01*
X-44560000Y44500000D02*
X-44550000Y44510000D01*
D58*
X-34410000Y62850000D02*
X-35000000Y62260000D01*
X-39400000Y79210660D02*
X-39839340Y79650000D01*
X-56310000Y57250000D02*
X-56710000Y56850000D01*
D56*
X-59375000Y79050000D02*
X-59517620Y78907380D01*
D60*
%TO.N,/CAP+*%
X-3400000Y48650000D02*
X-3400000Y53642500D01*
X-6300000Y76042500D02*
X-6300000Y56542500D01*
X-6300000Y56542500D02*
X-3550000Y53792500D01*
X-3550000Y78792500D02*
X-6300000Y76042500D01*
D58*
%TO.N,/BW*%
X-8480000Y80170000D02*
X-9100000Y80170000D01*
X-3400000Y80850000D02*
X-7800000Y80850000D01*
X-7800000Y80850000D02*
X-8480000Y80170000D01*
X-500000Y83750000D02*
X-3400000Y80850000D01*
D61*
%TO.N,/GL*%
X-45450000Y69587500D02*
X-45450000Y73100000D01*
X-45450000Y73100000D02*
X-44100000Y74450000D01*
X-44100000Y74450000D02*
X-44100001Y77599999D01*
X-43650000Y83550000D02*
X-46590000Y83550000D01*
%TO.N,/GW*%
X-41850000Y87550000D02*
X-46690000Y87550000D01*
X-51250000Y72487500D02*
X-51250000Y76100000D01*
X-51250000Y76100000D02*
X-49350000Y78000000D01*
D60*
%TO.N,/CHG*%
X-1575000Y60050000D02*
X-1575000Y61475000D01*
D58*
X-11080000Y75787500D02*
X-11080000Y77750000D01*
D62*
X-11700000Y75100000D02*
X-11700000Y68800000D01*
D56*
X-10300000Y58150000D02*
X-10300000Y56750000D01*
D60*
X-300000Y62750000D02*
X-300000Y70750000D01*
D56*
X-10300000Y60750000D02*
X-10300000Y58150000D01*
X-1575000Y59275000D02*
X-2300000Y58550000D01*
X-10300000Y58150000D02*
X-10100000Y58350000D01*
D60*
X-1575000Y61475000D02*
X-300000Y62750000D01*
D56*
X-10100000Y58350000D02*
X-8700001Y58350001D01*
X-1575000Y60050000D02*
X-1575000Y59275000D01*
X-2300000Y58550000D02*
X-3900000Y58550000D01*
D58*
X-11080000Y77750000D02*
X-10260000Y76930000D01*
X-10260000Y76930000D02*
X-9100000Y76930000D01*
D55*
%TO.N,Net-(IC3-OUT)*%
X-12581000Y46364000D02*
X-12645000Y46300000D01*
X-10050000Y46364000D02*
X-12581000Y46364000D01*
D58*
%TO.N,GND*%
X-36000000Y72450000D02*
X-35700000Y72150000D01*
D56*
X-45000000Y85500000D02*
X-44850000Y85650000D01*
X-46950000Y72584000D02*
X-47116000Y72750000D01*
X-32190000Y68350000D02*
X-31700000Y67860000D01*
D58*
X-35300000Y73850000D02*
X-35200000Y73750000D01*
D56*
X-57825000Y79050000D02*
X-58150000Y78725000D01*
X-20900000Y57900000D02*
X-21200000Y57600000D01*
D58*
X-33050000Y58250000D02*
X-30128026Y58250000D01*
D55*
X-29525000Y77975000D02*
X-27500000Y75950000D01*
D58*
X-30128026Y58250000D02*
X-29728026Y58650000D01*
D56*
X-56925000Y79775000D02*
X-56200000Y79050000D01*
X-57100000Y81000000D02*
X-57100000Y79775000D01*
X-57750000Y68300000D02*
X-57800000Y68250000D01*
D55*
X-14100000Y66660000D02*
X-14100000Y68700000D01*
X-13990000Y66550000D02*
X-14100000Y66660000D01*
X-13600000Y45350000D02*
X-13900000Y45650000D01*
D56*
X-31200000Y66350000D02*
X-26900002Y66350000D01*
X-52700000Y71200000D02*
X-52400000Y70900000D01*
X-20900000Y57900000D02*
X-19850000Y57900000D01*
D55*
X-11325000Y45350000D02*
X-13600000Y45350000D01*
D56*
X-57100000Y79775000D02*
X-57825000Y79050000D01*
X-52700000Y72650000D02*
X-52700000Y71200000D01*
D58*
X-35250000Y70500000D02*
X-35250000Y71700000D01*
D56*
X-15482500Y77750000D02*
X-14320000Y77750000D01*
D59*
X-49675000Y58025000D02*
X-49675000Y59325000D01*
D56*
X-11514000Y50936000D02*
X-10050000Y50936000D01*
X-19850000Y57900000D02*
X-19400000Y57450000D01*
D58*
X-36500000Y73850000D02*
X-35300000Y73850000D01*
D56*
X-38225000Y61025000D02*
X-38225000Y60550000D01*
X-51510000Y69300000D02*
X-52400000Y70190000D01*
D58*
X-36500000Y73850000D02*
X-36000000Y73350000D01*
D56*
X-27350000Y54460000D02*
X-26910000Y54460000D01*
X-57800000Y68250000D02*
X-57800000Y67450000D01*
X-16080000Y77350000D02*
X-15882500Y77350000D01*
D55*
X-15940000Y48360000D02*
X-15850000Y48450000D01*
X-12810000Y66550000D02*
X-13990000Y66550000D01*
D56*
X-18307224Y45354006D02*
X-17528218Y44575000D01*
X-16080000Y77350000D02*
X-16080000Y75370000D01*
X-18620494Y45354006D02*
X-18307224Y45354006D01*
D58*
X-33800000Y59000000D02*
X-35775000Y59000000D01*
D56*
X-47760000Y66650000D02*
X-49250000Y66650000D01*
D55*
X-17300000Y44575000D02*
X-16525000Y45350000D01*
D56*
X-42675000Y64750000D02*
X-46500000Y64750000D01*
X-14000000Y68800000D02*
X-14000000Y70300000D01*
D58*
X-29728026Y58650000D02*
X-27200000Y58650000D01*
D56*
X-26900002Y66350000D02*
X-26800000Y66450002D01*
X-50660000Y85500000D02*
X-45000000Y85500000D01*
X-55000000Y64650000D02*
X-49675000Y59325000D01*
X-39650000Y62450000D02*
X-38225000Y61025000D01*
X-29025000Y73950000D02*
X-29025000Y74425000D01*
D63*
X-37450000Y64200000D02*
X-37550000Y64100000D01*
D56*
X-42675000Y64750000D02*
X-42675000Y62500000D01*
X-57800000Y67450000D02*
X-55000000Y64650000D01*
X-46500000Y64750000D02*
X-46600000Y64850000D01*
X-15882500Y77350000D02*
X-15482500Y77750000D01*
D59*
X-41300000Y56875000D02*
X-37375000Y56875000D01*
D56*
X-52400000Y70190000D02*
X-52400000Y70900000D01*
X-21200000Y57600000D02*
X-22680000Y57600000D01*
D58*
X-33800000Y59000000D02*
X-33050000Y58250000D01*
D56*
X-37450000Y66500000D02*
X-37450000Y65300000D01*
X-17528218Y44575000D02*
X-17300000Y44575000D01*
X-38200000Y60525000D02*
X-37200000Y60525000D01*
D59*
X-48600000Y56950000D02*
X-49675000Y58025000D01*
D60*
X-10050000Y50936000D02*
X-10486000Y50936000D01*
D56*
X-17600000Y48360000D02*
X-17600000Y49550000D01*
X-16080000Y75370000D02*
X-16100000Y75350000D01*
X-46950000Y69500000D02*
X-46950000Y72584000D01*
X-22680000Y57600000D02*
X-22730000Y57650000D01*
X-58150000Y78725000D02*
X-58150000Y68700000D01*
D55*
X-10900000Y44925000D02*
X-11325000Y45350000D01*
D58*
X-35250000Y71700000D02*
X-35700000Y72150000D01*
D56*
X-58150000Y68700000D02*
X-57750000Y68300000D01*
X-52560000Y87400000D02*
X-50660000Y85500000D01*
D59*
X-41375000Y56950000D02*
X-48600000Y56950000D01*
D55*
X-13900000Y48350000D02*
X-13100000Y49150000D01*
X-13900000Y45650000D02*
X-13900000Y48350000D01*
D56*
X-51510000Y68910000D02*
X-51510000Y69300000D01*
X-49250000Y66650000D02*
X-51510000Y68910000D01*
X-13350000Y49100000D02*
X-11514000Y50936000D01*
X-14000000Y70300000D02*
X-14900000Y71200000D01*
D55*
X-17600000Y48360000D02*
X-15940000Y48360000D01*
D56*
X-42675000Y62500000D02*
X-42725000Y62450000D01*
X-29025000Y74425000D02*
X-27500000Y75950000D01*
D63*
X-37450000Y65300000D02*
X-37450000Y64200000D01*
D56*
X-49675000Y59325000D02*
X-48100000Y59325000D01*
X-31700000Y66850000D02*
X-31200000Y66350000D01*
X-42725000Y62450000D02*
X-39650000Y62450000D01*
X-26910000Y54460000D02*
X-26200000Y53750000D01*
X-31700000Y67860000D02*
X-31700000Y66850000D01*
X-26410000Y65112500D02*
X-26410000Y66060000D01*
D59*
X-35800000Y58450000D02*
X-35800000Y58975000D01*
D55*
X-16525000Y45350000D02*
X-15155000Y45350000D01*
D59*
X-37375000Y56875000D02*
X-35800000Y58450000D01*
D56*
X-26410000Y66060000D02*
X-26800000Y66450000D01*
D58*
X-36000000Y73350000D02*
X-36000000Y72450000D01*
D56*
X-37900000Y66950000D02*
X-37450000Y66500000D01*
X-57100000Y79775000D02*
X-56925000Y79775000D01*
D55*
X-30900000Y77975000D02*
X-29525000Y77975000D01*
D60*
%TO.N,/R*%
X-12500000Y83530000D02*
X-16080000Y79950000D01*
D55*
%TO.N,Net-(DZ2-A)*%
X-48200000Y69490000D02*
X-48390000Y69300000D01*
X-46050000Y76800000D02*
X-48200000Y74650000D01*
X-48390000Y68940000D02*
X-48390000Y69300000D01*
X-47450000Y68000000D02*
X-48390000Y68940000D01*
X-48200000Y74650000D02*
X-48200000Y69490000D01*
X-47020000Y68000000D02*
X-47450000Y68000000D01*
%TO.N,Net-(D9-A)*%
X-37525000Y78250000D02*
X-37525000Y76585000D01*
X-34109380Y80350000D02*
X-33800000Y80350000D01*
X-36209380Y78250000D02*
X-34109380Y80350000D01*
X-37525000Y76585000D02*
X-37490000Y76550000D01*
X-37525000Y78250000D02*
X-36209380Y78250000D01*
D58*
%TO.N,Net-(C1-Pad2)*%
X-38620000Y76440000D02*
X-38510000Y76550000D01*
D55*
X-38510000Y76341342D02*
X-38510000Y76550000D01*
X-38775000Y76550000D02*
X-40475000Y78250000D01*
D58*
X-38620000Y75250000D02*
X-38620000Y76440000D01*
D55*
X-40700000Y76560000D02*
X-40600000Y76460000D01*
X-40700000Y78025000D02*
X-40700000Y76560000D01*
X-38510000Y76550000D02*
X-38775000Y76550000D01*
%TO.N,Net-(D5-K)*%
X-34900000Y76725000D02*
X-34900000Y77350000D01*
X-36300000Y76260000D02*
X-35790000Y76260000D01*
X-35325000Y76725000D02*
X-34900000Y76725000D01*
X-34900000Y77350000D02*
X-33600000Y78650000D01*
X-35790000Y76260000D02*
X-35325000Y76725000D01*
D60*
%TO.N,Net-(D16-K)*%
X-19320000Y79950000D02*
X-19320000Y77350000D01*
X-19320000Y74330000D02*
X-20200000Y73450000D01*
X-19320000Y77350000D02*
X-19320000Y74330000D01*
D55*
%TO.N,Net-(Q1-G)*%
X-43950000Y69500000D02*
X-43950000Y68250000D01*
X-46000000Y68000000D02*
X-46000000Y67390000D01*
X-43950000Y68060000D02*
X-43740000Y67850000D01*
X-46000000Y68000000D02*
X-44200000Y68000000D01*
X-44200000Y68000000D02*
X-43950000Y68250000D01*
X-43950000Y68250000D02*
X-43950000Y68060000D01*
X-46000000Y67390000D02*
X-46740000Y66650000D01*
%TO.N,Net-(Q2-G)*%
X-49410000Y70890000D02*
X-49400000Y70900000D01*
X-50490000Y69300000D02*
X-49410000Y69300000D01*
X-49410000Y69300000D02*
X-49410000Y70890000D01*
%TO.N,Net-(D8-K)*%
X-19550000Y59300000D02*
X-16600000Y56350000D01*
X-21150000Y59550000D02*
X-20900000Y59300000D01*
X-20900000Y59300000D02*
X-19550000Y59300000D01*
X-16600000Y56350000D02*
X-16225000Y56350000D01*
X-22730000Y59550000D02*
X-21150000Y59550000D01*
%TO.N,Net-(C18-Pad1)*%
X-34900000Y75175000D02*
X-34900000Y74651375D01*
X-32190000Y69840000D02*
X-33850000Y71500000D01*
X-34900000Y75175000D02*
X-36235000Y75175000D01*
X-30575000Y73950000D02*
X-31000500Y73950000D01*
X-36235000Y75175000D02*
X-36300000Y75240000D01*
X-33850000Y73601375D02*
X-33850000Y71500000D01*
X-31000500Y73950000D02*
X-31400000Y73550500D01*
X-32190000Y69450000D02*
X-32190000Y69840000D01*
X-34900000Y74651375D02*
X-33850000Y73601375D01*
%TO.N,Net-(D10-K)*%
X-17600000Y47340000D02*
X-17800000Y47340000D01*
X-15150000Y48450000D02*
X-15150000Y46305000D01*
X-18800000Y48340000D02*
X-18800000Y52250000D01*
X-17800000Y47340000D02*
X-18800000Y48340000D01*
X-22600000Y53450000D02*
X-23250000Y54100000D01*
X-17300000Y46125000D02*
X-17300000Y47040000D01*
X-20000000Y53450000D02*
X-22600000Y53450000D01*
X-23250000Y54100000D02*
X-23250000Y55600000D01*
X-17300000Y47040000D02*
X-17600000Y47340000D01*
X-18800000Y52250000D02*
X-20000000Y53450000D01*
X-15155000Y46300000D02*
X-17450000Y46300000D01*
%TO.N,Net-(D10-A)*%
X-33390000Y62740000D02*
X-33350000Y62700000D01*
X-24850000Y58600000D02*
X-24850000Y58800000D01*
X-33350000Y63200000D02*
X-34400000Y64250000D01*
X-33390000Y62850000D02*
X-33390000Y62740000D01*
X-24850000Y58600000D02*
X-24500000Y58250000D01*
D58*
X-35400000Y63950000D02*
X-34700000Y63950000D01*
D55*
X-27200000Y61150000D02*
X-31800000Y61150000D01*
X-33350000Y62700000D02*
X-33350000Y63200000D01*
X-31800000Y61150000D02*
X-33350000Y62700000D01*
X-24500000Y58250000D02*
X-24500000Y55750000D01*
X-36200000Y66050000D02*
X-36200000Y68400000D01*
D58*
X-34700000Y63950000D02*
X-34400000Y64250000D01*
D55*
X-34400000Y64250000D02*
X-36200000Y66050000D01*
X-24500000Y55750000D02*
X-24650000Y55600000D01*
X-24850000Y58800000D02*
X-27200000Y61150000D01*
D59*
%TO.N,/MCU_IGOUT*%
X-29660000Y57500000D02*
X-31322567Y57500000D01*
X-31322567Y57500000D02*
X-31472067Y57350500D01*
%TO.N,Net-(C4-Pad1)*%
X-46710000Y57700000D02*
X-48025000Y57700000D01*
X-46710000Y58900000D02*
X-46710000Y57700000D01*
D58*
%TO.N,/VPP*%
X-36167570Y80882430D02*
X-48541592Y80882430D01*
D63*
X-52849998Y69350000D02*
X-54700000Y71200002D01*
D58*
X-46394086Y63305414D02*
X-47505414Y63305414D01*
X-52849998Y68649998D02*
X-52849998Y69350000D01*
D63*
X-54700000Y71200002D02*
X-54700000Y74250000D01*
D59*
X-44750000Y58500000D02*
X-44450000Y58500000D01*
D58*
X-47505414Y63305414D02*
X-52849998Y68649998D01*
X-34649501Y83650499D02*
X-34649501Y82400499D01*
D59*
X-45550000Y57700000D02*
X-44750000Y58500000D01*
D58*
X-30800000Y87500000D02*
X-34649501Y83650499D01*
X-34649501Y82400499D02*
X-36167570Y80882430D01*
D59*
X-45690000Y57700000D02*
X-45550000Y57700000D01*
D58*
X-45100000Y61250000D02*
X-44450000Y60600000D01*
X-44450000Y60600000D02*
X-44450000Y58500000D01*
D63*
X-54700000Y74250000D02*
X-53150000Y75800000D01*
D55*
%TO.N,/PGC*%
X-17500000Y81450000D02*
X-20400000Y81450000D01*
X-7750000Y85550000D02*
X-15585157Y85550000D01*
X-16800000Y84335157D02*
X-16800000Y82150000D01*
X-24300000Y75350000D02*
X-28900000Y70750000D01*
X-20400000Y81450000D02*
X-24300000Y77550000D01*
X-5800000Y87500000D02*
X-7750000Y85550000D01*
X-15585157Y85550000D02*
X-16800000Y84335157D01*
X-24300000Y77550000D02*
X-24300000Y75350000D01*
X-16800000Y82150000D02*
X-17500000Y81450000D01*
%TO.N,/PGD*%
X-19450000Y87500000D02*
X-22500000Y84450000D01*
X-28447500Y65250000D02*
X-30400000Y65250000D01*
X-17800000Y87500000D02*
X-19450000Y87500000D01*
X-22500000Y82450000D02*
X-25200000Y79750000D01*
X-26410000Y63212500D02*
X-28447500Y65250000D01*
X-25200000Y76150000D02*
X-29600000Y71750000D01*
X-25200000Y79750000D02*
X-25200000Y76150000D01*
X-22500000Y84450000D02*
X-22500000Y82450000D01*
D59*
%TO.N,/MCU_TPSIN*%
X-41300000Y58425000D02*
X-42725000Y58425000D01*
D63*
X-41300000Y58425000D02*
X-40900000Y58825000D01*
X-40900000Y58825000D02*
X-40899999Y59399999D01*
D55*
%TO.N,/Y*%
X-43299750Y60875000D02*
X-42750000Y60875000D01*
X-39850000Y84357969D02*
X-39850000Y84050000D01*
D63*
X-55600000Y71050000D02*
X-55600000Y75100000D01*
X-55600000Y75100000D02*
X-54300000Y76400000D01*
X-49000000Y81700000D02*
X-49100000Y81600000D01*
D55*
X-39850000Y84050000D02*
X-42200000Y81700000D01*
X-47712625Y62262625D02*
X-44687375Y62262625D01*
D63*
X-53900000Y69350000D02*
X-55600000Y71050000D01*
D55*
X-42750000Y60875000D02*
X-42750000Y59470000D01*
X-36707969Y87500000D02*
X-39850000Y84357969D01*
D63*
X-53900000Y68450000D02*
X-53900000Y69350000D01*
X-42200000Y81700000D02*
X-49000000Y81700000D01*
D55*
X-53900000Y68450000D02*
X-47712625Y62262625D01*
X-44687375Y62262625D02*
X-43299750Y60875000D01*
%TO.N,Net-(TR12-G)*%
X-19800000Y60900000D02*
X-19190000Y61510000D01*
X-19190000Y61900000D02*
X-19050000Y61900000D01*
X-19050000Y61900000D02*
X-17415000Y63535000D01*
X-22390000Y61900000D02*
X-21390000Y60900000D01*
X-19190000Y61510000D02*
X-19190000Y61900000D01*
X-21390000Y60900000D02*
X-19800000Y60900000D01*
D59*
%TO.N,/MCU_PU2DISABLE*%
X-29250000Y55300000D02*
X-29250000Y54460000D01*
X-30600000Y56650000D02*
X-29250000Y55300000D01*
D55*
%TO.N,Net-(IC1-RC7)*%
X-41970000Y45870000D02*
X-44500000Y45870000D01*
X-41600000Y45500000D02*
X-41970000Y45870000D01*
D59*
X-41600000Y47700000D02*
X-41600000Y45500000D01*
X-40250000Y49050000D02*
X-41600000Y47700000D01*
D55*
%TO.N,Net-(IC1-RB7)*%
X-34950000Y45810000D02*
X-34950000Y47030000D01*
X-34950000Y47030000D02*
X-31350000Y50630000D01*
D59*
%TO.N,Net-(IC1-RB6)*%
X-31350000Y47900000D02*
X-31350000Y45550000D01*
D55*
X-31610000Y45810000D02*
X-33950000Y45810000D01*
D59*
X-30000000Y49250000D02*
X-31350000Y47900000D01*
D55*
%TO.N,Net-(IC1-RB5)*%
X-21100000Y49530000D02*
X-23500000Y47130000D01*
X-24600000Y46030000D02*
X-23500000Y47130000D01*
X-21100000Y50630000D02*
X-21100000Y49530000D01*
X-24600000Y45820000D02*
X-24600000Y46030000D01*
%TO.N,Net-(IC1-RB4)*%
X-23600000Y45820000D02*
X-21370000Y45820000D01*
%TO.N,Net-(IC1-RC4)*%
X-55750000Y46680000D02*
X-51800000Y50630000D01*
X-55750000Y45550000D02*
X-55750000Y46680000D01*
D59*
%TO.N,Net-(IC1-RC3)*%
X-50700000Y49400000D02*
X-51800000Y48300000D01*
D55*
X-54700000Y45550000D02*
X-51800000Y45550000D01*
D59*
X-51800000Y48300000D02*
X-51800000Y45550000D01*
D55*
%TO.N,Net-(IC1-RC6)*%
X-45500000Y45860000D02*
X-45500000Y46680000D01*
X-45500000Y46680000D02*
X-41600000Y50580000D01*
D58*
%TO.N,/PWJ_SEL*%
X-55290000Y55350000D02*
X-51870000Y55350000D01*
%TO.N,/REV_LIMIT_SEL*%
X-52160000Y57600000D02*
X-51790000Y57970000D01*
X-55290000Y57600000D02*
X-52160000Y57600000D01*
D55*
%TO.N,/MCU_PU1IN*%
X-38590000Y58150000D02*
X-37720310Y58150000D01*
D58*
X-32399500Y59149500D02*
X-32207533Y59149500D01*
D59*
X-31000000Y62150000D02*
X-30900000Y62050000D01*
X-32650000Y63900000D02*
X-31000000Y62250000D01*
D58*
X-33800000Y60550000D02*
X-32399500Y59149500D01*
D59*
X-32650000Y64750000D02*
X-32650000Y63900000D01*
X-31000000Y62250000D02*
X-31000000Y62150000D01*
D55*
X-37720310Y58150000D02*
X-37610155Y58260155D01*
D59*
%TO.N,/MCU_PU2IN*%
X-38490000Y59250000D02*
X-37500000Y59250000D01*
X-37100000Y63200000D02*
X-36725000Y62825000D01*
D58*
X-36725000Y62075000D02*
X-36725000Y62825000D01*
X-35800000Y61150000D02*
X-36725000Y62075000D01*
D59*
X-38400000Y63200000D02*
X-37100000Y63200000D01*
X-35800000Y60525000D02*
X-36975000Y59350000D01*
D58*
X-35800000Y60525000D02*
X-35800000Y61150000D01*
D59*
X-37500000Y59250000D02*
X-37400000Y59350000D01*
X-36975000Y59350000D02*
X-37400000Y59350000D01*
D63*
X-38400000Y63200000D02*
X-38650000Y63200000D01*
X-38650000Y63200000D02*
X-39300000Y63850000D01*
D58*
%TO.N,Net-(D13-K)*%
X-41040000Y73621974D02*
X-41030000Y73611974D01*
X-41030000Y73611974D02*
X-41030000Y68680000D01*
D55*
X-39350000Y66900000D02*
X-39350000Y65300000D01*
D58*
X-39900000Y64750000D02*
X-39350000Y65300000D01*
X-41040000Y75000000D02*
X-40600000Y75440000D01*
X-41040000Y74050000D02*
X-41040000Y73621974D01*
X-41040000Y74050000D02*
X-41040000Y75000000D01*
X-41125000Y64750000D02*
X-39900000Y64750000D01*
X-41030000Y68680000D02*
X-39300000Y66950000D01*
%TO.N,Net-(D14-K)*%
X-39240000Y72040000D02*
X-38850000Y71650000D01*
X-39240000Y73050000D02*
X-39240000Y72040000D01*
X-39240000Y73050000D02*
X-38850000Y73050000D01*
X-38050000Y73100000D02*
X-37100000Y72150000D01*
X-38050000Y73850000D02*
X-37600000Y74300000D01*
X-37100000Y70550000D02*
X-37150000Y70500000D01*
X-37100000Y72150000D02*
X-37100000Y70550000D01*
X-38050000Y73850000D02*
X-38050000Y73100000D01*
X-37600000Y74300000D02*
X-37600000Y75250000D01*
X-38850000Y73050000D02*
X-38050000Y73850000D01*
D55*
%TO.N,Net-(IC3-EN)*%
X-15155000Y44400000D02*
X-15880000Y43675000D01*
X-19750000Y51350000D02*
X-20900000Y52500000D01*
X-20900000Y52500000D02*
X-28140000Y52500000D01*
X-18475000Y43675000D02*
X-19750000Y44950000D01*
X-28140000Y52500000D02*
X-28300000Y52340000D01*
X-15880000Y43675000D02*
X-18475000Y43675000D01*
X-19750000Y44950000D02*
X-19750000Y51350000D01*
%TO.N,Net-(D15-A)*%
X-10700000Y64150000D02*
X-10900000Y64350000D01*
X-10900000Y64350000D02*
X-10900000Y66550000D01*
X-11790000Y66550000D02*
X-10900000Y66550000D01*
X-10900000Y66550000D02*
X-9400000Y68050000D01*
%TO.N,Net-(TR1-C)*%
X-24290000Y62780000D02*
X-23410000Y61900000D01*
X-24290000Y64162500D02*
X-24290000Y62780000D01*
%TO.N,Net-(D15-K)*%
X-12900000Y64150000D02*
X-14100000Y64150000D01*
X-14100000Y64150000D02*
X-14100000Y65640000D01*
X-14100000Y62475000D02*
X-14100000Y64150000D01*
X-16225000Y60350000D02*
X-14100000Y62475000D01*
%TO.N,Net-(TR3-B)*%
X-33210000Y68350000D02*
X-33600000Y67960000D01*
X-33210000Y69450000D02*
X-33210000Y68350000D01*
X-33600000Y67960000D02*
X-33600000Y66850000D01*
D59*
%TO.N,Net-(D7-A)*%
X-25000000Y54100000D02*
X-28400000Y57500000D01*
X-24650000Y54100000D02*
X-25000000Y54100000D01*
X-28400000Y57500000D02*
X-28640000Y57500000D01*
%TD*%
%TA.AperFunction,Conductor*%
%TO.N,/CHG*%
G36*
X-8978832Y78930315D02*
G01*
X-8965173Y78920148D01*
X-8343302Y78387116D01*
X-8305212Y78328542D01*
X-8300000Y78292968D01*
X-8300000Y74801362D01*
X-8319685Y74734323D01*
X-8336319Y74713681D01*
X-9063681Y73986319D01*
X-9125004Y73952834D01*
X-9151362Y73950000D01*
X-11165655Y73950000D01*
X-11229451Y73967671D01*
X-12139798Y74513879D01*
X-12187156Y74565250D01*
X-12200000Y74620208D01*
X-12200000Y78198639D01*
X-12180315Y78265678D01*
X-12163686Y78286315D01*
X-11536319Y78913682D01*
X-11474996Y78947166D01*
X-11448638Y78950000D01*
X-9045871Y78950000D01*
X-8978832Y78930315D01*
G37*
%TD.AperFunction*%
%TD*%
%TA.AperFunction,Conductor*%
%TO.N,GND*%
G36*
X-48684323Y88730315D02*
G01*
X-48663681Y88713681D01*
X-48236319Y88286319D01*
X-48202834Y88224996D01*
X-48200000Y88198638D01*
X-48200000Y85873024D01*
X-48208265Y85828511D01*
X-48669428Y84629487D01*
X-48711866Y84573982D01*
X-48777576Y84550232D01*
X-48785163Y84550000D01*
X-53200000Y84550000D01*
X-53253823Y84496178D01*
X-53361469Y84388533D01*
X-53374838Y84376949D01*
X-53467547Y84307547D01*
X-53536949Y84214838D01*
X-53548533Y84201470D01*
X-53700000Y84050001D01*
X-53700000Y83157706D01*
X-53719685Y83090667D01*
X-53736319Y83070025D01*
X-54394525Y82411819D01*
X-54455848Y82378334D01*
X-54482206Y82375500D01*
X-55319561Y82375500D01*
X-55319580Y82375500D01*
X-55322872Y82375499D01*
X-55326152Y82375147D01*
X-55326160Y82375146D01*
X-55382486Y82369091D01*
X-55412709Y82357818D01*
X-55456041Y82350000D01*
X-55900000Y82350000D01*
X-56000000Y82250000D01*
X-55812685Y82093904D01*
X-55773787Y82035866D01*
X-55768779Y81985393D01*
X-55775146Y81926170D01*
X-55775500Y81922873D01*
X-55775500Y81919551D01*
X-55775500Y81548239D01*
X-55784382Y81502153D01*
X-55860726Y81311455D01*
X-55900500Y81105087D01*
X-55900500Y81105085D01*
X-55900500Y79147575D01*
X-55900220Y79144646D01*
X-55900219Y79144620D01*
X-55885529Y78990785D01*
X-55826316Y78789125D01*
X-55746388Y78634083D01*
X-55732610Y78576083D01*
X-55749518Y76800670D01*
X-55769840Y76733821D01*
X-55785831Y76714170D01*
X-56363681Y76136319D01*
X-56425004Y76102834D01*
X-56451362Y76100000D01*
X-57633637Y76100000D01*
X-57700676Y76119685D01*
X-57736811Y76155217D01*
X-58278802Y76968203D01*
X-58299610Y77034902D01*
X-58299622Y77038214D01*
X-58250096Y82040364D01*
X-58248416Y82059505D01*
X-58200000Y82350000D01*
X-58743959Y82350000D01*
X-58787292Y82357818D01*
X-58817516Y82369091D01*
X-58873834Y82375146D01*
X-58873835Y82375147D01*
X-58877127Y82375500D01*
X-58880449Y82375500D01*
X-59574138Y82375500D01*
X-59641177Y82395185D01*
X-59661819Y82411819D01*
X-60463681Y83213682D01*
X-60497166Y83275005D01*
X-60500000Y83301363D01*
X-60500000Y87293732D01*
X-60480315Y87360771D01*
X-60457655Y87387052D01*
X-58941507Y88713681D01*
X-58935063Y88719321D01*
X-58871648Y88748651D01*
X-58853408Y88750000D01*
X-48751362Y88750000D01*
X-48684323Y88730315D01*
G37*
%TD.AperFunction*%
%TD*%
%TA.AperFunction,Conductor*%
%TO.N,/CAP+*%
G36*
X3707441Y56030315D02*
G01*
X3737230Y56003462D01*
X4472828Y55083964D01*
X4499336Y55019320D01*
X4500000Y55006504D01*
X4500000Y46386419D01*
X4480315Y46319380D01*
X4480306Y46319365D01*
X3636608Y45006946D01*
X3583798Y44961198D01*
X3532302Y44950000D01*
X-6023364Y44950000D01*
X-6090403Y44969685D01*
X-6134273Y45018546D01*
X-6586909Y45923818D01*
X-6600000Y45979272D01*
X-6600000Y55190403D01*
X-6580315Y55257442D01*
X-6553464Y55287229D01*
X-5633966Y56022828D01*
X-5569319Y56049336D01*
X-5556503Y56050000D01*
X3640402Y56050000D01*
X3707441Y56030315D01*
G37*
%TD.AperFunction*%
%TD*%
%TA.AperFunction,Conductor*%
%TO.N,GND*%
G36*
X-9189993Y52830315D02*
G01*
X-9162884Y52806698D01*
X-8629852Y52184827D01*
X-8601169Y52121117D01*
X-8600000Y52104130D01*
X-8600000Y48809598D01*
X-8619685Y48742559D01*
X-8646538Y48712770D01*
X-9566035Y47977172D01*
X-9630681Y47950664D01*
X-9643497Y47950000D01*
X-13523364Y47950000D01*
X-13590403Y47969685D01*
X-13634273Y48018546D01*
X-13786909Y48323818D01*
X-13800000Y48379272D01*
X-13800000Y52205107D01*
X-13780315Y52272146D01*
X-13771264Y52284484D01*
X-13337181Y52805384D01*
X-13279142Y52844282D01*
X-13241922Y52850000D01*
X-9257032Y52850000D01*
X-9189993Y52830315D01*
G37*
%TD.AperFunction*%
%TD*%
M02*
