M48
; DRILL file {KiCad 7.0.2} date Thu Dec  5 18:12:45 2024
; FORMAT={-:-/ absolute / inch / decimal}
; #@! TF.CreationDate,2024-12-05T18:12:45+09:00
; #@! TF.GenerationSoftware,Kicad,Pcbnew,7.0.2
; #@! TF.FileFunction,Plated,1,2,PTH
FMAT,2
INCH
; #@! TA.AperFunction,Plated,PTH,ViaDrill
T1C0.0118
; #@! TA.AperFunction,Plated,PTH,ViaDrill
T2C0.0157
; #@! TA.AperFunction,Plated,PTH,ViaDrill
T3C0.0236
; #@! TA.AperFunction,Plated,PTH,ComponentDrill
T4C0.0300
; #@! TA.AperFunction,Plated,PTH,ViaDrill
T5C0.0315
; #@! TA.AperFunction,Plated,PTH,ComponentDrill
T6C0.0315
; #@! TA.AperFunction,Plated,PTH,ViaDrill
T7C0.0394
; #@! TA.AperFunction,Plated,PTH,ComponentDrill
T8C0.0394
%
G90
G05
T1
X-1.8031Y2.3799
X-1.75Y2.3031
X-0.0827Y2.1673
X-0.0827Y2.0886
X-0.0827Y2.0492
X-0.0512Y2.187
X-0.0512Y2.1476
X-0.0512Y2.1083
X-0.0512Y2.0689
X-0.0197Y2.1673
X-0.0197Y2.128
X-0.0197Y2.0886
X-0.0197Y2.0492
X0.0197Y2.1594
X0.0197Y2.1201
X0.0197Y2.0807
X0.0197Y2.0413
X0.0197Y2.002
X0.0197Y1.9626
X0.0197Y1.9232
X0.0197Y1.8839
X0.0197Y1.8445
X0.0197Y1.8051
X0.0512Y2.1791
X0.0512Y2.1398
X0.0512Y2.1004
X0.0512Y2.061
X0.0512Y2.0217
X0.0512Y1.9823
X0.0512Y1.9429
X0.0512Y1.9035
X0.0512Y1.8642
X0.0512Y1.8248
X0.0512Y1.7854
X0.0827Y2.1594
X0.0827Y2.1201
X0.0827Y2.0807
X0.0827Y2.0413
X0.0827Y2.002
X0.0827Y1.9626
X0.0827Y1.9232
X0.0827Y1.8839
X0.0827Y1.8445
X0.0827Y1.8051
X0.1142Y2.1791
X0.1142Y2.1398
X0.1142Y2.1004
X0.1142Y2.061
X0.1142Y2.0217
X0.1142Y1.9823
X0.1142Y1.9429
X0.1142Y1.9035
X0.1142Y1.8642
X0.1142Y1.8248
X0.1142Y1.7854
X0.1457Y2.1594
X0.1457Y2.1201
X0.1457Y2.0807
X0.1457Y2.0413
X0.1457Y2.002
X0.1457Y1.9626
X0.1457Y1.9232
X0.1457Y1.8839
X0.1457Y1.8445
X0.1457Y1.8051
T2
X-2.1378Y3.0079
X-2.0925Y2.9843
X-1.9961Y1.9449
X-1.9567Y3.4705
X-1.9331Y3.2126
X-1.9111Y3.1843
X-1.8346Y2.5531
X-1.8265Y2.4923
X-1.7756Y2.4114
X-1.6476Y2.9783
X-1.6102Y2.3386
X-1.6093Y2.3829
X-1.5846Y1.9311
X-1.5787Y2.9232
X-1.561Y2.4587
X-1.5472Y2.5138
X-1.5295Y2.8209
X-1.4807Y2.2937
X-1.4783Y2.5236
X-1.4724Y2.3366
X-1.4646Y2.3829
X-1.4154Y3.0434
X-1.3937Y2.5177
X-1.3858Y2.9035
X-1.378Y2.4429
X-1.3327Y2.815
X-1.268Y2.3287
X-1.2391Y2.2579
X-1.2362Y2.8957
X-1.2165Y2.4429
X-1.2047Y2.2303
X-1.1969Y2.5689
X-1.1811Y1.939
X-1.1654Y2.8248
X-1.1378Y2.7854
X-1.0709Y2.3091
X-0.9252Y1.8555
X-0.5157Y2.0531
X-0.5157Y2.0138
X-0.5157Y1.9744
X-0.5157Y1.935
X-0.4764Y2.0531
X-0.4764Y2.0138
X-0.4764Y1.9744
X-0.4764Y1.935
X-0.4567Y1.9035
X-0.437Y2.0531
X-0.437Y1.935
X-0.4173Y1.9665
X-0.4173Y1.9035
X-0.3976Y1.935
X-0.3937Y2.0531
X-0.378Y1.9665
X-0.378Y1.9035
X-0.3583Y1.935
X-0.3543Y2.0531
T3
X-2.3268Y3.313
X-2.2602Y2.4039
X-2.1654Y2.5453
X-2.0748Y2.8602
X-1.855Y2.8642
X-1.7657Y3.372
X-1.6811Y3.1378
X-1.0551Y2.6161
X-1.0551Y2.6161
X-1.0315Y2.1161
X-0.7638Y2.2618
X-0.7331Y1.7856
X-0.6929Y1.9508
X-0.6339Y2.9665
X-0.5866Y2.8031
X-0.3543Y2.9665
X-0.3425Y2.2972
X-0.1535Y2.3051
T4
X-2.3394Y1.9933
X-2.3394Y1.8933
X-2.3394Y1.7933
X-2.339Y2.2823
X-2.339Y2.1823
X-2.0394Y1.9933
X-2.0394Y1.7933
X-2.039Y2.2823
X-2.039Y2.1823
X-1.9378Y1.9913
X-1.9378Y1.8913
X-1.9378Y1.7913
X-1.6378Y1.9913
X-1.6378Y1.7913
X-1.5343Y1.9933
X-1.5343Y1.8933
X-1.5343Y1.7933
X-1.2343Y1.9933
X-1.2343Y1.7933
X-1.1307Y1.9933
X-1.1307Y1.8933
X-1.1307Y1.7933
X-0.8307Y1.9933
X-0.8307Y1.7933
T5
X-1.9429Y3.0709
X-1.7362Y3.0551
T6
X-2.2736Y2.689
X-2.1752Y2.689
T7
X-0.0118Y2.7854
T8
X-1.2795Y2.9902
X-1.0827Y2.9902
X-0.1378Y3.0965
X-0.1378Y2.7028
X-0.1299Y2.5138
X-0.1299Y2.1201
T6
G00X-1.6929Y3.2874
M15
G01X-1.7402Y3.2874
M16
G05
G00X-1.622Y3.4449
M15
G01X-1.6693Y3.4449
M16
G05
G00X-1.4567Y3.2874
M15
G01X-1.5039Y3.2874
M16
G05
G00X-1.3858Y3.4449
M15
G01X-1.4331Y3.4449
M16
G05
G00X-1.2205Y3.2874
M15
G01X-1.2677Y3.2874
M16
G05
G00X-1.1496Y3.4449
M15
G01X-1.1969Y3.4449
M16
G05
G00X-0.9843Y3.2874
M15
G01X-1.0315Y3.2874
M16
G05
G00X-0.9134Y3.4449
M15
G01X-0.9606Y3.4449
M16
G05
G00X-0.748Y3.2874
M15
G01X-0.7953Y3.2874
M16
G05
G00X-0.6772Y3.4449
M15
G01X-0.7244Y3.4449
M16
G05
G00X-0.5118Y3.2874
M15
G01X-0.5591Y3.2874
M16
G05
G00X-0.4409Y3.4449
M15
G01X-0.4882Y3.4449
M16
G05
G00X-0.2756Y3.2874
M15
G01X-0.3228Y3.2874
M16
G05
G00X-0.2047Y3.4449
M15
G01X-0.252Y3.4449
M16
G05
G00X-0.0394Y3.2874
M15
G01X-0.0866Y3.2874
M16
G05
G00X0.0315Y3.4449
M15
G01X-0.0157Y3.4449
M16
G05
T0
M30
