%TF.GenerationSoftware,KiCad,Pcbnew,7.0.2*%
%TF.CreationDate,2024-12-05T18:12:44+09:00*%
%TF.ProjectId,YZ_CDI_PROT_V1,595a5f43-4449-45f5-9052-4f545f56312e,rev?*%
%TF.SameCoordinates,Original*%
%TF.FileFunction,Legend,Top*%
%TF.FilePolarity,Positive*%
%FSLAX46Y46*%
G04 Gerber Fmt 4.6, Leading zero omitted, Abs format (unit mm)*
G04 Created by KiCad (PCBNEW 7.0.2) date 2024-12-05 18:12:44*
%MOMM*%
%LPD*%
G01*
G04 APERTURE LIST*
G04 Aperture macros list*
%AMRoundRect*
0 Rectangle with rounded corners*
0 $1 Rounding radius*
0 $2 $3 $4 $5 $6 $7 $8 $9 X,Y pos of 4 corners*
0 Add a 4 corners polygon primitive as box body*
4,1,4,$2,$3,$4,$5,$6,$7,$8,$9,$2,$3,0*
0 Add four circle primitives for the rounded corners*
1,1,$1+$1,$2,$3*
1,1,$1+$1,$4,$5*
1,1,$1+$1,$6,$7*
1,1,$1+$1,$8,$9*
0 Add four rect primitives between the rounded corners*
20,1,$1+$1,$2,$3,$4,$5,0*
20,1,$1+$1,$4,$5,$6,$7,0*
20,1,$1+$1,$6,$7,$8,$9,0*
20,1,$1+$1,$8,$9,$2,$3,0*%
G04 Aperture macros list end*
%ADD10C,0.130000*%
%ADD11C,0.140000*%
%ADD12C,0.100000*%
%ADD13C,0.120000*%
%ADD14C,0.127000*%
%ADD15C,0.200000*%
%ADD16C,2.040000*%
%ADD17RoundRect,0.270000X-0.750000X-0.250000X0.750000X-0.250000X0.750000X0.250000X-0.750000X0.250000X0*%
%ADD18RoundRect,0.102000X0.960000X-0.585000X0.960000X0.585000X-0.960000X0.585000X-0.960000X-0.585000X0*%
%ADD19O,3.640000X2.240000*%
%ADD20RoundRect,0.020000X0.900000X-0.225000X0.900000X0.225000X-0.900000X0.225000X-0.900000X-0.225000X0*%
%ADD21C,1.564000*%
%ADD22RoundRect,0.270000X0.750000X0.250000X-0.750000X0.250000X-0.750000X-0.250000X0.750000X-0.250000X0*%
%ADD23RoundRect,0.020000X-1.000000X-1.000000X1.000000X-1.000000X1.000000X1.000000X-1.000000X1.000000X0*%
%ADD24RoundRect,0.270000X0.250000X-0.750000X0.250000X0.750000X-0.250000X0.750000X-0.250000X-0.750000X0*%
%ADD25RoundRect,0.020000X0.800000X0.800000X-0.800000X0.800000X-0.800000X-0.800000X0.800000X-0.800000X0*%
%ADD26C,1.640000*%
G04 APERTURE END LIST*
D10*
X-47247620Y37821715D02*
X-47209524Y37859810D01*
X-47209524Y37859810D02*
X-47133334Y37897905D01*
X-47133334Y37897905D02*
X-46942858Y37897905D01*
X-46942858Y37897905D02*
X-46866667Y37859810D01*
X-46866667Y37859810D02*
X-46828572Y37821715D01*
X-46828572Y37821715D02*
X-46790477Y37745524D01*
X-46790477Y37745524D02*
X-46790477Y37669334D01*
X-46790477Y37669334D02*
X-46828572Y37555048D01*
X-46828572Y37555048D02*
X-47285715Y37097905D01*
X-47285715Y37097905D02*
X-46790477Y37097905D01*
X-46295238Y37897905D02*
X-46219048Y37897905D01*
X-46219048Y37897905D02*
X-46142857Y37859810D01*
X-46142857Y37859810D02*
X-46104762Y37821715D01*
X-46104762Y37821715D02*
X-46066667Y37745524D01*
X-46066667Y37745524D02*
X-46028572Y37593143D01*
X-46028572Y37593143D02*
X-46028572Y37402667D01*
X-46028572Y37402667D02*
X-46066667Y37250286D01*
X-46066667Y37250286D02*
X-46104762Y37174096D01*
X-46104762Y37174096D02*
X-46142857Y37136000D01*
X-46142857Y37136000D02*
X-46219048Y37097905D01*
X-46219048Y37097905D02*
X-46295238Y37097905D01*
X-46295238Y37097905D02*
X-46371429Y37136000D01*
X-46371429Y37136000D02*
X-46409524Y37174096D01*
X-46409524Y37174096D02*
X-46447619Y37250286D01*
X-46447619Y37250286D02*
X-46485715Y37402667D01*
X-46485715Y37402667D02*
X-46485715Y37593143D01*
X-46485715Y37593143D02*
X-46447619Y37745524D01*
X-46447619Y37745524D02*
X-46409524Y37821715D01*
X-46409524Y37821715D02*
X-46371429Y37859810D01*
X-46371429Y37859810D02*
X-46295238Y37897905D01*
X-45723810Y37821715D02*
X-45685714Y37859810D01*
X-45685714Y37859810D02*
X-45609524Y37897905D01*
X-45609524Y37897905D02*
X-45419048Y37897905D01*
X-45419048Y37897905D02*
X-45342857Y37859810D01*
X-45342857Y37859810D02*
X-45304762Y37821715D01*
X-45304762Y37821715D02*
X-45266667Y37745524D01*
X-45266667Y37745524D02*
X-45266667Y37669334D01*
X-45266667Y37669334D02*
X-45304762Y37555048D01*
X-45304762Y37555048D02*
X-45761905Y37097905D01*
X-45761905Y37097905D02*
X-45266667Y37097905D01*
X-44580952Y37631239D02*
X-44580952Y37097905D01*
X-44771428Y37936000D02*
X-44961905Y37364572D01*
X-44961905Y37364572D02*
X-44466666Y37364572D01*
X-43590476Y37936000D02*
X-44276190Y36907429D01*
X-42904762Y37097905D02*
X-43361905Y37097905D01*
X-43133333Y37097905D02*
X-43133333Y37897905D01*
X-43133333Y37897905D02*
X-43209524Y37783620D01*
X-43209524Y37783620D02*
X-43285714Y37707429D01*
X-43285714Y37707429D02*
X-43361905Y37669334D01*
X-42142857Y37097905D02*
X-42600000Y37097905D01*
X-42371428Y37097905D02*
X-42371428Y37897905D01*
X-42371428Y37897905D02*
X-42447619Y37783620D01*
X-42447619Y37783620D02*
X-42523809Y37707429D01*
X-42523809Y37707429D02*
X-42600000Y37669334D01*
X-41228571Y37936000D02*
X-41914285Y36907429D01*
X-40542857Y37097905D02*
X-41000000Y37097905D01*
X-40771428Y37097905D02*
X-40771428Y37897905D01*
X-40771428Y37897905D02*
X-40847619Y37783620D01*
X-40847619Y37783620D02*
X-40923809Y37707429D01*
X-40923809Y37707429D02*
X-41000000Y37669334D01*
X-40047618Y37897905D02*
X-39971428Y37897905D01*
X-39971428Y37897905D02*
X-39895237Y37859810D01*
X-39895237Y37859810D02*
X-39857142Y37821715D01*
X-39857142Y37821715D02*
X-39819047Y37745524D01*
X-39819047Y37745524D02*
X-39780952Y37593143D01*
X-39780952Y37593143D02*
X-39780952Y37402667D01*
X-39780952Y37402667D02*
X-39819047Y37250286D01*
X-39819047Y37250286D02*
X-39857142Y37174096D01*
X-39857142Y37174096D02*
X-39895237Y37136000D01*
X-39895237Y37136000D02*
X-39971428Y37097905D01*
X-39971428Y37097905D02*
X-40047618Y37097905D01*
X-40047618Y37097905D02*
X-40123809Y37136000D01*
X-40123809Y37136000D02*
X-40161904Y37174096D01*
X-40161904Y37174096D02*
X-40199999Y37250286D01*
X-40199999Y37250286D02*
X-40238095Y37402667D01*
X-40238095Y37402667D02*
X-40238095Y37593143D01*
X-40238095Y37593143D02*
X-40199999Y37745524D01*
X-40199999Y37745524D02*
X-40161904Y37821715D01*
X-40161904Y37821715D02*
X-40123809Y37859810D01*
X-40123809Y37859810D02*
X-40047618Y37897905D01*
X-38676189Y37478858D02*
X-38676189Y37097905D01*
X-38942856Y37897905D02*
X-38676189Y37478858D01*
X-38676189Y37478858D02*
X-38409523Y37897905D01*
X-38219047Y37897905D02*
X-37685713Y37897905D01*
X-37685713Y37897905D02*
X-38219047Y37097905D01*
X-38219047Y37097905D02*
X-37685713Y37097905D01*
X-37571427Y37021715D02*
X-36961904Y37021715D01*
X-36314284Y37174096D02*
X-36352380Y37136000D01*
X-36352380Y37136000D02*
X-36466665Y37097905D01*
X-36466665Y37097905D02*
X-36542856Y37097905D01*
X-36542856Y37097905D02*
X-36657142Y37136000D01*
X-36657142Y37136000D02*
X-36733332Y37212191D01*
X-36733332Y37212191D02*
X-36771427Y37288381D01*
X-36771427Y37288381D02*
X-36809523Y37440762D01*
X-36809523Y37440762D02*
X-36809523Y37555048D01*
X-36809523Y37555048D02*
X-36771427Y37707429D01*
X-36771427Y37707429D02*
X-36733332Y37783620D01*
X-36733332Y37783620D02*
X-36657142Y37859810D01*
X-36657142Y37859810D02*
X-36542856Y37897905D01*
X-36542856Y37897905D02*
X-36466665Y37897905D01*
X-36466665Y37897905D02*
X-36352380Y37859810D01*
X-36352380Y37859810D02*
X-36314284Y37821715D01*
X-35971427Y37097905D02*
X-35971427Y37897905D01*
X-35971427Y37897905D02*
X-35780951Y37897905D01*
X-35780951Y37897905D02*
X-35666665Y37859810D01*
X-35666665Y37859810D02*
X-35590475Y37783620D01*
X-35590475Y37783620D02*
X-35552380Y37707429D01*
X-35552380Y37707429D02*
X-35514284Y37555048D01*
X-35514284Y37555048D02*
X-35514284Y37440762D01*
X-35514284Y37440762D02*
X-35552380Y37288381D01*
X-35552380Y37288381D02*
X-35590475Y37212191D01*
X-35590475Y37212191D02*
X-35666665Y37136000D01*
X-35666665Y37136000D02*
X-35780951Y37097905D01*
X-35780951Y37097905D02*
X-35971427Y37097905D01*
X-35171427Y37097905D02*
X-35171427Y37897905D01*
X-34180951Y37097905D02*
X-34180951Y37897905D01*
X-34180951Y37897905D02*
X-33876189Y37897905D01*
X-33876189Y37897905D02*
X-33799999Y37859810D01*
X-33799999Y37859810D02*
X-33761904Y37821715D01*
X-33761904Y37821715D02*
X-33723808Y37745524D01*
X-33723808Y37745524D02*
X-33723808Y37631239D01*
X-33723808Y37631239D02*
X-33761904Y37555048D01*
X-33761904Y37555048D02*
X-33799999Y37516953D01*
X-33799999Y37516953D02*
X-33876189Y37478858D01*
X-33876189Y37478858D02*
X-34180951Y37478858D01*
X-32923808Y37097905D02*
X-33190475Y37478858D01*
X-33380951Y37097905D02*
X-33380951Y37897905D01*
X-33380951Y37897905D02*
X-33076189Y37897905D01*
X-33076189Y37897905D02*
X-32999999Y37859810D01*
X-32999999Y37859810D02*
X-32961904Y37821715D01*
X-32961904Y37821715D02*
X-32923808Y37745524D01*
X-32923808Y37745524D02*
X-32923808Y37631239D01*
X-32923808Y37631239D02*
X-32961904Y37555048D01*
X-32961904Y37555048D02*
X-32999999Y37516953D01*
X-32999999Y37516953D02*
X-33076189Y37478858D01*
X-33076189Y37478858D02*
X-33380951Y37478858D01*
X-32428570Y37897905D02*
X-32276189Y37897905D01*
X-32276189Y37897905D02*
X-32199999Y37859810D01*
X-32199999Y37859810D02*
X-32123808Y37783620D01*
X-32123808Y37783620D02*
X-32085713Y37631239D01*
X-32085713Y37631239D02*
X-32085713Y37364572D01*
X-32085713Y37364572D02*
X-32123808Y37212191D01*
X-32123808Y37212191D02*
X-32199999Y37136000D01*
X-32199999Y37136000D02*
X-32276189Y37097905D01*
X-32276189Y37097905D02*
X-32428570Y37097905D01*
X-32428570Y37097905D02*
X-32504761Y37136000D01*
X-32504761Y37136000D02*
X-32580951Y37212191D01*
X-32580951Y37212191D02*
X-32619047Y37364572D01*
X-32619047Y37364572D02*
X-32619047Y37631239D01*
X-32619047Y37631239D02*
X-32580951Y37783620D01*
X-32580951Y37783620D02*
X-32504761Y37859810D01*
X-32504761Y37859810D02*
X-32428570Y37897905D01*
X-31857142Y37897905D02*
X-31399999Y37897905D01*
X-31628571Y37097905D02*
X-31628571Y37897905D01*
X-31323808Y37021715D02*
X-30714285Y37021715D01*
X-30638094Y37897905D02*
X-30371427Y37097905D01*
X-30371427Y37097905D02*
X-30104761Y37897905D01*
X-29419047Y37097905D02*
X-29876190Y37097905D01*
X-29647618Y37097905D02*
X-29647618Y37897905D01*
X-29647618Y37897905D02*
X-29723809Y37783620D01*
X-29723809Y37783620D02*
X-29799999Y37707429D01*
X-29799999Y37707429D02*
X-29876190Y37669334D01*
X-29076189Y37174096D02*
X-29038094Y37136000D01*
X-29038094Y37136000D02*
X-29076189Y37097905D01*
X-29076189Y37097905D02*
X-29114285Y37136000D01*
X-29114285Y37136000D02*
X-29076189Y37174096D01*
X-29076189Y37174096D02*
X-29076189Y37097905D01*
X-28542856Y37897905D02*
X-28466666Y37897905D01*
X-28466666Y37897905D02*
X-28390475Y37859810D01*
X-28390475Y37859810D02*
X-28352380Y37821715D01*
X-28352380Y37821715D02*
X-28314285Y37745524D01*
X-28314285Y37745524D02*
X-28276190Y37593143D01*
X-28276190Y37593143D02*
X-28276190Y37402667D01*
X-28276190Y37402667D02*
X-28314285Y37250286D01*
X-28314285Y37250286D02*
X-28352380Y37174096D01*
X-28352380Y37174096D02*
X-28390475Y37136000D01*
X-28390475Y37136000D02*
X-28466666Y37097905D01*
X-28466666Y37097905D02*
X-28542856Y37097905D01*
X-28542856Y37097905D02*
X-28619047Y37136000D01*
X-28619047Y37136000D02*
X-28657142Y37174096D01*
X-28657142Y37174096D02*
X-28695237Y37250286D01*
X-28695237Y37250286D02*
X-28733333Y37402667D01*
X-28733333Y37402667D02*
X-28733333Y37593143D01*
X-28733333Y37593143D02*
X-28695237Y37745524D01*
X-28695237Y37745524D02*
X-28657142Y37821715D01*
X-28657142Y37821715D02*
X-28619047Y37859810D01*
X-28619047Y37859810D02*
X-28542856Y37897905D01*
D11*
%TO.C,C51*%
X-3414286Y56256096D02*
X-3452382Y56218000D01*
X-3452382Y56218000D02*
X-3566667Y56179905D01*
X-3566667Y56179905D02*
X-3642858Y56179905D01*
X-3642858Y56179905D02*
X-3757144Y56218000D01*
X-3757144Y56218000D02*
X-3833334Y56294191D01*
X-3833334Y56294191D02*
X-3871429Y56370381D01*
X-3871429Y56370381D02*
X-3909525Y56522762D01*
X-3909525Y56522762D02*
X-3909525Y56637048D01*
X-3909525Y56637048D02*
X-3871429Y56789429D01*
X-3871429Y56789429D02*
X-3833334Y56865620D01*
X-3833334Y56865620D02*
X-3757144Y56941810D01*
X-3757144Y56941810D02*
X-3642858Y56979905D01*
X-3642858Y56979905D02*
X-3566667Y56979905D01*
X-3566667Y56979905D02*
X-3452382Y56941810D01*
X-3452382Y56941810D02*
X-3414286Y56903715D01*
X-2690477Y56979905D02*
X-3071429Y56979905D01*
X-3071429Y56979905D02*
X-3109525Y56598953D01*
X-3109525Y56598953D02*
X-3071429Y56637048D01*
X-3071429Y56637048D02*
X-2995239Y56675143D01*
X-2995239Y56675143D02*
X-2804763Y56675143D01*
X-2804763Y56675143D02*
X-2728572Y56637048D01*
X-2728572Y56637048D02*
X-2690477Y56598953D01*
X-2690477Y56598953D02*
X-2652382Y56522762D01*
X-2652382Y56522762D02*
X-2652382Y56332286D01*
X-2652382Y56332286D02*
X-2690477Y56256096D01*
X-2690477Y56256096D02*
X-2728572Y56218000D01*
X-2728572Y56218000D02*
X-2804763Y56179905D01*
X-2804763Y56179905D02*
X-2995239Y56179905D01*
X-2995239Y56179905D02*
X-3071429Y56218000D01*
X-3071429Y56218000D02*
X-3109525Y56256096D01*
X-1890477Y56179905D02*
X-2347620Y56179905D01*
X-2119048Y56179905D02*
X-2119048Y56979905D01*
X-2119048Y56979905D02*
X-2195239Y56865620D01*
X-2195239Y56865620D02*
X-2271429Y56789429D01*
X-2271429Y56789429D02*
X-2347620Y56751334D01*
%TO.C,C50*%
X-2406096Y75435715D02*
X-2368000Y75397619D01*
X-2368000Y75397619D02*
X-2329905Y75283334D01*
X-2329905Y75283334D02*
X-2329905Y75207143D01*
X-2329905Y75207143D02*
X-2368000Y75092857D01*
X-2368000Y75092857D02*
X-2444191Y75016667D01*
X-2444191Y75016667D02*
X-2520381Y74978572D01*
X-2520381Y74978572D02*
X-2672762Y74940476D01*
X-2672762Y74940476D02*
X-2787048Y74940476D01*
X-2787048Y74940476D02*
X-2939429Y74978572D01*
X-2939429Y74978572D02*
X-3015620Y75016667D01*
X-3015620Y75016667D02*
X-3091810Y75092857D01*
X-3091810Y75092857D02*
X-3129905Y75207143D01*
X-3129905Y75207143D02*
X-3129905Y75283334D01*
X-3129905Y75283334D02*
X-3091810Y75397619D01*
X-3091810Y75397619D02*
X-3053715Y75435715D01*
X-3129905Y76159524D02*
X-3129905Y75778572D01*
X-3129905Y75778572D02*
X-2748953Y75740476D01*
X-2748953Y75740476D02*
X-2787048Y75778572D01*
X-2787048Y75778572D02*
X-2825143Y75854762D01*
X-2825143Y75854762D02*
X-2825143Y76045238D01*
X-2825143Y76045238D02*
X-2787048Y76121429D01*
X-2787048Y76121429D02*
X-2748953Y76159524D01*
X-2748953Y76159524D02*
X-2672762Y76197619D01*
X-2672762Y76197619D02*
X-2482286Y76197619D01*
X-2482286Y76197619D02*
X-2406096Y76159524D01*
X-2406096Y76159524D02*
X-2368000Y76121429D01*
X-2368000Y76121429D02*
X-2329905Y76045238D01*
X-2329905Y76045238D02*
X-2329905Y75854762D01*
X-2329905Y75854762D02*
X-2368000Y75778572D01*
X-2368000Y75778572D02*
X-2406096Y75740476D01*
X-3129905Y76692858D02*
X-3129905Y76769048D01*
X-3129905Y76769048D02*
X-3091810Y76845239D01*
X-3091810Y76845239D02*
X-3053715Y76883334D01*
X-3053715Y76883334D02*
X-2977524Y76921429D01*
X-2977524Y76921429D02*
X-2825143Y76959524D01*
X-2825143Y76959524D02*
X-2634667Y76959524D01*
X-2634667Y76959524D02*
X-2482286Y76921429D01*
X-2482286Y76921429D02*
X-2406096Y76883334D01*
X-2406096Y76883334D02*
X-2368000Y76845239D01*
X-2368000Y76845239D02*
X-2329905Y76769048D01*
X-2329905Y76769048D02*
X-2329905Y76692858D01*
X-2329905Y76692858D02*
X-2368000Y76616667D01*
X-2368000Y76616667D02*
X-2406096Y76578572D01*
X-2406096Y76578572D02*
X-2482286Y76540477D01*
X-2482286Y76540477D02*
X-2634667Y76502381D01*
X-2634667Y76502381D02*
X-2825143Y76502381D01*
X-2825143Y76502381D02*
X-2977524Y76540477D01*
X-2977524Y76540477D02*
X-3053715Y76578572D01*
X-3053715Y76578572D02*
X-3091810Y76616667D01*
X-3091810Y76616667D02*
X-3129905Y76692858D01*
%TO.C,TP7*%
X-42509524Y77779905D02*
X-42052381Y77779905D01*
X-42280953Y76979905D02*
X-42280953Y77779905D01*
X-41785714Y76979905D02*
X-41785714Y77779905D01*
X-41785714Y77779905D02*
X-41480952Y77779905D01*
X-41480952Y77779905D02*
X-41404762Y77741810D01*
X-41404762Y77741810D02*
X-41366667Y77703715D01*
X-41366667Y77703715D02*
X-41328571Y77627524D01*
X-41328571Y77627524D02*
X-41328571Y77513239D01*
X-41328571Y77513239D02*
X-41366667Y77437048D01*
X-41366667Y77437048D02*
X-41404762Y77398953D01*
X-41404762Y77398953D02*
X-41480952Y77360858D01*
X-41480952Y77360858D02*
X-41785714Y77360858D01*
X-41061905Y77779905D02*
X-40528571Y77779905D01*
X-40528571Y77779905D02*
X-40871429Y76979905D01*
%TO.C,D11*%
X4070095Y60271072D02*
X3270095Y60271072D01*
X3270095Y60271072D02*
X3270095Y60461548D01*
X3270095Y60461548D02*
X3308190Y60575834D01*
X3308190Y60575834D02*
X3384380Y60652024D01*
X3384380Y60652024D02*
X3460571Y60690119D01*
X3460571Y60690119D02*
X3612952Y60728215D01*
X3612952Y60728215D02*
X3727238Y60728215D01*
X3727238Y60728215D02*
X3879619Y60690119D01*
X3879619Y60690119D02*
X3955809Y60652024D01*
X3955809Y60652024D02*
X4032000Y60575834D01*
X4032000Y60575834D02*
X4070095Y60461548D01*
X4070095Y60461548D02*
X4070095Y60271072D01*
X4070095Y61490119D02*
X4070095Y61032976D01*
X4070095Y61261548D02*
X3270095Y61261548D01*
X3270095Y61261548D02*
X3384380Y61185357D01*
X3384380Y61185357D02*
X3460571Y61109167D01*
X3460571Y61109167D02*
X3498666Y61032976D01*
X4070095Y62252024D02*
X4070095Y61794881D01*
X4070095Y62023453D02*
X3270095Y62023453D01*
X3270095Y62023453D02*
X3384380Y61947262D01*
X3384380Y61947262D02*
X3460571Y61871072D01*
X3460571Y61871072D02*
X3498666Y61794881D01*
%TO.C,TP2*%
X-42259524Y70879905D02*
X-41802381Y70879905D01*
X-42030953Y70079905D02*
X-42030953Y70879905D01*
X-41535714Y70079905D02*
X-41535714Y70879905D01*
X-41535714Y70879905D02*
X-41230952Y70879905D01*
X-41230952Y70879905D02*
X-41154762Y70841810D01*
X-41154762Y70841810D02*
X-41116667Y70803715D01*
X-41116667Y70803715D02*
X-41078571Y70727524D01*
X-41078571Y70727524D02*
X-41078571Y70613239D01*
X-41078571Y70613239D02*
X-41116667Y70537048D01*
X-41116667Y70537048D02*
X-41154762Y70498953D01*
X-41154762Y70498953D02*
X-41230952Y70460858D01*
X-41230952Y70460858D02*
X-41535714Y70460858D01*
X-40773810Y70803715D02*
X-40735714Y70841810D01*
X-40735714Y70841810D02*
X-40659524Y70879905D01*
X-40659524Y70879905D02*
X-40469048Y70879905D01*
X-40469048Y70879905D02*
X-40392857Y70841810D01*
X-40392857Y70841810D02*
X-40354762Y70803715D01*
X-40354762Y70803715D02*
X-40316667Y70727524D01*
X-40316667Y70727524D02*
X-40316667Y70651334D01*
X-40316667Y70651334D02*
X-40354762Y70537048D01*
X-40354762Y70537048D02*
X-40811905Y70079905D01*
X-40811905Y70079905D02*
X-40316667Y70079905D01*
D12*
%TO.C,CN1*%
X-44874762Y86761905D02*
X-44922381Y86666667D01*
X-44922381Y86666667D02*
X-44922381Y86523810D01*
X-44922381Y86523810D02*
X-44874762Y86380953D01*
X-44874762Y86380953D02*
X-44779524Y86285715D01*
X-44779524Y86285715D02*
X-44684286Y86238096D01*
X-44684286Y86238096D02*
X-44493810Y86190477D01*
X-44493810Y86190477D02*
X-44350953Y86190477D01*
X-44350953Y86190477D02*
X-44160477Y86238096D01*
X-44160477Y86238096D02*
X-44065239Y86285715D01*
X-44065239Y86285715D02*
X-43970000Y86380953D01*
X-43970000Y86380953D02*
X-43922381Y86523810D01*
X-43922381Y86523810D02*
X-43922381Y86619048D01*
X-43922381Y86619048D02*
X-43970000Y86761905D01*
X-43970000Y86761905D02*
X-44017620Y86809524D01*
X-44017620Y86809524D02*
X-44350953Y86809524D01*
X-44350953Y86809524D02*
X-44350953Y86619048D01*
X-44922381Y87142858D02*
X-43922381Y87380953D01*
X-43922381Y87380953D02*
X-44636667Y87571429D01*
X-44636667Y87571429D02*
X-43922381Y87761905D01*
X-43922381Y87761905D02*
X-44922381Y88000000D01*
X-38398572Y86928572D02*
X-37922381Y86928572D01*
X-38922381Y86595239D02*
X-38398572Y86928572D01*
X-38398572Y86928572D02*
X-38922381Y87261905D01*
X-28722381Y82642858D02*
X-27722381Y82880953D01*
X-27722381Y82880953D02*
X-28436667Y83071429D01*
X-28436667Y83071429D02*
X-27722381Y83261905D01*
X-27722381Y83261905D02*
X-28722381Y83500000D01*
X-27722381Y84357143D02*
X-27722381Y83880953D01*
X-27722381Y83880953D02*
X-28722381Y83880953D01*
X-26922381Y86142858D02*
X-25922381Y86380953D01*
X-25922381Y86380953D02*
X-26636667Y86571429D01*
X-26636667Y86571429D02*
X-25922381Y86761905D01*
X-25922381Y86761905D02*
X-26922381Y87000000D01*
X-25922381Y87952381D02*
X-26398572Y87619048D01*
X-25922381Y87380953D02*
X-26922381Y87380953D01*
X-26922381Y87380953D02*
X-26922381Y87761905D01*
X-26922381Y87761905D02*
X-26874762Y87857143D01*
X-26874762Y87857143D02*
X-26827143Y87904762D01*
X-26827143Y87904762D02*
X-26731905Y87952381D01*
X-26731905Y87952381D02*
X-26589048Y87952381D01*
X-26589048Y87952381D02*
X-26493810Y87904762D01*
X-26493810Y87904762D02*
X-26446191Y87857143D01*
X-26446191Y87857143D02*
X-26398572Y87761905D01*
X-26398572Y87761905D02*
X-26398572Y87380953D01*
X-40246191Y83071429D02*
X-40198572Y83214286D01*
X-40198572Y83214286D02*
X-40150953Y83261905D01*
X-40150953Y83261905D02*
X-40055715Y83309524D01*
X-40055715Y83309524D02*
X-39912858Y83309524D01*
X-39912858Y83309524D02*
X-39817620Y83261905D01*
X-39817620Y83261905D02*
X-39770000Y83214286D01*
X-39770000Y83214286D02*
X-39722381Y83119048D01*
X-39722381Y83119048D02*
X-39722381Y82738096D01*
X-39722381Y82738096D02*
X-40722381Y82738096D01*
X-40722381Y82738096D02*
X-40722381Y83071429D01*
X-40722381Y83071429D02*
X-40674762Y83166667D01*
X-40674762Y83166667D02*
X-40627143Y83214286D01*
X-40627143Y83214286D02*
X-40531905Y83261905D01*
X-40531905Y83261905D02*
X-40436667Y83261905D01*
X-40436667Y83261905D02*
X-40341429Y83214286D01*
X-40341429Y83214286D02*
X-40293810Y83166667D01*
X-40293810Y83166667D02*
X-40246191Y83071429D01*
X-40246191Y83071429D02*
X-40246191Y82738096D01*
X-39722381Y84214286D02*
X-39722381Y83738096D01*
X-39722381Y83738096D02*
X-40722381Y83738096D01*
X-13970000Y86190477D02*
X-13922381Y86333334D01*
X-13922381Y86333334D02*
X-13922381Y86571429D01*
X-13922381Y86571429D02*
X-13970000Y86666667D01*
X-13970000Y86666667D02*
X-14017620Y86714286D01*
X-14017620Y86714286D02*
X-14112858Y86761905D01*
X-14112858Y86761905D02*
X-14208096Y86761905D01*
X-14208096Y86761905D02*
X-14303334Y86714286D01*
X-14303334Y86714286D02*
X-14350953Y86666667D01*
X-14350953Y86666667D02*
X-14398572Y86571429D01*
X-14398572Y86571429D02*
X-14446191Y86380953D01*
X-14446191Y86380953D02*
X-14493810Y86285715D01*
X-14493810Y86285715D02*
X-14541429Y86238096D01*
X-14541429Y86238096D02*
X-14636667Y86190477D01*
X-14636667Y86190477D02*
X-14731905Y86190477D01*
X-14731905Y86190477D02*
X-14827143Y86238096D01*
X-14827143Y86238096D02*
X-14874762Y86285715D01*
X-14874762Y86285715D02*
X-14922381Y86380953D01*
X-14922381Y86380953D02*
X-14922381Y86619048D01*
X-14922381Y86619048D02*
X-14874762Y86761905D01*
X-13922381Y87190477D02*
X-14922381Y87190477D01*
X-14541429Y87190477D02*
X-14589048Y87285715D01*
X-14589048Y87285715D02*
X-14589048Y87476191D01*
X-14589048Y87476191D02*
X-14541429Y87571429D01*
X-14541429Y87571429D02*
X-14493810Y87619048D01*
X-14493810Y87619048D02*
X-14398572Y87666667D01*
X-14398572Y87666667D02*
X-14112858Y87666667D01*
X-14112858Y87666667D02*
X-14017620Y87619048D01*
X-14017620Y87619048D02*
X-13970000Y87571429D01*
X-13970000Y87571429D02*
X-13922381Y87476191D01*
X-13922381Y87476191D02*
X-13922381Y87285715D01*
X-13922381Y87285715D02*
X-13970000Y87190477D01*
X-15722381Y83809524D02*
X-16198572Y83476191D01*
X-15722381Y83238096D02*
X-16722381Y83238096D01*
X-16722381Y83238096D02*
X-16722381Y83619048D01*
X-16722381Y83619048D02*
X-16674762Y83714286D01*
X-16674762Y83714286D02*
X-16627143Y83761905D01*
X-16627143Y83761905D02*
X-16531905Y83809524D01*
X-16531905Y83809524D02*
X-16389048Y83809524D01*
X-16389048Y83809524D02*
X-16293810Y83761905D01*
X-16293810Y83761905D02*
X-16246191Y83714286D01*
X-16246191Y83714286D02*
X-16198572Y83619048D01*
X-16198572Y83619048D02*
X-16198572Y83238096D01*
X-33722381Y83714286D02*
X-33722381Y83238096D01*
X-33722381Y83238096D02*
X-34722381Y83238096D01*
X-4246191Y83071429D02*
X-4198572Y83214286D01*
X-4198572Y83214286D02*
X-4150953Y83261905D01*
X-4150953Y83261905D02*
X-4055715Y83309524D01*
X-4055715Y83309524D02*
X-3912858Y83309524D01*
X-3912858Y83309524D02*
X-3817620Y83261905D01*
X-3817620Y83261905D02*
X-3770000Y83214286D01*
X-3770000Y83214286D02*
X-3722381Y83119048D01*
X-3722381Y83119048D02*
X-3722381Y82738096D01*
X-3722381Y82738096D02*
X-4722381Y82738096D01*
X-4722381Y82738096D02*
X-4722381Y83071429D01*
X-4722381Y83071429D02*
X-4674762Y83166667D01*
X-4674762Y83166667D02*
X-4627143Y83214286D01*
X-4627143Y83214286D02*
X-4531905Y83261905D01*
X-4531905Y83261905D02*
X-4436667Y83261905D01*
X-4436667Y83261905D02*
X-4341429Y83214286D01*
X-4341429Y83214286D02*
X-4293810Y83166667D01*
X-4293810Y83166667D02*
X-4246191Y83071429D01*
X-4246191Y83071429D02*
X-4246191Y82738096D01*
X-4722381Y83642858D02*
X-3722381Y83880953D01*
X-3722381Y83880953D02*
X-4436667Y84071429D01*
X-4436667Y84071429D02*
X-3722381Y84261905D01*
X-3722381Y84261905D02*
X-4722381Y84500000D01*
X-10246191Y83071429D02*
X-10198572Y83214286D01*
X-10198572Y83214286D02*
X-10150953Y83261905D01*
X-10150953Y83261905D02*
X-10055715Y83309524D01*
X-10055715Y83309524D02*
X-9912858Y83309524D01*
X-9912858Y83309524D02*
X-9817620Y83261905D01*
X-9817620Y83261905D02*
X-9770000Y83214286D01*
X-9770000Y83214286D02*
X-9722381Y83119048D01*
X-9722381Y83119048D02*
X-9722381Y82738096D01*
X-9722381Y82738096D02*
X-10722381Y82738096D01*
X-10722381Y82738096D02*
X-10722381Y83071429D01*
X-10722381Y83071429D02*
X-10674762Y83166667D01*
X-10674762Y83166667D02*
X-10627143Y83214286D01*
X-10627143Y83214286D02*
X-10531905Y83261905D01*
X-10531905Y83261905D02*
X-10436667Y83261905D01*
X-10436667Y83261905D02*
X-10341429Y83214286D01*
X-10341429Y83214286D02*
X-10293810Y83166667D01*
X-10293810Y83166667D02*
X-10246191Y83071429D01*
X-10246191Y83071429D02*
X-10246191Y82738096D01*
X-9722381Y84309524D02*
X-10198572Y83976191D01*
X-9722381Y83738096D02*
X-10722381Y83738096D01*
X-10722381Y83738096D02*
X-10722381Y84119048D01*
X-10722381Y84119048D02*
X-10674762Y84214286D01*
X-10674762Y84214286D02*
X-10627143Y84261905D01*
X-10627143Y84261905D02*
X-10531905Y84309524D01*
X-10531905Y84309524D02*
X-10389048Y84309524D01*
X-10389048Y84309524D02*
X-10293810Y84261905D01*
X-10293810Y84261905D02*
X-10246191Y84214286D01*
X-10246191Y84214286D02*
X-10198572Y84119048D01*
X-10198572Y84119048D02*
X-10198572Y83738096D01*
X-2922381Y86428572D02*
X-2922381Y86619048D01*
X-2922381Y86619048D02*
X-2874762Y86714286D01*
X-2874762Y86714286D02*
X-2779524Y86809524D01*
X-2779524Y86809524D02*
X-2589048Y86857143D01*
X-2589048Y86857143D02*
X-2255715Y86857143D01*
X-2255715Y86857143D02*
X-2065239Y86809524D01*
X-2065239Y86809524D02*
X-1970000Y86714286D01*
X-1970000Y86714286D02*
X-1922381Y86619048D01*
X-1922381Y86619048D02*
X-1922381Y86428572D01*
X-1922381Y86428572D02*
X-1970000Y86333334D01*
X-1970000Y86333334D02*
X-2065239Y86238096D01*
X-2065239Y86238096D02*
X-2255715Y86190477D01*
X-2255715Y86190477D02*
X-2589048Y86190477D01*
X-2589048Y86190477D02*
X-2779524Y86238096D01*
X-2779524Y86238096D02*
X-2874762Y86333334D01*
X-2874762Y86333334D02*
X-2922381Y86428572D01*
X-1922381Y87285715D02*
X-2589048Y87285715D01*
X-2398572Y87285715D02*
X-2493810Y87333334D01*
X-2493810Y87333334D02*
X-2541429Y87380953D01*
X-2541429Y87380953D02*
X-2589048Y87476191D01*
X-2589048Y87476191D02*
X-2589048Y87571429D01*
X-22246191Y83571429D02*
X-22198572Y83714286D01*
X-22198572Y83714286D02*
X-22150953Y83761905D01*
X-22150953Y83761905D02*
X-22055715Y83809524D01*
X-22055715Y83809524D02*
X-21912858Y83809524D01*
X-21912858Y83809524D02*
X-21817620Y83761905D01*
X-21817620Y83761905D02*
X-21770000Y83714286D01*
X-21770000Y83714286D02*
X-21722381Y83619048D01*
X-21722381Y83619048D02*
X-21722381Y83238096D01*
X-21722381Y83238096D02*
X-22722381Y83238096D01*
X-22722381Y83238096D02*
X-22722381Y83571429D01*
X-22722381Y83571429D02*
X-22674762Y83666667D01*
X-22674762Y83666667D02*
X-22627143Y83714286D01*
X-22627143Y83714286D02*
X-22531905Y83761905D01*
X-22531905Y83761905D02*
X-22436667Y83761905D01*
X-22436667Y83761905D02*
X-22341429Y83714286D01*
X-22341429Y83714286D02*
X-22293810Y83666667D01*
X-22293810Y83666667D02*
X-22246191Y83571429D01*
X-22246191Y83571429D02*
X-22246191Y83238096D01*
X-46674762Y83261905D02*
X-46722381Y83166667D01*
X-46722381Y83166667D02*
X-46722381Y83023810D01*
X-46722381Y83023810D02*
X-46674762Y82880953D01*
X-46674762Y82880953D02*
X-46579524Y82785715D01*
X-46579524Y82785715D02*
X-46484286Y82738096D01*
X-46484286Y82738096D02*
X-46293810Y82690477D01*
X-46293810Y82690477D02*
X-46150953Y82690477D01*
X-46150953Y82690477D02*
X-45960477Y82738096D01*
X-45960477Y82738096D02*
X-45865239Y82785715D01*
X-45865239Y82785715D02*
X-45770000Y82880953D01*
X-45770000Y82880953D02*
X-45722381Y83023810D01*
X-45722381Y83023810D02*
X-45722381Y83119048D01*
X-45722381Y83119048D02*
X-45770000Y83261905D01*
X-45770000Y83261905D02*
X-45817620Y83309524D01*
X-45817620Y83309524D02*
X-46150953Y83309524D01*
X-46150953Y83309524D02*
X-46150953Y83119048D01*
X-45722381Y84214286D02*
X-45722381Y83738096D01*
X-45722381Y83738096D02*
X-46722381Y83738096D01*
D11*
%TO.C,D1*%
X3870095Y73724525D02*
X3070095Y73724525D01*
X3070095Y73724525D02*
X3070095Y73915001D01*
X3070095Y73915001D02*
X3108190Y74029287D01*
X3108190Y74029287D02*
X3184380Y74105477D01*
X3184380Y74105477D02*
X3260571Y74143572D01*
X3260571Y74143572D02*
X3412952Y74181668D01*
X3412952Y74181668D02*
X3527238Y74181668D01*
X3527238Y74181668D02*
X3679619Y74143572D01*
X3679619Y74143572D02*
X3755809Y74105477D01*
X3755809Y74105477D02*
X3832000Y74029287D01*
X3832000Y74029287D02*
X3870095Y73915001D01*
X3870095Y73915001D02*
X3870095Y73724525D01*
X3870095Y74943572D02*
X3870095Y74486429D01*
X3870095Y74715001D02*
X3070095Y74715001D01*
X3070095Y74715001D02*
X3184380Y74638810D01*
X3184380Y74638810D02*
X3260571Y74562620D01*
X3260571Y74562620D02*
X3298666Y74486429D01*
%TO.C,IC1*%
X-39880952Y57229905D02*
X-39880952Y58029905D01*
X-39042857Y57306096D02*
X-39080953Y57268000D01*
X-39080953Y57268000D02*
X-39195238Y57229905D01*
X-39195238Y57229905D02*
X-39271429Y57229905D01*
X-39271429Y57229905D02*
X-39385715Y57268000D01*
X-39385715Y57268000D02*
X-39461905Y57344191D01*
X-39461905Y57344191D02*
X-39500000Y57420381D01*
X-39500000Y57420381D02*
X-39538096Y57572762D01*
X-39538096Y57572762D02*
X-39538096Y57687048D01*
X-39538096Y57687048D02*
X-39500000Y57839429D01*
X-39500000Y57839429D02*
X-39461905Y57915620D01*
X-39461905Y57915620D02*
X-39385715Y57991810D01*
X-39385715Y57991810D02*
X-39271429Y58029905D01*
X-39271429Y58029905D02*
X-39195238Y58029905D01*
X-39195238Y58029905D02*
X-39080953Y57991810D01*
X-39080953Y57991810D02*
X-39042857Y57953715D01*
X-38280953Y57229905D02*
X-38738096Y57229905D01*
X-38509524Y57229905D02*
X-38509524Y58029905D01*
X-38509524Y58029905D02*
X-38585715Y57915620D01*
X-38585715Y57915620D02*
X-38661905Y57839429D01*
X-38661905Y57839429D02*
X-38738096Y57801334D01*
%TO.C,TP10*%
X3070095Y55359524D02*
X3070095Y55816667D01*
X3870095Y55588095D02*
X3070095Y55588095D01*
X3870095Y56083334D02*
X3070095Y56083334D01*
X3070095Y56083334D02*
X3070095Y56388096D01*
X3070095Y56388096D02*
X3108190Y56464286D01*
X3108190Y56464286D02*
X3146285Y56502381D01*
X3146285Y56502381D02*
X3222476Y56540477D01*
X3222476Y56540477D02*
X3336761Y56540477D01*
X3336761Y56540477D02*
X3412952Y56502381D01*
X3412952Y56502381D02*
X3451047Y56464286D01*
X3451047Y56464286D02*
X3489142Y56388096D01*
X3489142Y56388096D02*
X3489142Y56083334D01*
X3870095Y57302381D02*
X3870095Y56845238D01*
X3870095Y57073810D02*
X3070095Y57073810D01*
X3070095Y57073810D02*
X3184380Y56997619D01*
X3184380Y56997619D02*
X3260571Y56921429D01*
X3260571Y56921429D02*
X3298666Y56845238D01*
X3070095Y57797620D02*
X3070095Y57873810D01*
X3070095Y57873810D02*
X3108190Y57950001D01*
X3108190Y57950001D02*
X3146285Y57988096D01*
X3146285Y57988096D02*
X3222476Y58026191D01*
X3222476Y58026191D02*
X3374857Y58064286D01*
X3374857Y58064286D02*
X3565333Y58064286D01*
X3565333Y58064286D02*
X3717714Y58026191D01*
X3717714Y58026191D02*
X3793904Y57988096D01*
X3793904Y57988096D02*
X3832000Y57950001D01*
X3832000Y57950001D02*
X3870095Y57873810D01*
X3870095Y57873810D02*
X3870095Y57797620D01*
X3870095Y57797620D02*
X3832000Y57721429D01*
X3832000Y57721429D02*
X3793904Y57683334D01*
X3793904Y57683334D02*
X3717714Y57645239D01*
X3717714Y57645239D02*
X3565333Y57607143D01*
X3565333Y57607143D02*
X3374857Y57607143D01*
X3374857Y57607143D02*
X3222476Y57645239D01*
X3222476Y57645239D02*
X3146285Y57683334D01*
X3146285Y57683334D02*
X3108190Y57721429D01*
X3108190Y57721429D02*
X3070095Y57797620D01*
%TO.C,TP11*%
X-26490477Y71409905D02*
X-26033334Y71409905D01*
X-26261906Y70609905D02*
X-26261906Y71409905D01*
X-25766667Y70609905D02*
X-25766667Y71409905D01*
X-25766667Y71409905D02*
X-25461905Y71409905D01*
X-25461905Y71409905D02*
X-25385715Y71371810D01*
X-25385715Y71371810D02*
X-25347620Y71333715D01*
X-25347620Y71333715D02*
X-25309524Y71257524D01*
X-25309524Y71257524D02*
X-25309524Y71143239D01*
X-25309524Y71143239D02*
X-25347620Y71067048D01*
X-25347620Y71067048D02*
X-25385715Y71028953D01*
X-25385715Y71028953D02*
X-25461905Y70990858D01*
X-25461905Y70990858D02*
X-25766667Y70990858D01*
X-24547620Y70609905D02*
X-25004763Y70609905D01*
X-24776191Y70609905D02*
X-24776191Y71409905D01*
X-24776191Y71409905D02*
X-24852382Y71295620D01*
X-24852382Y71295620D02*
X-24928572Y71219429D01*
X-24928572Y71219429D02*
X-25004763Y71181334D01*
X-23785715Y70609905D02*
X-24242858Y70609905D01*
X-24014286Y70609905D02*
X-24014286Y71409905D01*
X-24014286Y71409905D02*
X-24090477Y71295620D01*
X-24090477Y71295620D02*
X-24166667Y71219429D01*
X-24166667Y71219429D02*
X-24242858Y71181334D01*
%TO.C,SW2*%
X-46366668Y41718000D02*
X-46252382Y41679905D01*
X-46252382Y41679905D02*
X-46061906Y41679905D01*
X-46061906Y41679905D02*
X-45985715Y41718000D01*
X-45985715Y41718000D02*
X-45947620Y41756096D01*
X-45947620Y41756096D02*
X-45909525Y41832286D01*
X-45909525Y41832286D02*
X-45909525Y41908477D01*
X-45909525Y41908477D02*
X-45947620Y41984667D01*
X-45947620Y41984667D02*
X-45985715Y42022762D01*
X-45985715Y42022762D02*
X-46061906Y42060858D01*
X-46061906Y42060858D02*
X-46214287Y42098953D01*
X-46214287Y42098953D02*
X-46290477Y42137048D01*
X-46290477Y42137048D02*
X-46328572Y42175143D01*
X-46328572Y42175143D02*
X-46366668Y42251334D01*
X-46366668Y42251334D02*
X-46366668Y42327524D01*
X-46366668Y42327524D02*
X-46328572Y42403715D01*
X-46328572Y42403715D02*
X-46290477Y42441810D01*
X-46290477Y42441810D02*
X-46214287Y42479905D01*
X-46214287Y42479905D02*
X-46023810Y42479905D01*
X-46023810Y42479905D02*
X-45909525Y42441810D01*
X-45642858Y42479905D02*
X-45452382Y41679905D01*
X-45452382Y41679905D02*
X-45300001Y42251334D01*
X-45300001Y42251334D02*
X-45147620Y41679905D01*
X-45147620Y41679905D02*
X-44957143Y42479905D01*
X-44690477Y42403715D02*
X-44652381Y42441810D01*
X-44652381Y42441810D02*
X-44576191Y42479905D01*
X-44576191Y42479905D02*
X-44385715Y42479905D01*
X-44385715Y42479905D02*
X-44309524Y42441810D01*
X-44309524Y42441810D02*
X-44271429Y42403715D01*
X-44271429Y42403715D02*
X-44233334Y42327524D01*
X-44233334Y42327524D02*
X-44233334Y42251334D01*
X-44233334Y42251334D02*
X-44271429Y42137048D01*
X-44271429Y42137048D02*
X-44728572Y41679905D01*
X-44728572Y41679905D02*
X-44233334Y41679905D01*
%TO.C,TP9*%
X-51059524Y68699905D02*
X-50602381Y68699905D01*
X-50830953Y67899905D02*
X-50830953Y68699905D01*
X-50335714Y67899905D02*
X-50335714Y68699905D01*
X-50335714Y68699905D02*
X-50030952Y68699905D01*
X-50030952Y68699905D02*
X-49954762Y68661810D01*
X-49954762Y68661810D02*
X-49916667Y68623715D01*
X-49916667Y68623715D02*
X-49878571Y68547524D01*
X-49878571Y68547524D02*
X-49878571Y68433239D01*
X-49878571Y68433239D02*
X-49916667Y68357048D01*
X-49916667Y68357048D02*
X-49954762Y68318953D01*
X-49954762Y68318953D02*
X-50030952Y68280858D01*
X-50030952Y68280858D02*
X-50335714Y68280858D01*
X-49497619Y67899905D02*
X-49345238Y67899905D01*
X-49345238Y67899905D02*
X-49269048Y67938000D01*
X-49269048Y67938000D02*
X-49230952Y67976096D01*
X-49230952Y67976096D02*
X-49154762Y68090381D01*
X-49154762Y68090381D02*
X-49116667Y68242762D01*
X-49116667Y68242762D02*
X-49116667Y68547524D01*
X-49116667Y68547524D02*
X-49154762Y68623715D01*
X-49154762Y68623715D02*
X-49192857Y68661810D01*
X-49192857Y68661810D02*
X-49269048Y68699905D01*
X-49269048Y68699905D02*
X-49421429Y68699905D01*
X-49421429Y68699905D02*
X-49497619Y68661810D01*
X-49497619Y68661810D02*
X-49535714Y68623715D01*
X-49535714Y68623715D02*
X-49573810Y68547524D01*
X-49573810Y68547524D02*
X-49573810Y68357048D01*
X-49573810Y68357048D02*
X-49535714Y68280858D01*
X-49535714Y68280858D02*
X-49497619Y68242762D01*
X-49497619Y68242762D02*
X-49421429Y68204667D01*
X-49421429Y68204667D02*
X-49269048Y68204667D01*
X-49269048Y68204667D02*
X-49192857Y68242762D01*
X-49192857Y68242762D02*
X-49154762Y68280858D01*
X-49154762Y68280858D02*
X-49116667Y68357048D01*
%TO.C,TP4*%
X-34609524Y66679905D02*
X-34152381Y66679905D01*
X-34380953Y65879905D02*
X-34380953Y66679905D01*
X-33885714Y65879905D02*
X-33885714Y66679905D01*
X-33885714Y66679905D02*
X-33580952Y66679905D01*
X-33580952Y66679905D02*
X-33504762Y66641810D01*
X-33504762Y66641810D02*
X-33466667Y66603715D01*
X-33466667Y66603715D02*
X-33428571Y66527524D01*
X-33428571Y66527524D02*
X-33428571Y66413239D01*
X-33428571Y66413239D02*
X-33466667Y66337048D01*
X-33466667Y66337048D02*
X-33504762Y66298953D01*
X-33504762Y66298953D02*
X-33580952Y66260858D01*
X-33580952Y66260858D02*
X-33885714Y66260858D01*
X-32742857Y66413239D02*
X-32742857Y65879905D01*
X-32933333Y66718000D02*
X-33123810Y66146572D01*
X-33123810Y66146572D02*
X-32628571Y66146572D01*
%TO.C,SW1*%
X-56566668Y41968000D02*
X-56452382Y41929905D01*
X-56452382Y41929905D02*
X-56261906Y41929905D01*
X-56261906Y41929905D02*
X-56185715Y41968000D01*
X-56185715Y41968000D02*
X-56147620Y42006096D01*
X-56147620Y42006096D02*
X-56109525Y42082286D01*
X-56109525Y42082286D02*
X-56109525Y42158477D01*
X-56109525Y42158477D02*
X-56147620Y42234667D01*
X-56147620Y42234667D02*
X-56185715Y42272762D01*
X-56185715Y42272762D02*
X-56261906Y42310858D01*
X-56261906Y42310858D02*
X-56414287Y42348953D01*
X-56414287Y42348953D02*
X-56490477Y42387048D01*
X-56490477Y42387048D02*
X-56528572Y42425143D01*
X-56528572Y42425143D02*
X-56566668Y42501334D01*
X-56566668Y42501334D02*
X-56566668Y42577524D01*
X-56566668Y42577524D02*
X-56528572Y42653715D01*
X-56528572Y42653715D02*
X-56490477Y42691810D01*
X-56490477Y42691810D02*
X-56414287Y42729905D01*
X-56414287Y42729905D02*
X-56223810Y42729905D01*
X-56223810Y42729905D02*
X-56109525Y42691810D01*
X-55842858Y42729905D02*
X-55652382Y41929905D01*
X-55652382Y41929905D02*
X-55500001Y42501334D01*
X-55500001Y42501334D02*
X-55347620Y41929905D01*
X-55347620Y41929905D02*
X-55157143Y42729905D01*
X-54433334Y41929905D02*
X-54890477Y41929905D01*
X-54661905Y41929905D02*
X-54661905Y42729905D01*
X-54661905Y42729905D02*
X-54738096Y42615620D01*
X-54738096Y42615620D02*
X-54814286Y42539429D01*
X-54814286Y42539429D02*
X-54890477Y42501334D01*
%TO.C,SW5*%
X-50522000Y57846668D02*
X-50560096Y57732382D01*
X-50560096Y57732382D02*
X-50560096Y57541906D01*
X-50560096Y57541906D02*
X-50522000Y57465715D01*
X-50522000Y57465715D02*
X-50483905Y57427620D01*
X-50483905Y57427620D02*
X-50407715Y57389525D01*
X-50407715Y57389525D02*
X-50331524Y57389525D01*
X-50331524Y57389525D02*
X-50255334Y57427620D01*
X-50255334Y57427620D02*
X-50217239Y57465715D01*
X-50217239Y57465715D02*
X-50179143Y57541906D01*
X-50179143Y57541906D02*
X-50141048Y57694287D01*
X-50141048Y57694287D02*
X-50102953Y57770477D01*
X-50102953Y57770477D02*
X-50064858Y57808572D01*
X-50064858Y57808572D02*
X-49988667Y57846668D01*
X-49988667Y57846668D02*
X-49912477Y57846668D01*
X-49912477Y57846668D02*
X-49836286Y57808572D01*
X-49836286Y57808572D02*
X-49798191Y57770477D01*
X-49798191Y57770477D02*
X-49760096Y57694287D01*
X-49760096Y57694287D02*
X-49760096Y57503810D01*
X-49760096Y57503810D02*
X-49798191Y57389525D01*
X-49760096Y57122858D02*
X-50560096Y56932382D01*
X-50560096Y56932382D02*
X-49988667Y56780001D01*
X-49988667Y56780001D02*
X-50560096Y56627620D01*
X-50560096Y56627620D02*
X-49760096Y56437143D01*
X-49760096Y55751429D02*
X-49760096Y56132381D01*
X-49760096Y56132381D02*
X-50141048Y56170477D01*
X-50141048Y56170477D02*
X-50102953Y56132381D01*
X-50102953Y56132381D02*
X-50064858Y56056191D01*
X-50064858Y56056191D02*
X-50064858Y55865715D01*
X-50064858Y55865715D02*
X-50102953Y55789524D01*
X-50102953Y55789524D02*
X-50141048Y55751429D01*
X-50141048Y55751429D02*
X-50217239Y55713334D01*
X-50217239Y55713334D02*
X-50407715Y55713334D01*
X-50407715Y55713334D02*
X-50483905Y55751429D01*
X-50483905Y55751429D02*
X-50522000Y55789524D01*
X-50522000Y55789524D02*
X-50560096Y55865715D01*
X-50560096Y55865715D02*
X-50560096Y56056191D01*
X-50560096Y56056191D02*
X-50522000Y56132381D01*
X-50522000Y56132381D02*
X-50483905Y56170477D01*
%TO.C,SW3*%
X-35516668Y41968000D02*
X-35402382Y41929905D01*
X-35402382Y41929905D02*
X-35211906Y41929905D01*
X-35211906Y41929905D02*
X-35135715Y41968000D01*
X-35135715Y41968000D02*
X-35097620Y42006096D01*
X-35097620Y42006096D02*
X-35059525Y42082286D01*
X-35059525Y42082286D02*
X-35059525Y42158477D01*
X-35059525Y42158477D02*
X-35097620Y42234667D01*
X-35097620Y42234667D02*
X-35135715Y42272762D01*
X-35135715Y42272762D02*
X-35211906Y42310858D01*
X-35211906Y42310858D02*
X-35364287Y42348953D01*
X-35364287Y42348953D02*
X-35440477Y42387048D01*
X-35440477Y42387048D02*
X-35478572Y42425143D01*
X-35478572Y42425143D02*
X-35516668Y42501334D01*
X-35516668Y42501334D02*
X-35516668Y42577524D01*
X-35516668Y42577524D02*
X-35478572Y42653715D01*
X-35478572Y42653715D02*
X-35440477Y42691810D01*
X-35440477Y42691810D02*
X-35364287Y42729905D01*
X-35364287Y42729905D02*
X-35173810Y42729905D01*
X-35173810Y42729905D02*
X-35059525Y42691810D01*
X-34792858Y42729905D02*
X-34602382Y41929905D01*
X-34602382Y41929905D02*
X-34450001Y42501334D01*
X-34450001Y42501334D02*
X-34297620Y41929905D01*
X-34297620Y41929905D02*
X-34107143Y42729905D01*
X-33878572Y42729905D02*
X-33383334Y42729905D01*
X-33383334Y42729905D02*
X-33650000Y42425143D01*
X-33650000Y42425143D02*
X-33535715Y42425143D01*
X-33535715Y42425143D02*
X-33459524Y42387048D01*
X-33459524Y42387048D02*
X-33421429Y42348953D01*
X-33421429Y42348953D02*
X-33383334Y42272762D01*
X-33383334Y42272762D02*
X-33383334Y42082286D01*
X-33383334Y42082286D02*
X-33421429Y42006096D01*
X-33421429Y42006096D02*
X-33459524Y41968000D01*
X-33459524Y41968000D02*
X-33535715Y41929905D01*
X-33535715Y41929905D02*
X-33764286Y41929905D01*
X-33764286Y41929905D02*
X-33840477Y41968000D01*
X-33840477Y41968000D02*
X-33878572Y42006096D01*
%TO.C,C10*%
X-30914286Y69256096D02*
X-30952382Y69218000D01*
X-30952382Y69218000D02*
X-31066667Y69179905D01*
X-31066667Y69179905D02*
X-31142858Y69179905D01*
X-31142858Y69179905D02*
X-31257144Y69218000D01*
X-31257144Y69218000D02*
X-31333334Y69294191D01*
X-31333334Y69294191D02*
X-31371429Y69370381D01*
X-31371429Y69370381D02*
X-31409525Y69522762D01*
X-31409525Y69522762D02*
X-31409525Y69637048D01*
X-31409525Y69637048D02*
X-31371429Y69789429D01*
X-31371429Y69789429D02*
X-31333334Y69865620D01*
X-31333334Y69865620D02*
X-31257144Y69941810D01*
X-31257144Y69941810D02*
X-31142858Y69979905D01*
X-31142858Y69979905D02*
X-31066667Y69979905D01*
X-31066667Y69979905D02*
X-30952382Y69941810D01*
X-30952382Y69941810D02*
X-30914286Y69903715D01*
X-30152382Y69179905D02*
X-30609525Y69179905D01*
X-30380953Y69179905D02*
X-30380953Y69979905D01*
X-30380953Y69979905D02*
X-30457144Y69865620D01*
X-30457144Y69865620D02*
X-30533334Y69789429D01*
X-30533334Y69789429D02*
X-30609525Y69751334D01*
X-29657143Y69979905D02*
X-29580953Y69979905D01*
X-29580953Y69979905D02*
X-29504762Y69941810D01*
X-29504762Y69941810D02*
X-29466667Y69903715D01*
X-29466667Y69903715D02*
X-29428572Y69827524D01*
X-29428572Y69827524D02*
X-29390477Y69675143D01*
X-29390477Y69675143D02*
X-29390477Y69484667D01*
X-29390477Y69484667D02*
X-29428572Y69332286D01*
X-29428572Y69332286D02*
X-29466667Y69256096D01*
X-29466667Y69256096D02*
X-29504762Y69218000D01*
X-29504762Y69218000D02*
X-29580953Y69179905D01*
X-29580953Y69179905D02*
X-29657143Y69179905D01*
X-29657143Y69179905D02*
X-29733334Y69218000D01*
X-29733334Y69218000D02*
X-29771429Y69256096D01*
X-29771429Y69256096D02*
X-29809524Y69332286D01*
X-29809524Y69332286D02*
X-29847620Y69484667D01*
X-29847620Y69484667D02*
X-29847620Y69675143D01*
X-29847620Y69675143D02*
X-29809524Y69827524D01*
X-29809524Y69827524D02*
X-29771429Y69903715D01*
X-29771429Y69903715D02*
X-29733334Y69941810D01*
X-29733334Y69941810D02*
X-29657143Y69979905D01*
%TO.C,TP3*%
X-33609524Y68579905D02*
X-33152381Y68579905D01*
X-33380953Y67779905D02*
X-33380953Y68579905D01*
X-32885714Y67779905D02*
X-32885714Y68579905D01*
X-32885714Y68579905D02*
X-32580952Y68579905D01*
X-32580952Y68579905D02*
X-32504762Y68541810D01*
X-32504762Y68541810D02*
X-32466667Y68503715D01*
X-32466667Y68503715D02*
X-32428571Y68427524D01*
X-32428571Y68427524D02*
X-32428571Y68313239D01*
X-32428571Y68313239D02*
X-32466667Y68237048D01*
X-32466667Y68237048D02*
X-32504762Y68198953D01*
X-32504762Y68198953D02*
X-32580952Y68160858D01*
X-32580952Y68160858D02*
X-32885714Y68160858D01*
X-32161905Y68579905D02*
X-31666667Y68579905D01*
X-31666667Y68579905D02*
X-31933333Y68275143D01*
X-31933333Y68275143D02*
X-31819048Y68275143D01*
X-31819048Y68275143D02*
X-31742857Y68237048D01*
X-31742857Y68237048D02*
X-31704762Y68198953D01*
X-31704762Y68198953D02*
X-31666667Y68122762D01*
X-31666667Y68122762D02*
X-31666667Y67932286D01*
X-31666667Y67932286D02*
X-31704762Y67856096D01*
X-31704762Y67856096D02*
X-31742857Y67818000D01*
X-31742857Y67818000D02*
X-31819048Y67779905D01*
X-31819048Y67779905D02*
X-32047619Y67779905D01*
X-32047619Y67779905D02*
X-32123810Y67818000D01*
X-32123810Y67818000D02*
X-32161905Y67856096D01*
%TO.C,C21*%
X-59064286Y64206096D02*
X-59102382Y64168000D01*
X-59102382Y64168000D02*
X-59216667Y64129905D01*
X-59216667Y64129905D02*
X-59292858Y64129905D01*
X-59292858Y64129905D02*
X-59407144Y64168000D01*
X-59407144Y64168000D02*
X-59483334Y64244191D01*
X-59483334Y64244191D02*
X-59521429Y64320381D01*
X-59521429Y64320381D02*
X-59559525Y64472762D01*
X-59559525Y64472762D02*
X-59559525Y64587048D01*
X-59559525Y64587048D02*
X-59521429Y64739429D01*
X-59521429Y64739429D02*
X-59483334Y64815620D01*
X-59483334Y64815620D02*
X-59407144Y64891810D01*
X-59407144Y64891810D02*
X-59292858Y64929905D01*
X-59292858Y64929905D02*
X-59216667Y64929905D01*
X-59216667Y64929905D02*
X-59102382Y64891810D01*
X-59102382Y64891810D02*
X-59064286Y64853715D01*
X-58759525Y64853715D02*
X-58721429Y64891810D01*
X-58721429Y64891810D02*
X-58645239Y64929905D01*
X-58645239Y64929905D02*
X-58454763Y64929905D01*
X-58454763Y64929905D02*
X-58378572Y64891810D01*
X-58378572Y64891810D02*
X-58340477Y64853715D01*
X-58340477Y64853715D02*
X-58302382Y64777524D01*
X-58302382Y64777524D02*
X-58302382Y64701334D01*
X-58302382Y64701334D02*
X-58340477Y64587048D01*
X-58340477Y64587048D02*
X-58797620Y64129905D01*
X-58797620Y64129905D02*
X-58302382Y64129905D01*
X-57540477Y64129905D02*
X-57997620Y64129905D01*
X-57769048Y64129905D02*
X-57769048Y64929905D01*
X-57769048Y64929905D02*
X-57845239Y64815620D01*
X-57845239Y64815620D02*
X-57921429Y64739429D01*
X-57921429Y64739429D02*
X-57997620Y64701334D01*
%TO.C,TP5*%
X-28929905Y58440477D02*
X-28929905Y58897620D01*
X-28129905Y58669048D02*
X-28929905Y58669048D01*
X-28129905Y59164287D02*
X-28929905Y59164287D01*
X-28929905Y59164287D02*
X-28929905Y59469049D01*
X-28929905Y59469049D02*
X-28891810Y59545239D01*
X-28891810Y59545239D02*
X-28853715Y59583334D01*
X-28853715Y59583334D02*
X-28777524Y59621430D01*
X-28777524Y59621430D02*
X-28663239Y59621430D01*
X-28663239Y59621430D02*
X-28587048Y59583334D01*
X-28587048Y59583334D02*
X-28548953Y59545239D01*
X-28548953Y59545239D02*
X-28510858Y59469049D01*
X-28510858Y59469049D02*
X-28510858Y59164287D01*
X-28929905Y60345239D02*
X-28929905Y59964287D01*
X-28929905Y59964287D02*
X-28548953Y59926191D01*
X-28548953Y59926191D02*
X-28587048Y59964287D01*
X-28587048Y59964287D02*
X-28625143Y60040477D01*
X-28625143Y60040477D02*
X-28625143Y60230953D01*
X-28625143Y60230953D02*
X-28587048Y60307144D01*
X-28587048Y60307144D02*
X-28548953Y60345239D01*
X-28548953Y60345239D02*
X-28472762Y60383334D01*
X-28472762Y60383334D02*
X-28282286Y60383334D01*
X-28282286Y60383334D02*
X-28206096Y60345239D01*
X-28206096Y60345239D02*
X-28168000Y60307144D01*
X-28168000Y60307144D02*
X-28129905Y60230953D01*
X-28129905Y60230953D02*
X-28129905Y60040477D01*
X-28129905Y60040477D02*
X-28168000Y59964287D01*
X-28168000Y59964287D02*
X-28206096Y59926191D01*
%TO.C,TP12*%
X-46240477Y67379905D02*
X-45783334Y67379905D01*
X-46011906Y66579905D02*
X-46011906Y67379905D01*
X-45516667Y66579905D02*
X-45516667Y67379905D01*
X-45516667Y67379905D02*
X-45211905Y67379905D01*
X-45211905Y67379905D02*
X-45135715Y67341810D01*
X-45135715Y67341810D02*
X-45097620Y67303715D01*
X-45097620Y67303715D02*
X-45059524Y67227524D01*
X-45059524Y67227524D02*
X-45059524Y67113239D01*
X-45059524Y67113239D02*
X-45097620Y67037048D01*
X-45097620Y67037048D02*
X-45135715Y66998953D01*
X-45135715Y66998953D02*
X-45211905Y66960858D01*
X-45211905Y66960858D02*
X-45516667Y66960858D01*
X-44297620Y66579905D02*
X-44754763Y66579905D01*
X-44526191Y66579905D02*
X-44526191Y67379905D01*
X-44526191Y67379905D02*
X-44602382Y67265620D01*
X-44602382Y67265620D02*
X-44678572Y67189429D01*
X-44678572Y67189429D02*
X-44754763Y67151334D01*
X-43992858Y67303715D02*
X-43954762Y67341810D01*
X-43954762Y67341810D02*
X-43878572Y67379905D01*
X-43878572Y67379905D02*
X-43688096Y67379905D01*
X-43688096Y67379905D02*
X-43611905Y67341810D01*
X-43611905Y67341810D02*
X-43573810Y67303715D01*
X-43573810Y67303715D02*
X-43535715Y67227524D01*
X-43535715Y67227524D02*
X-43535715Y67151334D01*
X-43535715Y67151334D02*
X-43573810Y67037048D01*
X-43573810Y67037048D02*
X-44030953Y66579905D01*
X-44030953Y66579905D02*
X-43535715Y66579905D01*
%TO.C,SW4*%
X-25066668Y41968000D02*
X-24952382Y41929905D01*
X-24952382Y41929905D02*
X-24761906Y41929905D01*
X-24761906Y41929905D02*
X-24685715Y41968000D01*
X-24685715Y41968000D02*
X-24647620Y42006096D01*
X-24647620Y42006096D02*
X-24609525Y42082286D01*
X-24609525Y42082286D02*
X-24609525Y42158477D01*
X-24609525Y42158477D02*
X-24647620Y42234667D01*
X-24647620Y42234667D02*
X-24685715Y42272762D01*
X-24685715Y42272762D02*
X-24761906Y42310858D01*
X-24761906Y42310858D02*
X-24914287Y42348953D01*
X-24914287Y42348953D02*
X-24990477Y42387048D01*
X-24990477Y42387048D02*
X-25028572Y42425143D01*
X-25028572Y42425143D02*
X-25066668Y42501334D01*
X-25066668Y42501334D02*
X-25066668Y42577524D01*
X-25066668Y42577524D02*
X-25028572Y42653715D01*
X-25028572Y42653715D02*
X-24990477Y42691810D01*
X-24990477Y42691810D02*
X-24914287Y42729905D01*
X-24914287Y42729905D02*
X-24723810Y42729905D01*
X-24723810Y42729905D02*
X-24609525Y42691810D01*
X-24342858Y42729905D02*
X-24152382Y41929905D01*
X-24152382Y41929905D02*
X-24000001Y42501334D01*
X-24000001Y42501334D02*
X-23847620Y41929905D01*
X-23847620Y41929905D02*
X-23657143Y42729905D01*
X-23009524Y42463239D02*
X-23009524Y41929905D01*
X-23200000Y42768000D02*
X-23390477Y42196572D01*
X-23390477Y42196572D02*
X-22895238Y42196572D01*
%TO.C,TP1*%
X-36329905Y78390477D02*
X-36329905Y78847620D01*
X-35529905Y78619048D02*
X-36329905Y78619048D01*
X-35529905Y79114287D02*
X-36329905Y79114287D01*
X-36329905Y79114287D02*
X-36329905Y79419049D01*
X-36329905Y79419049D02*
X-36291810Y79495239D01*
X-36291810Y79495239D02*
X-36253715Y79533334D01*
X-36253715Y79533334D02*
X-36177524Y79571430D01*
X-36177524Y79571430D02*
X-36063239Y79571430D01*
X-36063239Y79571430D02*
X-35987048Y79533334D01*
X-35987048Y79533334D02*
X-35948953Y79495239D01*
X-35948953Y79495239D02*
X-35910858Y79419049D01*
X-35910858Y79419049D02*
X-35910858Y79114287D01*
X-35529905Y80333334D02*
X-35529905Y79876191D01*
X-35529905Y80104763D02*
X-36329905Y80104763D01*
X-36329905Y80104763D02*
X-36215620Y80028572D01*
X-36215620Y80028572D02*
X-36139429Y79952382D01*
X-36139429Y79952382D02*
X-36101334Y79876191D01*
%TO.C,TP8*%
X290476Y68579905D02*
X747619Y68579905D01*
X519047Y67779905D02*
X519047Y68579905D01*
X1014286Y67779905D02*
X1014286Y68579905D01*
X1014286Y68579905D02*
X1319048Y68579905D01*
X1319048Y68579905D02*
X1395238Y68541810D01*
X1395238Y68541810D02*
X1433333Y68503715D01*
X1433333Y68503715D02*
X1471429Y68427524D01*
X1471429Y68427524D02*
X1471429Y68313239D01*
X1471429Y68313239D02*
X1433333Y68237048D01*
X1433333Y68237048D02*
X1395238Y68198953D01*
X1395238Y68198953D02*
X1319048Y68160858D01*
X1319048Y68160858D02*
X1014286Y68160858D01*
X1928571Y68237048D02*
X1852381Y68275143D01*
X1852381Y68275143D02*
X1814286Y68313239D01*
X1814286Y68313239D02*
X1776190Y68389429D01*
X1776190Y68389429D02*
X1776190Y68427524D01*
X1776190Y68427524D02*
X1814286Y68503715D01*
X1814286Y68503715D02*
X1852381Y68541810D01*
X1852381Y68541810D02*
X1928571Y68579905D01*
X1928571Y68579905D02*
X2080952Y68579905D01*
X2080952Y68579905D02*
X2157143Y68541810D01*
X2157143Y68541810D02*
X2195238Y68503715D01*
X2195238Y68503715D02*
X2233333Y68427524D01*
X2233333Y68427524D02*
X2233333Y68389429D01*
X2233333Y68389429D02*
X2195238Y68313239D01*
X2195238Y68313239D02*
X2157143Y68275143D01*
X2157143Y68275143D02*
X2080952Y68237048D01*
X2080952Y68237048D02*
X1928571Y68237048D01*
X1928571Y68237048D02*
X1852381Y68198953D01*
X1852381Y68198953D02*
X1814286Y68160858D01*
X1814286Y68160858D02*
X1776190Y68084667D01*
X1776190Y68084667D02*
X1776190Y67932286D01*
X1776190Y67932286D02*
X1814286Y67856096D01*
X1814286Y67856096D02*
X1852381Y67818000D01*
X1852381Y67818000D02*
X1928571Y67779905D01*
X1928571Y67779905D02*
X2080952Y67779905D01*
X2080952Y67779905D02*
X2157143Y67818000D01*
X2157143Y67818000D02*
X2195238Y67856096D01*
X2195238Y67856096D02*
X2233333Y67932286D01*
X2233333Y67932286D02*
X2233333Y68084667D01*
X2233333Y68084667D02*
X2195238Y68160858D01*
X2195238Y68160858D02*
X2157143Y68198953D01*
X2157143Y68198953D02*
X2080952Y68237048D01*
D13*
%TO.C,C51*%
X-180000Y65470000D02*
X-6420000Y65470000D01*
X-180000Y65470000D02*
X-180000Y52230000D01*
X-6420000Y65470000D02*
X-6420000Y52230000D01*
X-180000Y52230000D02*
X-6420000Y52230000D01*
%TO.C,C50*%
X-6620000Y67030000D02*
X-380000Y67030000D01*
X-6620000Y67030000D02*
X-6620000Y80270000D01*
X-380000Y67030000D02*
X-380000Y80270000D01*
X-6620000Y80270000D02*
X-380000Y80270000D01*
%TO.C,TP7*%
X-39440580Y77950000D02*
X-39159420Y77950000D01*
X-39440580Y76750000D02*
X-39159420Y76750000D01*
D14*
%TO.C,D11*%
X250000Y60170000D02*
X250000Y62530000D01*
X2750000Y60170000D02*
X2750000Y62530000D01*
D15*
X1600000Y57950000D02*
G75*
G03*
X1600000Y57950000I-100000J0D01*
G01*
D13*
%TO.C,TP2*%
X-38990580Y71050000D02*
X-38709420Y71050000D01*
X-38990580Y69850000D02*
X-38709420Y69850000D01*
D12*
%TO.C,CN1*%
X-47200000Y89100000D02*
X-47200000Y81500000D01*
X-47200000Y81500000D02*
X2725400Y81500000D01*
X2725400Y89000000D02*
X-47200000Y89100000D01*
X3400000Y88000000D02*
X4600000Y88000000D01*
X4000000Y88800000D02*
X3400000Y88000000D01*
X4600000Y88000000D02*
X4000000Y88800000D01*
X2700000Y81500000D02*
X2725400Y81500000D01*
X2725400Y81500000D02*
X2725400Y89000000D01*
X2725400Y89000000D02*
X2700000Y89000000D01*
X2700000Y89000000D02*
X2700000Y81500000D01*
D14*
%TO.C,D1*%
X50000Y73277500D02*
X50000Y75637500D01*
X2550000Y73277500D02*
X2550000Y75637500D01*
D15*
X1400000Y71057500D02*
G75*
G03*
X1400000Y71057500I-100000J0D01*
G01*
%TO.C,IC1*%
X-43550000Y61100000D02*
X-41750000Y61100000D01*
X-41400000Y61200000D02*
X-36800000Y61200000D01*
X-41400000Y54000000D02*
X-41400000Y61200000D01*
X-36800000Y61200000D02*
X-36800000Y54000000D01*
X-36800000Y54000000D02*
X-41400000Y54000000D01*
D13*
%TO.C,TP10*%
X1459420Y57350000D02*
X1740580Y57350000D01*
X1459420Y56150000D02*
X1740580Y56150000D01*
%TO.C,TP11*%
X-25240580Y70150000D02*
X-24959420Y70150000D01*
X-25240580Y68950000D02*
X-24959420Y68950000D01*
D12*
%TO.C,SW2*%
X-50310000Y52840000D02*
X-40510000Y52840000D01*
X-40510000Y52840000D02*
X-40510000Y43040000D01*
X-40510000Y43040000D02*
X-50310000Y43040000D01*
X-50310000Y43040000D02*
X-50310000Y52840000D01*
D13*
%TO.C,TP9*%
X-49909420Y69100000D02*
X-50190580Y69100000D01*
X-49909420Y70300000D02*
X-50190580Y70300000D01*
%TO.C,TP4*%
X-36140580Y66850000D02*
X-35859420Y66850000D01*
X-36140580Y65650000D02*
X-35859420Y65650000D01*
%TO.C,G\u002A\u002A\u002A*%
G36*
X-51627273Y37390909D02*
G01*
X-51627273Y37336364D01*
X-51863637Y37336364D01*
X-52100001Y37336364D01*
X-52100001Y37390909D01*
X-52100001Y37445455D01*
X-51863637Y37445455D01*
X-51627273Y37445455D01*
X-51627273Y37390909D01*
G37*
G36*
X-56809091Y37872727D02*
G01*
X-56809091Y37590909D01*
X-56472728Y37590909D01*
X-56136364Y37590909D01*
X-56136364Y37872727D01*
X-56136364Y38154546D01*
X-56063637Y38154546D01*
X-55990910Y38154546D01*
X-55990910Y37518182D01*
X-55990910Y36881818D01*
X-56063637Y36881818D01*
X-56136364Y36881818D01*
X-56136364Y37172727D01*
X-56136364Y37463637D01*
X-56472728Y37463637D01*
X-56809091Y37463637D01*
X-56809091Y37172727D01*
X-56809091Y36881818D01*
X-56872728Y36881818D01*
X-56936364Y36881818D01*
X-56936364Y37518182D01*
X-56936364Y38154546D01*
X-56872728Y38154546D01*
X-56809091Y38154546D01*
X-56809091Y37872727D01*
G37*
G36*
X-50227273Y37872727D02*
G01*
X-50227273Y37590909D01*
X-49890910Y37590909D01*
X-49554546Y37590909D01*
X-49554546Y37872727D01*
X-49554546Y38154546D01*
X-49481819Y38154546D01*
X-49409091Y38154546D01*
X-49409091Y37518182D01*
X-49409091Y36881818D01*
X-49481819Y36881818D01*
X-49554546Y36881818D01*
X-49554546Y37172727D01*
X-49554546Y37463637D01*
X-49890910Y37463637D01*
X-50227273Y37463637D01*
X-50227273Y37172727D01*
X-50227273Y36881818D01*
X-50300001Y36881818D01*
X-50372728Y36881818D01*
X-50372728Y37518182D01*
X-50372728Y38154546D01*
X-50300001Y38154546D01*
X-50227273Y38154546D01*
X-50227273Y37872727D01*
G37*
G36*
X-54259531Y37853266D02*
G01*
X-54254546Y37551986D01*
X-54000001Y37852194D01*
X-53745455Y38152402D01*
X-53657768Y38153474D01*
X-53570080Y38154546D01*
X-53621404Y38093156D01*
X-53650589Y38059328D01*
X-53698968Y38004452D01*
X-53761306Y37934417D01*
X-53832368Y37855110D01*
X-53887960Y37793396D01*
X-53957199Y37715398D01*
X-54016485Y37646087D01*
X-54062011Y37590124D01*
X-54089971Y37552168D01*
X-54097050Y37537428D01*
X-54083606Y37519136D01*
X-54049538Y37478054D01*
X-53998512Y37418451D01*
X-53934197Y37344598D01*
X-53860258Y37260766D01*
X-53836364Y37233876D01*
X-53740406Y37126246D01*
X-53666468Y37042985D01*
X-53612737Y36980996D01*
X-53577400Y36937182D01*
X-53558646Y36908447D01*
X-53554660Y36891695D01*
X-53563631Y36883829D01*
X-53583745Y36881752D01*
X-53613190Y36882369D01*
X-53630788Y36882719D01*
X-53727273Y36883620D01*
X-53963039Y37165292D01*
X-54036822Y37252988D01*
X-54104460Y37332532D01*
X-54161838Y37399151D01*
X-54204841Y37448074D01*
X-54229355Y37474531D01*
X-54231221Y37476300D01*
X-54242966Y37485214D01*
X-54251471Y37484419D01*
X-54257256Y37469371D01*
X-54260844Y37435525D01*
X-54262756Y37378334D01*
X-54263512Y37293255D01*
X-54263637Y37193727D01*
X-54263637Y36881818D01*
X-54336364Y36881818D01*
X-54409091Y36881818D01*
X-54409091Y37518182D01*
X-54409091Y38154546D01*
X-54336804Y38154546D01*
X-54264516Y38154546D01*
X-54259531Y37853266D01*
G37*
G36*
X-55536364Y37757027D02*
G01*
X-55535462Y37588253D01*
X-55532141Y37451451D01*
X-55525477Y37342260D01*
X-55514545Y37256320D01*
X-55498422Y37189270D01*
X-55476184Y37136748D01*
X-55446906Y37094395D01*
X-55409665Y37057850D01*
X-55383907Y37037487D01*
X-55347428Y37016500D01*
X-55301367Y37004869D01*
X-55234639Y37000333D01*
X-55200001Y37000000D01*
X-55122007Y37002347D01*
X-55069076Y37010894D01*
X-55030123Y37027900D01*
X-55016094Y37037487D01*
X-54973783Y37072659D01*
X-54939974Y37111096D01*
X-54913744Y37157158D01*
X-54894167Y37215206D01*
X-54880321Y37289601D01*
X-54871280Y37384705D01*
X-54866122Y37504876D01*
X-54863922Y37654477D01*
X-54863637Y37757027D01*
X-54863637Y38154546D01*
X-54798681Y38154546D01*
X-54733725Y38154546D01*
X-54739590Y37668182D01*
X-54745455Y37181818D01*
X-54801389Y37083207D01*
X-54872901Y36988791D01*
X-54965004Y36923021D01*
X-55079785Y36884665D01*
X-55154546Y36874715D01*
X-55221942Y36871418D01*
X-55278875Y36871767D01*
X-55309091Y36874997D01*
X-55421045Y36910682D01*
X-55504944Y36956446D01*
X-55568826Y37017913D01*
X-55614434Y37088651D01*
X-55626410Y37112721D01*
X-55635818Y37137997D01*
X-55643033Y37169147D01*
X-55648432Y37210839D01*
X-55652390Y37267743D01*
X-55655285Y37344528D01*
X-55657491Y37445862D01*
X-55659385Y37576414D01*
X-55660392Y37659091D01*
X-55666239Y38154546D01*
X-55601301Y38154546D01*
X-55536364Y38154546D01*
X-55536364Y37757027D01*
G37*
G36*
X-52746167Y38150288D02*
G01*
X-52620319Y38100676D01*
X-52512137Y38022488D01*
X-52425041Y37917934D01*
X-52362453Y37789223D01*
X-52338575Y37703651D01*
X-52319711Y37544556D01*
X-52329968Y37392156D01*
X-52367437Y37250994D01*
X-52430209Y37125613D01*
X-52516376Y37020554D01*
X-52624028Y36940361D01*
X-52668760Y36917973D01*
X-52754724Y36891152D01*
X-52858684Y36874827D01*
X-52964488Y36870441D01*
X-53055984Y36879438D01*
X-53068465Y36882278D01*
X-53200032Y36932951D01*
X-53311013Y37011429D01*
X-53399390Y37114252D01*
X-53463146Y37237960D01*
X-53500264Y37379093D01*
X-53508727Y37534191D01*
X-53505456Y37569875D01*
X-53366089Y37569875D01*
X-53361270Y37431723D01*
X-53356384Y37401620D01*
X-53327224Y37287073D01*
X-53284312Y37196473D01*
X-53222216Y37118366D01*
X-53221885Y37118025D01*
X-53126304Y37044758D01*
X-53014602Y37002207D01*
X-52891854Y36991537D01*
X-52765746Y37013133D01*
X-52677917Y37056336D01*
X-52597859Y37127280D01*
X-52533440Y37217346D01*
X-52494578Y37310295D01*
X-52466880Y37457837D01*
X-52466889Y37596874D01*
X-52492522Y37723698D01*
X-52541696Y37834596D01*
X-52612331Y37925860D01*
X-52702345Y37993777D01*
X-52809655Y38034638D01*
X-52906982Y38045353D01*
X-53027168Y38028851D01*
X-53133734Y37981740D01*
X-53223795Y37908153D01*
X-53294465Y37812224D01*
X-53342858Y37698087D01*
X-53366089Y37569875D01*
X-53505456Y37569875D01*
X-53500547Y37623417D01*
X-53463921Y37781885D01*
X-53402820Y37913492D01*
X-53317276Y38018202D01*
X-53207321Y38095977D01*
X-53072989Y38146779D01*
X-53037175Y38154944D01*
X-52886259Y38169114D01*
X-52746167Y38150288D01*
G37*
G36*
X-57355441Y38153039D02*
G01*
X-57263637Y38133351D01*
X-57263637Y38052572D01*
X-57263637Y37971794D01*
X-57321906Y38001926D01*
X-57388998Y38024764D01*
X-57475762Y38038704D01*
X-57566321Y38042502D01*
X-57644796Y38034912D01*
X-57667424Y38029023D01*
X-57744420Y37988794D01*
X-57795334Y37931568D01*
X-57818042Y37864092D01*
X-57810419Y37793115D01*
X-57770342Y37725384D01*
X-57764857Y37719456D01*
X-57723518Y37684945D01*
X-57661272Y37642862D01*
X-57590091Y37601168D01*
X-57574361Y37592807D01*
X-57498535Y37551380D01*
X-57424516Y37507697D01*
X-57366551Y37470219D01*
X-57359585Y37465266D01*
X-57279223Y37388347D01*
X-57229616Y37300655D01*
X-57210204Y37208058D01*
X-57220424Y37116422D01*
X-57259715Y37031617D01*
X-57327514Y36959509D01*
X-57412743Y36910192D01*
X-57482665Y36890385D01*
X-57573687Y36877186D01*
X-57670959Y36871706D01*
X-57759637Y36875055D01*
X-57800000Y36881201D01*
X-57880153Y36900354D01*
X-57930927Y36919117D01*
X-57958893Y36942577D01*
X-57970620Y36975821D01*
X-57972728Y37014952D01*
X-57972728Y37094440D01*
X-57882355Y37049715D01*
X-57794002Y37017472D01*
X-57692588Y36998087D01*
X-57592273Y36993108D01*
X-57507219Y37004081D01*
X-57495738Y37007497D01*
X-57423296Y37044095D01*
X-57379434Y37099657D01*
X-57359540Y37177372D01*
X-57359397Y37230327D01*
X-57374521Y37277134D01*
X-57408821Y37321987D01*
X-57466207Y37369077D01*
X-57550589Y37422595D01*
X-57629990Y37467317D01*
X-57748871Y37536594D01*
X-57837089Y37598876D01*
X-57898707Y37657955D01*
X-57937788Y37717620D01*
X-57956354Y37771766D01*
X-57962365Y37870608D01*
X-57936617Y37959414D01*
X-57882907Y38035776D01*
X-57805031Y38097283D01*
X-57706785Y38141529D01*
X-57591965Y38166105D01*
X-57464368Y38168601D01*
X-57355441Y38153039D01*
G37*
G36*
X-50837157Y38164192D02*
G01*
X-50786271Y38155470D01*
X-50681819Y38133786D01*
X-50681819Y38052790D01*
X-50681819Y37971794D01*
X-50740088Y38001926D01*
X-50823208Y38031592D01*
X-50916470Y38043699D01*
X-51011111Y38039461D01*
X-51098367Y38020093D01*
X-51169477Y37986810D01*
X-51215678Y37940824D01*
X-51218570Y37935615D01*
X-51243737Y37864197D01*
X-51239940Y37799281D01*
X-51205492Y37738116D01*
X-51138707Y37677948D01*
X-51037900Y37616025D01*
X-51015658Y37604297D01*
X-50899267Y37541515D01*
X-50811579Y37487396D01*
X-50747278Y37437758D01*
X-50701049Y37388421D01*
X-50667575Y37335202D01*
X-50663766Y37327539D01*
X-50634551Y37229226D01*
X-50638752Y37131908D01*
X-50673869Y37042256D01*
X-50737400Y36966938D01*
X-50817957Y36916408D01*
X-50904794Y36890044D01*
X-51011943Y36875173D01*
X-51124900Y36872784D01*
X-51229165Y36883865D01*
X-51245455Y36887267D01*
X-51317345Y36905347D01*
X-51360628Y36923513D01*
X-51382499Y36948229D01*
X-51390151Y36985961D01*
X-51390910Y37017975D01*
X-51390910Y37097440D01*
X-51310137Y37052295D01*
X-51227141Y37019315D01*
X-51126684Y36998924D01*
X-51023656Y36992754D01*
X-50932948Y37002433D01*
X-50910649Y37008577D01*
X-50846028Y37046316D01*
X-50797430Y37105654D01*
X-50773818Y37174729D01*
X-50772864Y37190909D01*
X-50789387Y37258563D01*
X-50834502Y37325841D01*
X-50901524Y37383536D01*
X-50921588Y37395761D01*
X-50974773Y37425590D01*
X-51046442Y37465692D01*
X-51123315Y37508638D01*
X-51143536Y37519922D01*
X-51248065Y37586802D01*
X-51320512Y37654684D01*
X-51364945Y37728503D01*
X-51385430Y37813191D01*
X-51385442Y37813304D01*
X-51378904Y37906796D01*
X-51341199Y37989966D01*
X-51276671Y38060333D01*
X-51189660Y38115419D01*
X-51084510Y38152744D01*
X-50965561Y38169828D01*
X-50837157Y38164192D01*
G37*
G36*
X-48658922Y38150931D02*
G01*
X-48586173Y38145455D01*
X-48343087Y37518453D01*
X-48287987Y37376206D01*
X-48237263Y37245013D01*
X-48192364Y37128643D01*
X-48154740Y37030864D01*
X-48125843Y36955446D01*
X-48107121Y36906157D01*
X-48100025Y36886766D01*
X-48100000Y36886635D01*
X-48116221Y36883701D01*
X-48157041Y36881994D01*
X-48177874Y36881818D01*
X-48255748Y36881818D01*
X-48321093Y37059091D01*
X-48386439Y37236364D01*
X-48661671Y37241384D01*
X-48767003Y37243136D01*
X-48841666Y37243446D01*
X-48891350Y37241600D01*
X-48921743Y37236884D01*
X-48938531Y37228587D01*
X-48947405Y37215993D01*
X-48951675Y37205021D01*
X-48964684Y37168622D01*
X-48985860Y37109422D01*
X-49011113Y37038856D01*
X-49016886Y37022727D01*
X-49067326Y36881818D01*
X-49148373Y36881818D01*
X-49194823Y36884495D01*
X-49219742Y36891276D01*
X-49221112Y36895455D01*
X-49212809Y36915150D01*
X-49193111Y36964695D01*
X-49163617Y37039978D01*
X-49125931Y37136885D01*
X-49081652Y37251306D01*
X-49032381Y37379128D01*
X-49025726Y37396442D01*
X-48875968Y37396442D01*
X-48872387Y37384900D01*
X-48855286Y37377885D01*
X-48818968Y37374268D01*
X-48757735Y37372925D01*
X-48665889Y37372727D01*
X-48664862Y37372727D01*
X-48580378Y37373350D01*
X-48510982Y37375046D01*
X-48463680Y37377560D01*
X-48445479Y37380635D01*
X-48445455Y37380754D01*
X-48451298Y37399703D01*
X-48467455Y37446951D01*
X-48491865Y37516601D01*
X-48522467Y37602759D01*
X-48545455Y37666910D01*
X-48579227Y37762196D01*
X-48608127Y37846317D01*
X-48630061Y37912972D01*
X-48642936Y37955859D01*
X-48645455Y37967975D01*
X-48656852Y37989243D01*
X-48663637Y37990909D01*
X-48680425Y37976494D01*
X-48681819Y37967549D01*
X-48687753Y37942785D01*
X-48704055Y37890732D01*
X-48728471Y37818206D01*
X-48758746Y37732023D01*
X-48770500Y37699368D01*
X-48803443Y37607997D01*
X-48832703Y37526044D01*
X-48855637Y37460974D01*
X-48869602Y37420248D01*
X-48871726Y37413636D01*
X-48875968Y37396442D01*
X-49025726Y37396442D01*
X-49000138Y37463018D01*
X-48947423Y37600235D01*
X-48897732Y37729411D01*
X-48852868Y37845874D01*
X-48814635Y37944948D01*
X-48784834Y38021958D01*
X-48765270Y38072231D01*
X-48759572Y38086676D01*
X-48739118Y38130915D01*
X-48716332Y38149741D01*
X-48677124Y38152150D01*
X-48658922Y38150931D01*
G37*
D12*
%TO.C,SW1*%
X-60510000Y52890000D02*
X-50710000Y52890000D01*
X-50710000Y52890000D02*
X-50710000Y43090000D01*
X-50710000Y43090000D02*
X-60510000Y43090000D01*
X-60510000Y43090000D02*
X-60510000Y52890000D01*
%TO.C,SW5*%
X-52600000Y55450000D02*
X-53975000Y55450000D01*
X-52600000Y57950000D02*
X-53975000Y57950000D01*
X-54350000Y55075000D02*
X-57350000Y54200000D01*
X-54350000Y57575000D02*
X-57350000Y56700000D01*
X-58600000Y55450000D02*
X-57850000Y55450000D01*
X-58600000Y57950000D02*
X-57850000Y57950000D01*
X-50900000Y53500000D02*
X-60300000Y53500000D01*
X-60300000Y53500000D02*
X-60300000Y60200000D01*
X-60300000Y60200000D02*
X-50900000Y60200000D01*
X-50900000Y60200000D02*
X-50900000Y53500000D01*
X-53975000Y55450000D02*
G75*
G03*
X-53975000Y55450000I-375000J0D01*
G01*
X-53975000Y57950000D02*
G75*
G03*
X-53975000Y57950000I-375000J0D01*
G01*
X-56975000Y55450000D02*
G75*
G03*
X-56975000Y55450000I-375000J0D01*
G01*
X-56975000Y57950000D02*
G75*
G03*
X-56975000Y57950000I-375000J0D01*
G01*
%TO.C,SW3*%
X-40060000Y52890000D02*
X-30260000Y52890000D01*
X-30260000Y52890000D02*
X-30260000Y43090000D01*
X-30260000Y43090000D02*
X-40060000Y43090000D01*
X-40060000Y43090000D02*
X-40060000Y52890000D01*
D13*
%TO.C,C10*%
X-35479646Y78825000D02*
X-34479646Y78825000D01*
X-34979646Y79325000D02*
X-34979646Y78325000D01*
X-30000000Y81030000D02*
X-30000000Y70870000D01*
X-29960000Y81030000D02*
X-29960000Y70870000D01*
X-29920000Y81030000D02*
X-29920000Y70870000D01*
X-29880000Y81029000D02*
X-29880000Y70871000D01*
X-29840000Y81028000D02*
X-29840000Y70872000D01*
X-29800000Y81027000D02*
X-29800000Y70873000D01*
X-29760000Y81025000D02*
X-29760000Y70875000D01*
X-29720000Y81023000D02*
X-29720000Y70877000D01*
X-29680000Y81020000D02*
X-29680000Y70880000D01*
X-29640000Y81018000D02*
X-29640000Y70882000D01*
X-29600000Y81015000D02*
X-29600000Y70885000D01*
X-29560000Y81012000D02*
X-29560000Y70888000D01*
X-29520000Y81008000D02*
X-29520000Y70892000D01*
X-29480000Y81004000D02*
X-29480000Y70896000D01*
X-29440000Y81000000D02*
X-29440000Y70900000D01*
X-29400000Y80995000D02*
X-29400000Y70905000D01*
X-29360000Y80990000D02*
X-29360000Y70910000D01*
X-29320000Y80985000D02*
X-29320000Y70915000D01*
X-29279000Y80980000D02*
X-29279000Y70920000D01*
X-29239000Y80974000D02*
X-29239000Y70926000D01*
X-29199000Y80968000D02*
X-29199000Y70932000D01*
X-29159000Y80961000D02*
X-29159000Y70939000D01*
X-29119000Y80954000D02*
X-29119000Y70946000D01*
X-29079000Y80947000D02*
X-29079000Y70953000D01*
X-29039000Y80940000D02*
X-29039000Y70960000D01*
X-28999000Y80932000D02*
X-28999000Y70968000D01*
X-28959000Y80924000D02*
X-28959000Y70976000D01*
X-28919000Y80915000D02*
X-28919000Y70985000D01*
X-28879000Y80906000D02*
X-28879000Y70994000D01*
X-28839000Y80897000D02*
X-28839000Y71003000D01*
X-28799000Y80888000D02*
X-28799000Y71012000D01*
X-28759000Y80878000D02*
X-28759000Y71022000D01*
X-28719000Y80868000D02*
X-28719000Y77191000D01*
X-28719000Y74709000D02*
X-28719000Y71032000D01*
X-28679000Y80857000D02*
X-28679000Y77191000D01*
X-28679000Y74709000D02*
X-28679000Y71043000D01*
X-28639000Y80847000D02*
X-28639000Y77191000D01*
X-28639000Y74709000D02*
X-28639000Y71053000D01*
X-28599000Y80835000D02*
X-28599000Y77191000D01*
X-28599000Y74709000D02*
X-28599000Y71065000D01*
X-28559000Y80824000D02*
X-28559000Y77191000D01*
X-28559000Y74709000D02*
X-28559000Y71076000D01*
X-28519000Y80812000D02*
X-28519000Y77191000D01*
X-28519000Y74709000D02*
X-28519000Y71088000D01*
X-28479000Y80800000D02*
X-28479000Y77191000D01*
X-28479000Y74709000D02*
X-28479000Y71100000D01*
X-28439000Y80787000D02*
X-28439000Y77191000D01*
X-28439000Y74709000D02*
X-28439000Y71113000D01*
X-28399000Y80774000D02*
X-28399000Y77191000D01*
X-28399000Y74709000D02*
X-28399000Y71126000D01*
X-28359000Y80761000D02*
X-28359000Y77191000D01*
X-28359000Y74709000D02*
X-28359000Y71139000D01*
X-28319000Y80747000D02*
X-28319000Y77191000D01*
X-28319000Y74709000D02*
X-28319000Y71153000D01*
X-28279000Y80733000D02*
X-28279000Y77191000D01*
X-28279000Y74709000D02*
X-28279000Y71167000D01*
X-28239000Y80718000D02*
X-28239000Y77191000D01*
X-28239000Y74709000D02*
X-28239000Y71182000D01*
X-28199000Y80704000D02*
X-28199000Y77191000D01*
X-28199000Y74709000D02*
X-28199000Y71196000D01*
X-28159000Y80688000D02*
X-28159000Y77191000D01*
X-28159000Y74709000D02*
X-28159000Y71212000D01*
X-28119000Y80673000D02*
X-28119000Y77191000D01*
X-28119000Y74709000D02*
X-28119000Y71227000D01*
X-28079000Y80657000D02*
X-28079000Y77191000D01*
X-28079000Y74709000D02*
X-28079000Y71243000D01*
X-28039000Y80640000D02*
X-28039000Y77191000D01*
X-28039000Y74709000D02*
X-28039000Y71260000D01*
X-27999000Y80624000D02*
X-27999000Y77191000D01*
X-27999000Y74709000D02*
X-27999000Y71276000D01*
X-27959000Y80607000D02*
X-27959000Y77191000D01*
X-27959000Y74709000D02*
X-27959000Y71293000D01*
X-27919000Y80589000D02*
X-27919000Y77191000D01*
X-27919000Y74709000D02*
X-27919000Y71311000D01*
X-27879000Y80571000D02*
X-27879000Y77191000D01*
X-27879000Y74709000D02*
X-27879000Y71329000D01*
X-27839000Y80553000D02*
X-27839000Y77191000D01*
X-27839000Y74709000D02*
X-27839000Y71347000D01*
X-27799000Y80534000D02*
X-27799000Y77191000D01*
X-27799000Y74709000D02*
X-27799000Y71366000D01*
X-27759000Y80514000D02*
X-27759000Y77191000D01*
X-27759000Y74709000D02*
X-27759000Y71386000D01*
X-27719000Y80495000D02*
X-27719000Y77191000D01*
X-27719000Y74709000D02*
X-27719000Y71405000D01*
X-27679000Y80475000D02*
X-27679000Y77191000D01*
X-27679000Y74709000D02*
X-27679000Y71425000D01*
X-27639000Y80454000D02*
X-27639000Y77191000D01*
X-27639000Y74709000D02*
X-27639000Y71446000D01*
X-27599000Y80433000D02*
X-27599000Y77191000D01*
X-27599000Y74709000D02*
X-27599000Y71467000D01*
X-27559000Y80412000D02*
X-27559000Y77191000D01*
X-27559000Y74709000D02*
X-27559000Y71488000D01*
X-27519000Y80390000D02*
X-27519000Y77191000D01*
X-27519000Y74709000D02*
X-27519000Y71510000D01*
X-27479000Y80367000D02*
X-27479000Y77191000D01*
X-27479000Y74709000D02*
X-27479000Y71533000D01*
X-27439000Y80345000D02*
X-27439000Y77191000D01*
X-27439000Y74709000D02*
X-27439000Y71555000D01*
X-27399000Y80321000D02*
X-27399000Y77191000D01*
X-27399000Y74709000D02*
X-27399000Y71579000D01*
X-27359000Y80297000D02*
X-27359000Y77191000D01*
X-27359000Y74709000D02*
X-27359000Y71603000D01*
X-27319000Y80273000D02*
X-27319000Y77191000D01*
X-27319000Y74709000D02*
X-27319000Y71627000D01*
X-27279000Y80248000D02*
X-27279000Y77191000D01*
X-27279000Y74709000D02*
X-27279000Y71652000D01*
X-27239000Y80223000D02*
X-27239000Y77191000D01*
X-27239000Y74709000D02*
X-27239000Y71677000D01*
X-27199000Y80197000D02*
X-27199000Y77191000D01*
X-27199000Y74709000D02*
X-27199000Y71703000D01*
X-27159000Y80171000D02*
X-27159000Y77191000D01*
X-27159000Y74709000D02*
X-27159000Y71729000D01*
X-27119000Y80144000D02*
X-27119000Y77191000D01*
X-27119000Y74709000D02*
X-27119000Y71756000D01*
X-27079000Y80116000D02*
X-27079000Y77191000D01*
X-27079000Y74709000D02*
X-27079000Y71784000D01*
X-27039000Y80088000D02*
X-27039000Y77191000D01*
X-27039000Y74709000D02*
X-27039000Y71812000D01*
X-26999000Y80060000D02*
X-26999000Y77191000D01*
X-26999000Y74709000D02*
X-26999000Y71840000D01*
X-26959000Y80030000D02*
X-26959000Y77191000D01*
X-26959000Y74709000D02*
X-26959000Y71870000D01*
X-26919000Y80000000D02*
X-26919000Y77191000D01*
X-26919000Y74709000D02*
X-26919000Y71900000D01*
X-26879000Y79970000D02*
X-26879000Y77191000D01*
X-26879000Y74709000D02*
X-26879000Y71930000D01*
X-26839000Y79939000D02*
X-26839000Y77191000D01*
X-26839000Y74709000D02*
X-26839000Y71961000D01*
X-26799000Y79907000D02*
X-26799000Y77191000D01*
X-26799000Y74709000D02*
X-26799000Y71993000D01*
X-26759000Y79875000D02*
X-26759000Y77191000D01*
X-26759000Y74709000D02*
X-26759000Y72025000D01*
X-26719000Y79842000D02*
X-26719000Y77191000D01*
X-26719000Y74709000D02*
X-26719000Y72058000D01*
X-26679000Y79808000D02*
X-26679000Y77191000D01*
X-26679000Y74709000D02*
X-26679000Y72092000D01*
X-26639000Y79774000D02*
X-26639000Y77191000D01*
X-26639000Y74709000D02*
X-26639000Y72126000D01*
X-26599000Y79739000D02*
X-26599000Y77191000D01*
X-26599000Y74709000D02*
X-26599000Y72161000D01*
X-26559000Y79703000D02*
X-26559000Y77191000D01*
X-26559000Y74709000D02*
X-26559000Y72197000D01*
X-26519000Y79666000D02*
X-26519000Y77191000D01*
X-26519000Y74709000D02*
X-26519000Y72234000D01*
X-26479000Y79629000D02*
X-26479000Y77191000D01*
X-26479000Y74709000D02*
X-26479000Y72271000D01*
X-26439000Y79590000D02*
X-26439000Y77191000D01*
X-26439000Y74709000D02*
X-26439000Y72310000D01*
X-26399000Y79551000D02*
X-26399000Y77191000D01*
X-26399000Y74709000D02*
X-26399000Y72349000D01*
X-26359000Y79511000D02*
X-26359000Y77191000D01*
X-26359000Y74709000D02*
X-26359000Y72389000D01*
X-26319000Y79470000D02*
X-26319000Y77191000D01*
X-26319000Y74709000D02*
X-26319000Y72430000D01*
X-26279000Y79428000D02*
X-26279000Y77191000D01*
X-26279000Y74709000D02*
X-26279000Y72472000D01*
X-26239000Y79386000D02*
X-26239000Y72514000D01*
X-26199000Y79342000D02*
X-26199000Y72558000D01*
X-26159000Y79297000D02*
X-26159000Y72603000D01*
X-26119000Y79251000D02*
X-26119000Y72649000D01*
X-26079000Y79204000D02*
X-26079000Y72696000D01*
X-26039000Y79156000D02*
X-26039000Y72744000D01*
X-25999000Y79106000D02*
X-25999000Y72794000D01*
X-25959000Y79056000D02*
X-25959000Y72844000D01*
X-25919000Y79004000D02*
X-25919000Y72896000D01*
X-25879000Y78950000D02*
X-25879000Y72950000D01*
X-25839000Y78895000D02*
X-25839000Y73005000D01*
X-25799000Y78839000D02*
X-25799000Y73061000D01*
X-25759000Y78780000D02*
X-25759000Y73120000D01*
X-25719000Y78720000D02*
X-25719000Y73180000D01*
X-25679000Y78659000D02*
X-25679000Y73241000D01*
X-25639000Y78595000D02*
X-25639000Y73305000D01*
X-25599000Y78529000D02*
X-25599000Y73371000D01*
X-25559000Y78460000D02*
X-25559000Y73440000D01*
X-25519000Y78389000D02*
X-25519000Y73511000D01*
X-25479000Y78315000D02*
X-25479000Y73585000D01*
X-25439000Y78239000D02*
X-25439000Y73661000D01*
X-25399000Y78159000D02*
X-25399000Y73741000D01*
X-25359000Y78075000D02*
X-25359000Y73825000D01*
X-25319000Y77987000D02*
X-25319000Y73913000D01*
X-25279000Y77894000D02*
X-25279000Y74006000D01*
X-25239000Y77796000D02*
X-25239000Y74104000D01*
X-25199000Y77692000D02*
X-25199000Y74208000D01*
X-25159000Y77580000D02*
X-25159000Y74320000D01*
X-25119000Y77460000D02*
X-25119000Y74440000D01*
X-25079000Y77328000D02*
X-25079000Y74572000D01*
X-25039000Y77180000D02*
X-25039000Y74720000D01*
X-24999000Y77012000D02*
X-24999000Y74888000D01*
X-24959000Y76812000D02*
X-24959000Y75088000D01*
X-24919000Y76549000D02*
X-24919000Y75351000D01*
X-24880000Y75950000D02*
G75*
G03*
X-24880000Y75950000I-5120000J0D01*
G01*
%TO.C,TP3*%
X-33300000Y69809420D02*
X-33300000Y70090580D01*
X-32100000Y69809420D02*
X-32100000Y70090580D01*
%TO.C,C21*%
X-52999759Y66461000D02*
X-53629759Y66461000D01*
X-53314759Y66146000D02*
X-53314759Y66776000D01*
X-56500000Y65070000D02*
X-56500000Y71530000D01*
X-56540000Y65070000D02*
X-56540000Y71530000D01*
X-56580000Y65070000D02*
X-56580000Y71530000D01*
X-56620000Y65072000D02*
X-56620000Y71528000D01*
X-56660000Y65073000D02*
X-56660000Y71527000D01*
X-56700000Y65076000D02*
X-56700000Y71524000D01*
X-56740000Y65078000D02*
X-56740000Y67260000D01*
X-56740000Y69340000D02*
X-56740000Y71522000D01*
X-56780000Y65082000D02*
X-56780000Y67260000D01*
X-56780000Y69340000D02*
X-56780000Y71518000D01*
X-56820000Y65085000D02*
X-56820000Y67260000D01*
X-56820000Y69340000D02*
X-56820000Y71515000D01*
X-56860000Y65089000D02*
X-56860000Y67260000D01*
X-56860000Y69340000D02*
X-56860000Y71511000D01*
X-56900000Y65094000D02*
X-56900000Y67260000D01*
X-56900000Y69340000D02*
X-56900000Y71506000D01*
X-56940000Y65099000D02*
X-56940000Y67260000D01*
X-56940000Y69340000D02*
X-56940000Y71501000D01*
X-56980000Y65105000D02*
X-56980000Y67260000D01*
X-56980000Y69340000D02*
X-56980000Y71495000D01*
X-57020000Y65111000D02*
X-57020000Y67260000D01*
X-57020000Y69340000D02*
X-57020000Y71489000D01*
X-57060000Y65118000D02*
X-57060000Y67260000D01*
X-57060000Y69340000D02*
X-57060000Y71482000D01*
X-57100000Y65125000D02*
X-57100000Y67260000D01*
X-57100000Y69340000D02*
X-57100000Y71475000D01*
X-57140000Y65133000D02*
X-57140000Y67260000D01*
X-57140000Y69340000D02*
X-57140000Y71467000D01*
X-57180000Y65141000D02*
X-57180000Y67260000D01*
X-57180000Y69340000D02*
X-57180000Y71459000D01*
X-57221000Y65150000D02*
X-57221000Y67260000D01*
X-57221000Y69340000D02*
X-57221000Y71450000D01*
X-57261000Y65159000D02*
X-57261000Y67260000D01*
X-57261000Y69340000D02*
X-57261000Y71441000D01*
X-57301000Y65169000D02*
X-57301000Y67260000D01*
X-57301000Y69340000D02*
X-57301000Y71431000D01*
X-57341000Y65179000D02*
X-57341000Y67260000D01*
X-57341000Y69340000D02*
X-57341000Y71421000D01*
X-57381000Y65190000D02*
X-57381000Y67260000D01*
X-57381000Y69340000D02*
X-57381000Y71410000D01*
X-57421000Y65202000D02*
X-57421000Y67260000D01*
X-57421000Y69340000D02*
X-57421000Y71398000D01*
X-57461000Y65214000D02*
X-57461000Y67260000D01*
X-57461000Y69340000D02*
X-57461000Y71386000D01*
X-57501000Y65226000D02*
X-57501000Y67260000D01*
X-57501000Y69340000D02*
X-57501000Y71374000D01*
X-57541000Y65239000D02*
X-57541000Y67260000D01*
X-57541000Y69340000D02*
X-57541000Y71361000D01*
X-57581000Y65253000D02*
X-57581000Y67260000D01*
X-57581000Y69340000D02*
X-57581000Y71347000D01*
X-57621000Y65267000D02*
X-57621000Y67260000D01*
X-57621000Y69340000D02*
X-57621000Y71333000D01*
X-57661000Y65282000D02*
X-57661000Y67260000D01*
X-57661000Y69340000D02*
X-57661000Y71318000D01*
X-57701000Y65298000D02*
X-57701000Y67260000D01*
X-57701000Y69340000D02*
X-57701000Y71302000D01*
X-57741000Y65314000D02*
X-57741000Y67260000D01*
X-57741000Y69340000D02*
X-57741000Y71286000D01*
X-57781000Y65330000D02*
X-57781000Y67260000D01*
X-57781000Y69340000D02*
X-57781000Y71270000D01*
X-57821000Y65348000D02*
X-57821000Y67260000D01*
X-57821000Y69340000D02*
X-57821000Y71252000D01*
X-57861000Y65366000D02*
X-57861000Y67260000D01*
X-57861000Y69340000D02*
X-57861000Y71234000D01*
X-57901000Y65384000D02*
X-57901000Y67260000D01*
X-57901000Y69340000D02*
X-57901000Y71216000D01*
X-57941000Y65404000D02*
X-57941000Y67260000D01*
X-57941000Y69340000D02*
X-57941000Y71196000D01*
X-57981000Y65424000D02*
X-57981000Y67260000D01*
X-57981000Y69340000D02*
X-57981000Y71176000D01*
X-58021000Y65444000D02*
X-58021000Y67260000D01*
X-58021000Y69340000D02*
X-58021000Y71156000D01*
X-58061000Y65466000D02*
X-58061000Y67260000D01*
X-58061000Y69340000D02*
X-58061000Y71134000D01*
X-58101000Y65488000D02*
X-58101000Y67260000D01*
X-58101000Y69340000D02*
X-58101000Y71112000D01*
X-58141000Y65510000D02*
X-58141000Y67260000D01*
X-58141000Y69340000D02*
X-58141000Y71090000D01*
X-58181000Y65534000D02*
X-58181000Y67260000D01*
X-58181000Y69340000D02*
X-58181000Y71066000D01*
X-58221000Y65558000D02*
X-58221000Y67260000D01*
X-58221000Y69340000D02*
X-58221000Y71042000D01*
X-58261000Y65584000D02*
X-58261000Y67260000D01*
X-58261000Y69340000D02*
X-58261000Y71016000D01*
X-58301000Y65610000D02*
X-58301000Y67260000D01*
X-58301000Y69340000D02*
X-58301000Y70990000D01*
X-58341000Y65636000D02*
X-58341000Y67260000D01*
X-58341000Y69340000D02*
X-58341000Y70964000D01*
X-58381000Y65664000D02*
X-58381000Y67260000D01*
X-58381000Y69340000D02*
X-58381000Y70936000D01*
X-58421000Y65693000D02*
X-58421000Y67260000D01*
X-58421000Y69340000D02*
X-58421000Y70907000D01*
X-58461000Y65722000D02*
X-58461000Y67260000D01*
X-58461000Y69340000D02*
X-58461000Y70878000D01*
X-58501000Y65752000D02*
X-58501000Y67260000D01*
X-58501000Y69340000D02*
X-58501000Y70848000D01*
X-58541000Y65784000D02*
X-58541000Y67260000D01*
X-58541000Y69340000D02*
X-58541000Y70816000D01*
X-58581000Y65816000D02*
X-58581000Y67260000D01*
X-58581000Y69340000D02*
X-58581000Y70784000D01*
X-58621000Y65850000D02*
X-58621000Y67260000D01*
X-58621000Y69340000D02*
X-58621000Y70750000D01*
X-58661000Y65884000D02*
X-58661000Y67260000D01*
X-58661000Y69340000D02*
X-58661000Y70716000D01*
X-58701000Y65920000D02*
X-58701000Y67260000D01*
X-58701000Y69340000D02*
X-58701000Y70680000D01*
X-58741000Y65957000D02*
X-58741000Y67260000D01*
X-58741000Y69340000D02*
X-58741000Y70643000D01*
X-58781000Y65995000D02*
X-58781000Y67260000D01*
X-58781000Y69340000D02*
X-58781000Y70605000D01*
X-58821000Y66035000D02*
X-58821000Y70565000D01*
X-58861000Y66076000D02*
X-58861000Y70524000D01*
X-58901000Y66118000D02*
X-58901000Y70482000D01*
X-58941000Y66163000D02*
X-58941000Y70437000D01*
X-58981000Y66208000D02*
X-58981000Y70392000D01*
X-59021000Y66256000D02*
X-59021000Y70344000D01*
X-59061000Y66305000D02*
X-59061000Y70295000D01*
X-59101000Y66356000D02*
X-59101000Y70244000D01*
X-59141000Y66410000D02*
X-59141000Y70190000D01*
X-59181000Y66466000D02*
X-59181000Y70134000D01*
X-59221000Y66524000D02*
X-59221000Y70076000D01*
X-59261000Y66586000D02*
X-59261000Y70014000D01*
X-59301000Y66650000D02*
X-59301000Y69950000D01*
X-59341000Y66719000D02*
X-59341000Y69881000D01*
X-59381000Y66791000D02*
X-59381000Y69809000D01*
X-59421000Y66868000D02*
X-59421000Y69732000D01*
X-59461000Y66950000D02*
X-59461000Y69650000D01*
X-59501000Y67038000D02*
X-59501000Y69562000D01*
X-59541000Y67135000D02*
X-59541000Y69465000D01*
X-59581000Y67241000D02*
X-59581000Y69359000D01*
X-59621000Y67360000D02*
X-59621000Y69240000D01*
X-59661000Y67498000D02*
X-59661000Y69102000D01*
X-59701000Y67667000D02*
X-59701000Y68933000D01*
X-59741000Y67898000D02*
X-59741000Y68702000D01*
X-53230000Y68300000D02*
G75*
G03*
X-53230000Y68300000I-3270000J0D01*
G01*
%TO.C,TP5*%
X-30300000Y59309420D02*
X-30300000Y59590580D01*
X-29100000Y59309420D02*
X-29100000Y59590580D01*
%TO.C,TP12*%
X-42240580Y67650000D02*
X-41959420Y67650000D01*
X-42240580Y66450000D02*
X-41959420Y66450000D01*
D12*
%TO.C,SW4*%
X-29810000Y52890000D02*
X-20010000Y52890000D01*
X-20010000Y52890000D02*
X-20010000Y43090000D01*
X-20010000Y43090000D02*
X-29810000Y43090000D01*
X-29810000Y43090000D02*
X-29810000Y52890000D01*
D13*
%TO.C,TP1*%
X-36700000Y76209420D02*
X-36700000Y76490580D01*
X-35500000Y76209420D02*
X-35500000Y76490580D01*
%TO.C,TP8*%
X959420Y69950000D02*
X1240580Y69950000D01*
X959420Y68750000D02*
X1240580Y68750000D01*
%TD*%
%LPC*%
D16*
%TO.C,C51*%
X-3300000Y63850000D03*
X-3300000Y53850000D03*
%TD*%
%TO.C,C50*%
X-3500000Y68650000D03*
X-3500000Y78650000D03*
%TD*%
D17*
%TO.C,TP7*%
X-39300000Y77350000D03*
%TD*%
D18*
%TO.C,D11*%
X1500000Y63475000D03*
X1500000Y59225000D03*
%TD*%
D17*
%TO.C,TP2*%
X-38850000Y70450000D03*
%TD*%
D19*
%TO.C,CN1*%
X-1600000Y83500000D03*
X-7600000Y83500000D03*
X-13600000Y83500000D03*
X-19600000Y83500000D03*
X-25600000Y83500000D03*
X-31600000Y83500000D03*
X-37600000Y83500000D03*
X-43600000Y83500000D03*
X-41800000Y87500000D03*
X-35800000Y87500000D03*
X-29800000Y87500000D03*
X-23800000Y87500000D03*
X-17800000Y87500000D03*
X-11800000Y87500000D03*
X-5800000Y87500000D03*
X200000Y87500000D03*
%TD*%
D18*
%TO.C,D1*%
X1300000Y76582500D03*
X1300000Y72332500D03*
%TD*%
D20*
%TO.C,IC1*%
X-42650000Y60525000D03*
X-42650000Y59875000D03*
X-42650000Y59225000D03*
X-42650000Y58575000D03*
X-42650000Y57925000D03*
X-42650000Y57275000D03*
X-42650000Y56625000D03*
X-42650000Y55975000D03*
X-42650000Y55325000D03*
X-42650000Y54675000D03*
X-35550000Y54675000D03*
X-35550000Y55325000D03*
X-35550000Y55975000D03*
X-35550000Y56625000D03*
X-35550000Y57275000D03*
X-35550000Y57925000D03*
X-35550000Y58575000D03*
X-35550000Y59225000D03*
X-35550000Y59875000D03*
X-35550000Y60525000D03*
%TD*%
D17*
%TO.C,TP10*%
X1600000Y56750000D03*
%TD*%
%TO.C,TP11*%
X-25100000Y69550000D03*
%TD*%
D21*
%TO.C,SW2*%
X-41600000Y50580000D03*
X-41600000Y45500000D03*
X-49220000Y48040000D03*
X-49220000Y50580000D03*
X-49220000Y45500000D03*
%TD*%
D22*
%TO.C,TP9*%
X-50050000Y69700000D03*
%TD*%
D17*
%TO.C,TP4*%
X-36000000Y66250000D03*
%TD*%
D21*
%TO.C,SW1*%
X-51800000Y50630000D03*
X-51800000Y45550000D03*
X-59420000Y48090000D03*
X-59420000Y50630000D03*
X-59420000Y45550000D03*
%TD*%
%TO.C,SW5*%
X-51790000Y55430000D03*
X-51790000Y57970000D03*
X-59410000Y57970000D03*
X-59410000Y55430000D03*
%TD*%
%TO.C,SW3*%
X-31350000Y50630000D03*
X-31350000Y45550000D03*
X-38970000Y48090000D03*
X-38970000Y50630000D03*
X-38970000Y45550000D03*
%TD*%
D23*
%TO.C,C10*%
X-32500000Y75950000D03*
D16*
X-27500000Y75950000D03*
%TD*%
D24*
%TO.C,TP3*%
X-32700000Y69950000D03*
%TD*%
D25*
%TO.C,C21*%
X-55250000Y68300000D03*
D26*
X-57750000Y68300000D03*
%TD*%
D24*
%TO.C,TP5*%
X-29700000Y59450000D03*
%TD*%
D17*
%TO.C,TP12*%
X-42100000Y67050000D03*
%TD*%
D21*
%TO.C,SW4*%
X-21100000Y50630000D03*
X-21100000Y45550000D03*
X-28720000Y48090000D03*
X-28720000Y50630000D03*
X-28720000Y45550000D03*
%TD*%
D24*
%TO.C,TP1*%
X-36100000Y76350000D03*
%TD*%
D17*
%TO.C,TP8*%
X1100000Y69350000D03*
%TD*%
%LPD*%
M02*
